<?xml version="1.0" encoding="UTF-8"?>
<!DOCTYPE svg PUBLIC "-//W3C//DTD SVG 1.1//EN" "http://www.w3.org/Graphics/SVG/1.1/DTD/svg11.dtd">
<!-- Creator: CorelDRAW 2021 (64-Bit) -->
<svg xmlns="http://www.w3.org/2000/svg" xml:space="preserve" width="4.86529in" height="9.16536in" version="1.1" style="shape-rendering:geometricPrecision; text-rendering:geometricPrecision; image-rendering:optimizeQuality; fill-rule:evenodd; clip-rule:evenodd"
viewBox="0 0 599.73 1129.79"
 xmlns:xlink="http://www.w3.org/1999/xlink"
 xmlns:xodm="http://www.corel.com/coreldraw/odm/2003">
 <defs>
  <style type="text/css">
   <![CDATA[
    .fil2 {fill:#41C8C6}
    .fil3 {fill:#7932C0}
    .fil6 {fill:#CB2FC5}
    .fil7 {fill:#FEA92F}
    .fil0 {fill:white}
    .fil10 {fill:#7932C0;fill-rule:nonzero}
    .fil1 {fill:#E6E4F5;fill-rule:nonzero}
    .fil8 {fill:#41C8C6}
    .fil4 {fill:url(#id0)}
    .fil5 {fill:url(#id1)}
    .fil9 {fill:url(#id2)}
   ]]>
  </style>
  <linearGradient id="id0" gradientUnits="userSpaceOnUse" x1="146.93" y1="155.99" x2="38.48" y2="129.23">
   <stop offset="0" style="stop-opacity:1; stop-color:#41C8C6"/>
   <stop offset="1" style="stop-opacity:1; stop-color:#7932C0"/>
  </linearGradient>
  <linearGradient id="id1" gradientUnits="userSpaceOnUse" x1="133.28" y1="53.89" x2="233.98" y2="65.3">
   <stop offset="0" style="stop-opacity:1; stop-color:#CB2FC5"/>
   <stop offset="1" style="stop-opacity:1; stop-color:#41C8C6"/>
  </linearGradient>
  <linearGradient id="id2" gradientUnits="userSpaceOnUse" xlink:href="#id1" x1="257.1" y1="335.86" x2="527.58" y2="348.68">
  </linearGradient>
 </defs>
 <g id="Layer_x0020_1">
  <metadata id="CorelCorpID_0Corel-Layer"/>
  <polygon class="fil0" points="599.73,0 -0,0 -0,1129.49 599.73,1129.49 "/>
  <g id="_1464260437392">
   <g>
    <g>
     <g>
      <g>
       <path class="fil1" d="M530.59 1053.53c0.19,0.15 0.22,0.41 0.07,0.6 -12.37,16.01 -24.01,31.22 -35.57,46.52 -3.67,5.11 -7.25,10.21 -10.66,15.19 -3.56,4.71 -7.06,9.35 -10.54,13.95l-1.74 0c7.3,-9.81 14.67,-19.65 22.24,-29.65 10.34,-14.38 21.98,-29.6 35.59,-46.54 0.15,-0.18 0.42,-0.21 0.61,-0.07z"/>
      </g>
      <g>
       <path class="fil1" d="M597.79 975.48c-2.66,6.78 -4.87,13.69 -6.47,20.76 2.1,-4.27 4.31,-8.46 6.47,-12.69l0 1.9c-2.42,4.75 -4.87,9.47 -7.22,14.27 -0.1,0.19 -0.32,0.29 -0.53,0.22 -0.2,-0.07 -0.32,-0.27 -0.29,-0.48l0 -0.01c1.78,-9.02 4.54,-17.79 8.03,-26.33l0 2.36z"/>
      </g>
      <g>
       <path class="fil1" d="M597.79 985.88c-2.42,4.6 -4.85,9.18 -7.22,13.84 -0.11,0.21 -0.36,0.3 -0.58,0.19 -0.17,-0.08 -0.26,-0.27 -0.23,-0.45 0,-0.04 0.02,-0.08 0.04,-0.12 2.6,-5.32 5.31,-10.54 7.99,-15.8l0 2.34z"/>
      </g>
      <g>
       <path class="fil1" d="M403.5 0.16c-20.25,42.87 -35.02,85.99 -42.07,129.58 -0.99,6.13 -1.83,12.27 -2.51,18.38 0.16,-1.01 0.31,-2.03 0.48,-3.04 8.04,-49.67 26.49,-97.75 51.95,-144.92l0.97 0c-25.53,47.22 -44.04,95.35 -52.08,145.05 -1.33,8.21 -2.37,16.51 -3.09,24.66 -0.02,0.21 -0.23,0.41 -0.46,0.39 -0.24,-0.02 -0.41,-0.21 -0.4,-0.44 0.66,-13.22 2.1,-26.74 4.28,-40.22 6.66,-41.16 20.51,-83.95 41.91,-129.44l1.01 0z"/>
      </g>
      <g>
       <path class="fil1" d="M597.79 725.1l0 0.87c-5.33,-1.02 -10.8,-2.07 -16.53,-3.18l-12.54 -2.41c7.98,9.94 15.02,19.04 21.5,27.79 2.6,-4.31 5.12,-8.49 7.57,-12.59l0 1.69c-2.32,3.88 -4.71,7.84 -7.17,11.89 -0.08,0.13 -0.2,0.2 -0.35,0.21 -0.14,0.01 -0.28,-0.06 -0.36,-0.18 -6.77,-9.15 -14.16,-18.7 -22.59,-29.18 -0.08,-0.1 -0.11,-0.22 -0.09,-0.34 0.01,-0.05 0.03,-0.1 0.06,-0.15 0.09,-0.15 0.27,-0.23 0.45,-0.2l13.68 2.64c5.67,1.1 11.08,2.13 16.36,3.15z"/>
      </g>
      <g>
       <path class="fil1" d="M597.79 138.69c-35.1,27.55 -67.09,58.21 -89.97,94.56 28.81,-2.85 58,-5.16 89.97,-7.12l0 0.86c-32.26,1.97 -61.69,4.3 -90.75,7.19 -0.17,0.01 -0.32,-0.07 -0.41,-0.2 -0.06,-0.09 -0.08,-0.2 -0.06,-0.3 0.01,-0.05 0.03,-0.1 0.06,-0.16 23.09,-36.96 55.55,-68.04 91.16,-95.93l0 1.1z"/>
      </g>
      <g>
       <path class="fil1" d="M597.79 968.79c-0.65,0.69 -1.31,1.41 -1.96,2.1 -1.87,1.99 -3.74,3.98 -5.56,5.93 -16.12,20.78 -30.42,39.28 -43.92,56.84 6.19,-7.44 12.39,-14.82 18.49,-22.06 10.96,-13.02 22.07,-26.28 32.94,-39.7l0 1.41c-10.66,13.13 -21.55,26.1 -32.28,38.84 -11.5,13.67 -23.39,27.8 -34.85,41.99 -0.15,0.18 -0.41,0.21 -0.6,0.06 -0.13,-0.1 -0.18,-0.26 -0.16,-0.41 0.01,-0.07 0.04,-0.13 0.08,-0.19 18.18,-23.76 37.12,-48.33 59.64,-77.35 1.84,-1.97 3.71,-3.96 5.59,-5.95 0.86,-0.92 1.72,-1.85 2.58,-2.77l0 1.25z"/>
      </g>
      <g>
       <path class="fil1" d="M567.23 719.67c-0.01,0.06 -0.01,0.12 0.01,0.18 13.6,52.29 19.95,101.4 18.87,145.97 -0,0.23 0.17,0.42 0.4,0.44 0.23,0.02 0.43,-0.13 0.46,-0.36l0 -0.01c5.28,-37.73 6.53,-77.09 3.72,-116.98 -0.01,-0.09 -0.03,-0.16 -0.08,-0.23 -6.78,-9.17 -14.17,-18.72 -22.61,-29.21 -0.13,-0.16 -0.35,-0.21 -0.53,-0.12 -0.13,0.07 -0.21,0.18 -0.23,0.31zm19.85 138.81l0 0c0.25,-42.12 -5.97,-88.12 -18.51,-136.91 7.89,9.84 14.85,18.86 21.26,27.52 2.61,37.22 1.69,73.98 -2.75,109.39z"/>
      </g>
      <g>
       <path class="fil1" d="M597.79 737.26c-2.3,3.85 -4.66,7.76 -7.1,11.79 2.57,36.6 1.72,72.75 -2.52,107.6 2.58,-11.78 4.84,-23.68 6.75,-35.49 1.08,-6.64 2,-13.31 2.86,-19.99l0 6.05c-0.65,4.7 -1.26,9.4 -2.01,14.08 -2.4,14.86 -5.37,29.88 -8.82,44.63 -0.05,0.22 -0.27,0.36 -0.5,0.33 -0.23,-0.04 -0.38,-0.25 -0.35,-0.48 5.27,-37.67 6.52,-76.97 3.71,-116.8 -0,-0.03 -0,-0.06 0,-0.1 0.01,-0.05 0.03,-0.1 0.06,-0.15 2.72,-4.5 5.34,-8.86 7.9,-13.14l0 1.69z"/>
      </g>
      <g>
       <path class="fil1" d="M559.14 927.44c-0.02,0.16 0.05,0.34 0.2,0.43 6.74,4.1 12.29,7.66 16.98,10.9 0.12,0.08 0.27,0.1 0.4,0.05 0.13,-0.05 0.23,-0.17 0.26,-0.31 1.93,-8.51 3.62,-17.22 5.02,-25.89 2.48,-15.35 4.15,-31.08 4.97,-46.76 0.01,-0.21 -0.13,-0.4 -0.34,-0.44 -0.21,-0.04 -0.41,0.06 -0.49,0.26 -8.09,19.81 -17.16,40.55 -26.97,61.65 -0.01,0.04 -0.03,0.08 -0.04,0.11zm17.15 10.27l0 0c-4.51,-3.1 -9.81,-6.49 -16.17,-10.37 9.36,-20.15 18.05,-39.98 25.85,-58.98 -0.85,14.8 -2.47,29.63 -4.81,44.12 -1.37,8.44 -3,16.92 -4.87,25.22z"/>
      </g>
      <g>
       <path class="fil1" d="M597.79 76.09c-37.59,45.83 -73.05,97.97 -89.57,154.92 22.98,-35.85 54.77,-66.15 89.57,-93.41l0 1.09c-35.33,27.74 -67.52,58.62 -90.43,95.29 -0.11,0.18 -0.34,0.24 -0.54,0.16 -0.18,-0.07 -0.28,-0.27 -0.25,-0.46 0,-0.02 0,-0.03 0.01,-0.05 16.29,-58.54 52.69,-112.04 91.21,-158.91l0 1.36z"/>
      </g>
      <g>
       <path class="fil1" d="M597.79 976.13c-3.53,4.8 -7.14,9.66 -10.88,14.61 -0.14,0.19 -0.41,0.23 -0.6,0.09 -0.13,-0.1 -0.19,-0.26 -0.17,-0.41 0.01,-0.07 0.04,-0.13 0.08,-0.19 3.92,-5.31 7.77,-10.55 11.57,-15.73l0 1.64z"/>
      </g>
      <g>
       <path class="fil1" d="M597.79 973.31c-10.65,13.13 -21.55,26.09 -32.28,38.84 -7.29,8.67 -14.74,17.52 -22.15,26.47 2.64,-2.89 5.33,-5.8 8.07,-8.77 11.55,-12.51 23.5,-25.45 34.79,-39.63 3.92,-5.31 7.77,-10.55 11.57,-15.72l0 1.45c-3.57,4.87 -7.2,9.81 -10.88,14.79 -11.31,14.21 -23.27,27.17 -34.84,39.69 -7.53,8.16 -14.65,15.86 -21.42,23.71 -0.15,0.18 -0.42,0.2 -0.6,0.05 -0.12,-0.1 -0.17,-0.25 -0.15,-0.39 0.01,-0.07 0.04,-0.14 0.09,-0.2 11.47,-14.19 23.36,-28.32 34.86,-41.99 10.94,-13.01 22.08,-26.25 32.94,-39.66l0 1.36z"/>
      </g>
      <g>
       <path class="fil1" d="M586.83 990.14c0.19,0.15 0.22,0.41 0.08,0.6 -19.15,25.05 -40.07,50.1 -60.3,74.32 -17.54,21.01 -35.53,42.63 -52.87,64.73l-1.57 0c18.5,-24.85 37.5,-49.91 57.83,-76.2 6.78,-7.86 13.9,-15.57 21.44,-23.74 11.55,-12.51 23.5,-25.45 34.8,-39.64 0.14,-0.18 0.41,-0.21 0.6,-0.07zm-34.77 40.29l0 0c-7.53,8.16 -14.65,15.86 -21.4,23.7 -16.41,21.23 -31.99,41.68 -47.13,61.86 14.05,-17.51 28.39,-34.68 42.41,-51.48 15.22,-18.22 30.83,-36.91 45.78,-55.71 -6.55,7.44 -13.17,14.61 -19.66,21.63z"/>
      </g>
      <g>
       <path class="fil1" d="M597.79 32.11c-29.14,-8.83 -63.34,-19.41 -102.02,-31.95l2.75 0c37.55,12.16 70.81,22.44 99.27,31.06l0 0.9z"/>
      </g>
      <g>
       <path class="fil1" d="M412.3 0.16c-25.53,47.23 -44.01,95.35 -52.05,145.05 -0.95,5.87 -1.75,11.77 -2.39,17.63 12.86,-54.5 40.42,-109.14 81.95,-162.68l1.08 0c-43.46,55.92 -71.63,112.95 -83.74,169.76 -0.05,0.22 -0.26,0.37 -0.48,0.34 -0.23,-0.03 -0.39,-0.24 -0.37,-0.46 0.73,-8.17 1.77,-16.49 3.1,-24.72 8.03,-49.67 26.49,-97.75 51.95,-144.92l0.95 0z"/>
      </g>
      <g>
       <path class="fil1" d="M597.79 74.72l0 1.37c-38.22,46.6 -74.23,99.71 -90.38,157.78 -0.05,0.18 -0.22,0.31 -0.41,0.31 -0.19,0 -0.36,-0.12 -0.42,-0.3 -21.25,-66.19 -38.49,-142.8 -52.59,-233.73l0.87 0c14,90.21 31.08,166.31 52.1,232.11 16.47,-58.01 52.61,-111.04 90.83,-157.54z"/>
       <path class="fil1" d="M597.79 32.11c-29.14,-8.82 -63.35,-19.41 -102.03,-31.95l2.78 0c37.55,12.16 70.79,22.44 99.25,31.05l0 0.9z"/>
      </g>
      <g>
       <path class="fil1" d="M440.87 0.16c-43.37,55.81 -71.51,112.72 -83.65,169.42 56.02,24.46 104.8,45.21 149.08,63.44 -21.12,-65.99 -38.27,-142.33 -52.31,-232.85l0.87 0c14.1,90.83 31.31,167.35 52.54,233.47 0.05,0.16 0.01,0.33 -0.12,0.44 -0.12,0.12 -0.3,0.15 -0.46,0.08 -44.59,-18.34 -93.75,-39.25 -150.27,-63.93 -0.18,-0.08 -0.28,-0.27 -0.25,-0.46 0,0 0,-0.01 0,-0.02 12.1,-56.76 40.19,-113.74 83.49,-169.59l1.08 0z"/>
      </g>
      <g>
       <path class="fil1" d="M514.4 1073.86c-0.03,0.16 0.04,0.33 0.19,0.43 0.19,0.12 0.45,0.07 0.59,-0.11 2.77,-3.94 5.65,-7.96 8.56,-11.98 2.06,-2.55 4.32,-5.17 6.91,-8.04 18.2,-23.79 37.14,-48.36 59.63,-77.34 0.14,-0.19 0.11,-0.46 -0.07,-0.6 -0.19,-0.15 -0.45,-0.12 -0.6,0.06 -25.14,30.83 -46.08,57.15 -66.55,85.39 -3.44,4.25 -6.25,8.19 -8.59,12.04 -0.03,0.05 -0.05,0.1 -0.06,0.15zm48.76 -63.42l0 0c-11.34,14.69 -21.92,28.44 -32.23,41.92 10.35,-14 20.94,-27.7 32.23,-41.92z"/>
      </g>
      <g>
       <path class="fil1" d="M483.67 1115.51c-0.03,0.15 0.04,0.32 0.17,0.42 0.19,0.13 0.46,0.09 0.59,-0.1 4.93,-6.68 9.75,-13.21 14.46,-19.6 5.57,-7.55 11,-14.9 16.27,-22.05 0.47,-0.77 0.94,-1.51 1.43,-2.25 4.45,-5.74 9.05,-11.56 14.07,-17.79 0.14,-0.18 0.12,-0.45 -0.06,-0.6 -0.18,-0.15 -0.44,-0.13 -0.6,0.04 -6.05,6.7 -10.53,12.37 -14.11,17.85 -12.11,15.6 -22.63,29.97 -32.15,43.91 -0.04,0.05 -0.06,0.11 -0.07,0.17z"/>
      </g>
      <g>
       <path class="fil1" d="M519.86 1082.06c-0.02,0.15 0.03,0.3 0.16,0.41 0.17,0.14 0.41,0.12 0.57,-0.03 12.16,-11.85 24.36,-22.64 36.28,-32.07 0.08,-0.06 0.13,-0.15 0.15,-0.24 4.27,-18.39 11.37,-36.94 21.09,-55.12 0.12,-0.2 0.04,-0.45 -0.16,-0.57 -0.2,-0.12 -0.45,-0.06 -0.58,0.13 -18.38,27.17 -37.71,56.55 -57.45,87.34 -0.03,0.05 -0.06,0.11 -0.06,0.16zm36.35 -32.27l0 0c-11.03,8.74 -22.31,18.63 -33.56,29.46 17.58,-27.37 34.82,-53.61 51.33,-78.12 -8.02,16.1 -13.99,32.44 -17.77,48.67z"/>
      </g>
      <g>
       <path class="fil1" d="M597.79 964.56c-8.98,13.79 -16.52,26.92 -22.91,39.99 -0.1,0.19 -0.33,0.28 -0.54,0.21 -0.19,-0.07 -0.31,-0.27 -0.27,-0.47 0,-0.01 0,-0.03 0.01,-0.04 0.86,-3.21 1.96,-6.44 3.28,-9.66 6.11,-10.62 12.84,-21.3 20.43,-32.42l0 2.39zm-19.66 30.4l0 0c-0.62,1.52 -1.2,3.06 -1.72,4.6 3.46,-6.8 7.23,-13.64 11.37,-20.6 -3.39,5.38 -6.59,10.7 -9.64,16z"/>
      </g>
      <g>
       <path class="fil1" d="M597.79 964.55c-7.92,12.17 -15.62,25.22 -22.41,38.98 4.28,-1.75 9.13,-3.22 14.43,-4.36 1.72,-8.6 4.38,-17.19 7.97,-26l0 2.18c-3.23,8.21 -5.6,16.23 -7.18,24.26 -0.03,0.16 -0.16,0.3 -0.33,0.34 -5.81,1.23 -11.06,2.85 -15.61,4.81 -0.17,0.07 -0.36,0.03 -0.48,-0.1 -0.1,-0.1 -0.13,-0.23 -0.11,-0.37 0.01,-0.04 0.02,-0.08 0.03,-0.12 7.13,-14.58 15.3,-28.35 23.69,-41.16l0 1.53z"/>
      </g>
      <g>
       <path class="fil1" d="M556.17 1049.97c-0.04,0.21 0.1,0.42 0.32,0.48 0.22,0.06 0.46,-0.07 0.52,-0.29 4.59,-15.32 10.6,-30.67 17.87,-45.6 0.88,-3.25 1.97,-6.45 3.25,-9.59 0.09,-0.22 -0.01,-0.45 -0.22,-0.55 -0.21,-0.09 -0.45,-0.01 -0.56,0.19 -9.76,18.26 -16.88,36.87 -21.17,55.34 -0,0.01 -0.01,0.02 -0.01,0.03zm18.9 -49.1l0 0c-0.36,1.13 -0.69,2.26 -0.99,3.38 -4.69,9.63 -8.87,19.47 -12.48,29.37 3.53,-10.95 8.04,-21.9 13.48,-32.75z"/>
      </g>
      <g>
       <path class="fil1" d="M570.41 1019.24c-0.64,3.95 -1.02,7.94 -1.14,11.86 -0,0.19 0.12,0.36 0.31,0.42 0.18,0.06 0.39,-0.02 0.49,-0.18 7.13,-11.01 13.95,-21.52 20.49,-31.58 0.1,-0.15 0.09,-0.33 -0.01,-0.47 -0.1,-0.14 -0.27,-0.21 -0.44,-0.18 -5.86,1.25 -11.17,2.88 -15.77,4.86 -0.12,0.05 -0.2,0.15 -0.24,0.26 -1.63,4.93 -2.86,9.98 -3.67,15zm-0.22 10.32l0 0c0.4,-8.28 1.98,-16.69 4.65,-24.87 4.24,-1.81 9.08,-3.32 14.41,-4.51 -6.1,9.38 -12.45,19.17 -19.07,29.38z"/>
      </g>
      <g>
       <path class="fil1" d="M556.17 1049.97c-0.03,0.18 0.07,0.37 0.24,0.45 0.19,0.09 0.42,0.03 0.54,-0.14 3.7,-5.34 7.3,-10.56 10.83,-15.65l2.27 -3.28c0.05,-0.08 0.07,-0.15 0.08,-0.24 0.27,-8.83 1.89,-17.87 4.77,-26.62 0.07,-0.23 -0.04,-0.45 -0.25,-0.53 -0.21,-0.08 -0.45,0.01 -0.55,0.21 -7.29,14.99 -13.32,30.37 -17.92,45.74 -0.01,0.02 -0.01,0.03 -0.02,0.05zm13.1 -19l0 0 -2.2 3.17c-3.02,4.38 -6.11,8.84 -9.26,13.38 3.95,-12.72 8.87,-25.45 14.67,-37.94 -1.9,7.09 -2.99,14.3 -3.21,21.38z"/>
      </g>
      <g>
       <path class="fil1" d="M393.58 0.16c-20.22,43.5 -35.3,87.84 -42.51,132.41 -3.82,23.62 -5.44,47.17 -4.81,70.01 2.86,100.58 39.56,202.86 78.42,311.16 27.34,76.19 55.62,154.98 73.68,237.76 18.72,85.98 21.99,168.01 9.74,243.77 -2.96,18.32 -6.89,36.45 -11.67,53.88 -3.63,13.22 -7.85,26.48 -12.65,39.83 6.82,-18.43 12.52,-36.7 17.15,-54.84 3.68,-14.45 6.77,-29.41 9.21,-44.46 13.11,-81.06 8.26,-170.18 -14.4,-264.88 -17.54,-73.12 -41.91,-143.18 -65.47,-210.94 -42.05,-120.93 -81.78,-235.16 -73.99,-344.04 0.66,-13.23 2.1,-26.75 4.28,-40.22 6.66,-41.15 20.52,-83.95 41.91,-129.44l1.01 0c-20.25,42.87 -35.02,85.99 -42.07,129.58 -2.17,13.43 -3.61,26.93 -4.27,40.13 -7.78,108.71 31.92,222.86 73.95,343.71 23.57,67.78 47.94,137.86 65.49,211.02 22.7,94.81 27.54,184.05 14.42,265.22 -2.44,15.08 -5.55,30.06 -9.23,44.53 -8,31.39 -19.25,63.1 -33.86,95.45l-1.5 0c12.15,-27.31 21.86,-54.19 29.19,-80.86 4.77,-17.41 8.69,-35.51 11.65,-53.8 12.24,-75.66 8.96,-157.57 -9.73,-243.46 -18.05,-82.73 -46.32,-161.49 -73.66,-237.66 -38.88,-108.35 -75.61,-210.7 -78.47,-311.42 -0.63,-22.89 1,-46.5 4.83,-70.17 6.86,-42.41 20.78,-86.12 42.18,-132.27l1.18 0z"/>
      </g>
      <g>
       <path class="fil1" d="M597.79 963.78c-7.27,10.7 -13.84,21.06 -19.69,31.25 -0.12,0.2 -0.38,0.28 -0.59,0.16 -0.16,-0.09 -0.24,-0.27 -0.21,-0.45 0.01,-0.05 0.02,-0.09 0.05,-0.14 5.77,-10.55 12.54,-21.4 20.44,-32.81l0 1.99z"/>
      </g>
      <g>
       <path class="fil1" d="M597.79 963.34c-3.1,4.5 -6.14,9.02 -9.03,13.61 0.28,-0.22 0.56,-0.44 0.84,-0.65 2.76,-3.53 5.49,-7.01 8.19,-10.46l0 1.39c-2.51,3.19 -5.02,6.4 -7.59,9.68 -1.02,0.8 -1.99,1.59 -2.87,2.34 -3.29,5.29 -6.39,10.61 -9.22,15.79 -0.08,0.16 -0.26,0.24 -0.43,0.22 -0.18,-0.02 -0.32,-0.15 -0.36,-0.33 -0.25,-1.05 -0.29,-2.15 -0.11,-3.28 0.62,-3.82 3.72,-8.06 9.47,-12.97 3.53,-5.68 7.28,-11.27 11.12,-16.82l0 1.49zm-19.83 30.15l0 0c2.23,-4.04 4.62,-8.16 7.13,-12.28 -5.03,4.72 -7.37,8.72 -7.13,12.28z"/>
      </g>
      <g>
       <path class="fil1" d="M597.79 985.85c-2.05,3.92 -4.13,7.82 -6.15,11.78 2.02,-1.83 4.1,-3.59 6.15,-5.39l0 1.16c-2.44,2.15 -4.91,4.26 -7.31,6.45 -0.16,0.14 -0.39,0.15 -0.55,0.02 -0.13,-0.1 -0.19,-0.25 -0.16,-0.41 0.01,-0.05 0.02,-0.08 0.04,-0.12 2.62,-5.16 5.31,-10.23 7.99,-15.32l0 1.83z"/>
      </g>
      <g>
       <path class="fil1" d="M597.79 807.22c-0.65,4.7 -1.26,9.4 -2.01,14.07 -1.8,11.13 -3.92,22.36 -6.32,33.48 3,-10.07 5.76,-20.11 8.33,-30.13l0 3.45c-3.28,12.59 -6.89,25.22 -10.84,37.87 -0.07,0.22 -0.3,0.34 -0.52,0.28 -0.22,-0.06 -0.36,-0.28 -0.31,-0.51 3.44,-14.73 6.4,-29.73 8.8,-44.58 1.08,-6.65 2,-13.34 2.86,-20.04l0 6.1z"/>
      </g>
      <g>
       <path class="fil1" d="M510.98 1115.84c-0.69,4.28 -1.23,8.62 -1.6,12.91 -0.02,0.2 0.1,0.39 0.29,0.44 0.2,0.07 0.4,-0.02 0.51,-0.19 16.45,-27.99 32.19,-54.48 46.79,-78.74 0.1,-0.18 0.07,-0.4 -0.09,-0.54 -0.16,-0.14 -0.39,-0.15 -0.55,-0.02 -11.93,9.45 -24.16,20.26 -36.34,32.12 -0.05,0.05 -0.08,0.1 -0.11,0.16 -4.06,11.05 -7.06,22.45 -8.9,33.85zm-0.57 11.06l0 0c0.36,-3.63 0.83,-7.3 1.42,-10.92 1.83,-11.32 4.8,-22.63 8.83,-33.61 11.5,-11.2 23.05,-21.45 34.34,-30.51 -13.96,23.22 -28.95,48.45 -44.59,75.04z"/>
      </g>
      <g>
       <path class="fil1" d="M597.79 993.39c-2.4,2.11 -4.83,4.19 -7.2,6.35 -2.22,17.76 0.24,37.27 7.2,58.07l0 2.63c-7.64,-21.87 -10.39,-42.37 -8.03,-60.96 0,-0.01 0,-0.01 0,-0.02 0.01,-0.09 0.06,-0.18 0.13,-0.25 2.59,-2.37 5.26,-4.65 7.9,-6.96l0 1.14z"/>
      </g>
      <g>
       <path class="fil1" d="M597.79 226.99c-32.09,1.96 -61.4,4.28 -90.32,7.15 3.3,27.05 8.61,54.01 15.81,80.17 17.33,-25.69 41.9,-49.05 74.51,-70.83l0 1.03c-32.61,21.84 -57.1,45.27 -74.32,71.05 -0.09,0.14 -0.26,0.21 -0.43,0.19 -0.17,-0.03 -0.3,-0.15 -0.35,-0.31 -7.37,-26.61 -12.8,-54.08 -16.13,-81.63 -0,-0.05 -0,-0.08 0,-0.12 0.01,-0.08 0.04,-0.14 0.09,-0.2 0.07,-0.1 0.18,-0.15 0.29,-0.16 29.09,-2.89 58.55,-5.22 90.84,-7.2l0 0.86z"/>
      </g>
      <g>
       <path class="fil1" d="M597.79 244.52c-32.52,21.79 -56.98,45.15 -74.19,70.85 23.86,52.92 50.49,98.72 74.19,135.63l0 1.59c-23.92,-37.18 -50.91,-83.47 -75.07,-137.07 -0.04,-0.08 -0.05,-0.16 -0.03,-0.24 0.01,-0.06 0.04,-0.12 0.07,-0.17 17.36,-26.01 42.09,-49.61 75.03,-71.61l0 1.04z"/>
      </g>
      <g>
       <path class="fil1" d="M597.79 1074.35c-5.45,17.14 -11.11,35.51 -17.04,55.44l-0.9 0c6.26,-21.02 12.22,-40.33 17.94,-58.27l0 2.83z"/>
      </g>
      <g>
       <path class="fil1" d="M484.34 1115.23c0.19,0.14 0.24,0.39 0.11,0.59 -3.13,4.68 -6.07,9.33 -8.92,13.97l-1.03 0c0.87,-1.42 1.73,-2.84 2.63,-4.27 -1.09,1.44 -2.14,2.84 -3.22,4.27l-1.08 0c3.6,-4.77 7.24,-9.59 10.93,-14.47 0.14,-0.18 0.4,-0.22 0.59,-0.09z"/>
      </g>
      <g>
       <path class="fil1" d="M515.08 1073.58c0.18,0.14 0.23,0.4 0.1,0.59 -13.41,18.84 -25.86,37.22 -37.77,55.62l-1.01 0c6.45,-9.97 13.01,-19.93 19.85,-29.97 -3.86,5.24 -7.8,10.57 -11.8,16 -3.13,4.68 -6.11,9.34 -8.96,13.97l-0.97 0c2.94,-4.8 5.98,-9.62 9.22,-14.46 4.93,-6.68 9.74,-13.21 14.46,-19.59 5.58,-7.55 11,-14.91 16.27,-22.06 0.14,-0.19 0.41,-0.23 0.6,-0.1z"/>
      </g>
      <g>
       <path class="fil1" d="M356.3 169.76c-0,0.03 -0.01,0.05 -0.01,0.08 2.92,117.01 50.3,228.79 100.45,347.13 39.35,92.84 80.04,188.85 97.04,287.4 0.04,0.2 0.21,0.35 0.42,0.35 0.21,0 0.39,-0.14 0.43,-0.34 2.76,-13.29 5.25,-26.75 7.39,-39.99 2.4,-14.82 4.44,-29.83 6.06,-44.61 0.01,-0.07 0,-0.13 -0.02,-0.19 -22.99,-66.4 -55.42,-133.25 -86.77,-197.89 -54.4,-112.17 -110.66,-228.15 -124.14,-351.92 -0.02,-0.23 -0.23,-0.4 -0.45,-0.38 -0.2,0.01 -0.37,0.16 -0.4,0.36zm197.94 632.24l0 0c-17.24,-97.86 -57.64,-193.16 -96.7,-285.36 -48.63,-114.72 -94.63,-223.27 -100,-336.32 15.42,120.01 70.08,232.69 122.98,341.76 31.33,64.59 63.72,131.38 86.7,197.71 -1.62,14.74 -3.66,29.71 -6.05,44.48 -2.02,12.49 -4.35,25.18 -6.93,37.74z"/>
      </g>
      <g>
       <path class="fil1" d="M567.23 719.67c-0,0.01 -0,0.02 -0.01,0.02 -1.62,14.77 -3.66,29.77 -6.05,44.57 -2.14,13.24 -4.63,26.68 -7.38,39.95 -0,0.08 -0,0.22 0.06,0.31 14.01,22.54 24.57,42.65 32.3,61.47 0.08,0.18 0.28,0.29 0.48,0.25 0.2,-0.03 0.33,-0.2 0.35,-0.41 1.08,-44.63 -5.28,-93.8 -18.89,-146.15 -0.01,-0.2 -0.15,-0.38 -0.36,-0.41 -0.24,-0.04 -0.46,0.1 -0.5,0.37l-0 0.01zm-5.21 44.73l0 0c2.27,-14.04 4.22,-28.25 5.81,-42.28 12.99,50.65 19.15,98.28 18.33,141.66 -7.65,-18.28 -17.97,-37.79 -31.49,-59.56 2.74,-13.24 5.22,-26.63 7.35,-39.82z"/>
      </g>
      <g>
       <path class="fil1" d="M553.79 804.23c-0.01,0.04 -0.01,0.09 0,0.13 7.19,43.01 8.99,84.43 5.35,123.1 -0.02,0.2 0.11,0.4 0.32,0.45 0.21,0.06 0.42,-0.05 0.5,-0.24 9.81,-21.11 18.89,-41.87 26.98,-61.69 0.04,-0.1 0.04,-0.21 0,-0.32 -7.75,-18.86 -18.34,-39.01 -32.37,-61.59 -0.11,-0.17 -0.32,-0.25 -0.52,-0.18 -0.15,0.05 -0.25,0.18 -0.28,0.33zm6.44 120.84l0 0c3.28,-37.38 1.53,-77.29 -5.23,-118.69 13.4,21.73 23.58,41.2 31.09,59.45 -7.79,19.06 -16.48,38.98 -25.86,59.24z"/>
      </g>
      <g>
       <path class="fil1" d="M512.01 1059.78c-0.03,0.19 0.07,0.38 0.25,0.46 0.22,0.09 0.47,-0 0.56,-0.21 20.68,-44.79 36.54,-89.34 47.16,-132.42 3.66,-38.81 1.85,-80.29 -5.35,-123.38 -0.04,-0.22 -0.25,-0.38 -0.48,-0.36 -0.23,0.03 -0.41,0.23 -0.38,0.46 3.01,42.87 1.04,86.28 -5.88,129 -7,43.31 -19.07,85.82 -35.87,126.36 -0.02,0.03 -0.02,0.07 -0.03,0.1zm36.75 -126.31l0 0c6.44,-39.81 8.6,-80.2 6.44,-120.21 6,39.84 7.33,78.21 3.94,114.22 -9.23,37.41 -22.43,75.98 -39.33,114.87 13.22,-35.21 22.94,-71.75 28.94,-108.87z"/>
      </g>
      <g>
       <path class="fil1" d="M357.16 169.82c2.92,116.85 50.26,228.56 100.39,346.82 39.37,92.89 80.08,188.95 97.1,287.66 0.45,36.28 -2.27,72.94 -8.1,108.96 -4.53,28.02 -11.01,56.04 -19.26,83.29 -13.01,42.89 -31.48,87.49 -55.09,133.24l-0.96 0c23.68,-45.84 42.19,-90.52 55.22,-133.49 8.24,-27.22 14.71,-55.2 19.23,-83.18 5.82,-35.97 8.54,-72.58 8.1,-108.75 -17,-98.55 -57.69,-194.56 -97.04,-287.4 -48.81,-115.18 -94.98,-224.13 -100.12,-337.74 -4.75,107.24 34.74,220.25 76.48,339.68 16.03,45.88 32.62,93.33 47.18,141.84 31.52,105.19 44.03,195.76 38.27,276.9 -1.07,14.97 -2.86,30.23 -5.3,45.36 -7.95,49.15 -22.89,98.27 -44.55,146.77l-0.96 0c21.71,-48.55 36.7,-97.71 44.66,-146.91 2.44,-15.1 4.23,-30.34 5.3,-45.29 5.76,-81.03 -6.75,-171.5 -38.24,-276.6 -14.56,-48.48 -31.13,-95.92 -47.17,-141.81 -42.99,-123 -83.59,-239.18 -76,-349.38 0,-0.02 0,-0.03 0.01,-0.05 0.03,-0.21 0.22,-0.36 0.43,-0.36 0.23,0 0.42,0.19 0.42,0.42z"/>
      </g>
      <g>
       <path class="fil1" d="M357.15 169.88c-7.57,110.02 33,226.12 75.96,349.04 16.03,45.88 32.62,93.33 47.18,141.84 31.52,105.19 44.03,195.76 38.27,276.9 -1.07,14.97 -2.86,30.23 -5.3,45.36 -7.95,49.16 -22.91,98.27 -44.57,146.77l-1.76 0c14.72,-32.51 26.04,-64.31 34.03,-95.65 3.68,-14.45 6.77,-29.41 9.21,-44.46 13.11,-81.06 8.26,-170.18 -14.4,-264.88 -17.54,-73.12 -41.91,-143.18 -65.47,-210.94 -42.05,-120.92 -81.77,-235.13 -73.99,-344.01 0,-0.02 0.01,-0.03 0,-0.04 0,-0.02 0,-0.03 0.01,-0.05 0,-0.01 0,-0.01 0,-0.02 0.04,-0.24 0.26,-0.39 0.49,-0.36 0.24,0.04 0.4,0.26 0.36,0.49zm153.85 819.93l0 0c-0.99,6.09 -2.08,12.17 -3.28,18.2 1.76,-8.37 3.32,-16.75 4.67,-25.13 2.44,-15.1 4.23,-30.34 5.3,-45.29 4.56,-64.14 -2.37,-134.25 -21.06,-212.81 22.65,94.74 27.49,183.91 14.37,265.02zm-14.44 -265.31l0 0c-3.19,-13.38 -6.68,-26.98 -10.56,-40.87 3.72,13.51 7.26,27.14 10.56,40.87z"/>
      </g>
      <g>
       <path class="fil1" d="M554.64 804.31c3.01,42.92 1.03,86.38 -5.89,129.15 -7.02,43.37 -19.1,85.95 -35.94,126.57 -11.33,22.7 -23.78,45.84 -37.54,69.75l-1 0c13.84,-24.04 26.37,-47.3 37.76,-70.1 16.79,-40.54 28.86,-83.05 35.87,-126.36 6.09,-37.64 8.35,-75.82 6.74,-113.69 -0.38,31.26 -3.09,62.67 -8.1,93.62 -4.53,28.02 -11.01,56.04 -19.26,83.29 -13.01,42.89 -31.5,87.49 -55.11,133.24l-0.95 0c23.68,-45.84 42.2,-90.52 55.23,-133.49 8.24,-27.22 14.71,-55.2 19.23,-83.18 5.82,-35.97 8.54,-72.58 8.09,-108.82 0,-0.03 0.01,-0.06 0.01,-0.08 0.04,-0.23 0.26,-0.4 0.49,-0.36 0.22,0.03 0.38,0.23 0.36,0.45z"/>
      </g>
      <g>
       <path class="fil1" d="M512.6 1059.46c0.21,0.09 0.32,0.32 0.24,0.54 -8.16,23.04 -18.7,46.48 -31.34,69.8l-1.05 0c11.46,-21.08 21.27,-42.28 29.08,-63.21 -10.44,20.6 -21.83,41.59 -34.27,63.21l-0.97 0c13.84,-24.05 26.37,-47.31 37.76,-70.13 0.1,-0.2 0.35,-0.3 0.55,-0.2z"/>
      </g>
      <g>
       <path class="fil1" d="M515.07 1073.58c0.19,0.13 0.23,0.41 0.1,0.59 0,0 0,0 -0,0 -13.25,18.88 -25.13,37.32 -35.91,55.62l-1.01 0c3.29,-5.6 6.66,-11.21 10.17,-16.84 -3.75,5.62 -7.39,11.23 -11.02,16.84l-1.02 0c12.01,-18.56 24.56,-37.1 38.09,-56.11 0.13,-0.19 0.41,-0.24 0.6,-0.1z"/>
      </g>
      <g>
       <path class="fil1" d="M520.48 1081.76c0.2,0.09 0.3,0.32 0.21,0.52 -5.56,15.13 -9.11,30.9 -10.46,46.54 0.01,0.13 -0.07,0.23 -0.17,0.31 -0.29,0.21 -0.58,0.45 -0.87,0.67l-1.42 0c0.54,-0.4 1.08,-0.84 1.61,-1.24 1.29,-14.64 4.47,-29.38 9.43,-43.6l-18.5 26.2c-4.27,6.05 -8.68,12.3 -13.16,18.63l-1.05 0c4.59,-6.5 9.12,-12.91 13.5,-19.12l20.32 -28.78c0.12,-0.18 0.36,-0.23 0.55,-0.13z"/>
      </g>
      <g>
       <path class="fil1" d="M356.3 169.76c-0.01,0.07 -0.01,0.14 0.01,0.2 22.82,74.99 56.28,150.93 102.3,232.17 27.23,48.03 55.47,92.49 82.79,135.49 10.83,17.05 21.05,33.16 31.13,49.33 0.11,0.18 0.35,0.25 0.55,0.16 0.19,-0.1 0.29,-0.33 0.22,-0.53 -2.84,-7.98 -5.68,-15.94 -8.52,-23.87 -39.47,-110.39 -76.74,-214.65 -61.59,-308.33 1.12,-6.94 2.54,-13.83 4.22,-20.5 0.07,-0.19 -0.06,-0.42 -0.26,-0.5 -44.59,-18.34 -93.74,-39.25 -150.26,-63.93 -0.15,-0.06 -0.33,-0.03 -0.46,0.07 -0.08,0.08 -0.13,0.16 -0.14,0.25zm214.85 413.36l0 0c-9.4,-15.05 -18.95,-30.09 -29.03,-45.97 -27.31,-42.99 -55.55,-87.45 -82.77,-135.46 -45.81,-80.85 -79.16,-156.46 -101.95,-231.1 56.02,24.45 104.8,45.21 149.07,63.42 -1.64,6.58 -3.04,13.38 -4.14,20.22 -15.19,93.9 22.12,198.26 61.63,308.75 2.39,6.69 4.79,13.41 7.19,20.14z"/>
      </g>
      <g>
       <path class="fil1" d="M502.34 254.23c-15.19,93.89 22.12,198.26 61.63,308.75 2.84,7.93 5.68,15.88 8.52,23.87 0.07,0.22 0.31,0.34 0.54,0.26 0.22,-0.07 0.35,-0.3 0.28,-0.52 -3.88,-13.7 -7.86,-27.34 -11.71,-40.53 -24.23,-83.1 -47.13,-161.59 -38.06,-230.69 0.01,-0.05 0,-0.11 -0.01,-0.16 -7.36,-26.57 -12.78,-54 -16.11,-81.51 -0.03,-0.2 -0.2,-0.36 -0.4,-0.38 -0.21,-0.01 -0.39,0.12 -0.45,0.32 -1.68,6.69 -3.11,13.61 -4.23,20.58zm66.44 319.67l0 0c-1.34,-3.73 -2.67,-7.47 -4,-11.2 -39.47,-110.39 -76.74,-214.65 -61.59,-308.33 1,-6.16 2.23,-12.28 3.66,-18.23 3.35,26.75 8.67,53.38 15.83,79.23 -9.06,69.24 13.84,147.8 38.1,230.94 2.63,9.03 5.33,18.27 8.01,27.59z"/>
      </g>
      <g>
       <path class="fil1" d="M356.3 169.76c-0.01,0.04 -0.01,0.08 -0,0.12 13.49,123.92 69.78,239.97 124.22,352.2 31.34,64.63 63.75,131.44 86.73,197.8 0.07,0.18 0.26,0.31 0.46,0.28 0.2,-0.02 0.35,-0.18 0.38,-0.38 5.91,-53.99 5.82,-101.81 5.23,-133.08 0,-0.08 -0.02,-0.16 -0.06,-0.22 -10.07,-16.17 -20.3,-32.28 -31.13,-49.33 -27.31,-42.99 -55.55,-87.45 -82.77,-135.46 -45.97,-81.15 -79.41,-157.01 -102.2,-231.91 -0.02,-0.19 -0.16,-0.36 -0.36,-0.39 -0.24,-0.04 -0.46,0.12 -0.49,0.36 -0,0.02 -0,0.02 -0,0.02zm211.13 548.03l0 0c-22.95,-65.8 -55.07,-132.02 -86.14,-196.08 -53.73,-110.78 -109.26,-225.26 -123.62,-347.31 22.78,73.54 55.82,148.09 100.94,227.72 27.23,48.04 55.47,92.5 82.79,135.5 10.8,17.02 21.01,33.09 31.06,49.23 0.58,30.88 0.67,77.87 -5.03,130.95z"/>
      </g>
      <g>
       <path class="fil1" d="M597.79 450.98l0 1.6c-23.72,-36.86 -50.45,-82.67 -74.44,-135.68 -8.55,68.72 14.19,146.67 38.25,229.17 3.77,12.91 7.66,26.25 11.46,39.64 9.09,-13.19 17.33,-25.41 24.73,-36.39l0 1.54c-7.36,10.93 -15.53,23.02 -24.54,36.09 -0.1,0.15 -0.26,0.21 -0.43,0.18 -0.16,-0.03 -0.3,-0.15 -0.34,-0.31 -3.88,-13.69 -7.86,-27.33 -11.71,-40.52 -24.26,-83.19 -47.18,-161.76 -38.08,-231.03 0,-0.01 0,-0.01 0,-0.01 0.03,-0.18 0.18,-0.33 0.37,-0.35 0.19,-0.03 0.37,0.08 0.45,0.25 23.89,53.02 50.56,98.87 74.28,135.83z"/>
      </g>
      <g>
       <path class="fil1" d="M597.79 550.86c-7.31,10.86 -15.42,22.87 -24.37,35.85 8.56,11.95 16.67,23.45 24.37,34.58l0 1.52c-7.96,-11.53 -16.36,-23.43 -25.25,-35.84 -0.07,-0.1 -0.09,-0.21 -0.07,-0.32 0.01,-0.06 0.03,-0.12 0.07,-0.18 9.3,-13.49 17.71,-25.95 25.25,-37.15l0 1.54z"/>
      </g>
      <g>
       <path class="fil1" d="M597.79 686.79l0 4.8c-6.78,-37.7 -16.2,-72.99 -24.41,-101.62 0.52,31.21 0.42,77.44 -5.25,129.42l13.3 2.56c5.67,1.1 11.08,2.13 16.36,3.15l0 0.87c-5.33,-1.02 -10.8,-2.07 -16.53,-3.18l-13.69 -2.63c-0.22,-0.04 -0.37,-0.24 -0.35,-0.47 5.91,-53.93 5.82,-101.71 5.23,-132.97 0,-0.02 0.01,-0.05 0.01,-0.07 0,-0.01 0,-0.02 0,-0.02 0.04,-0.23 0.26,-0.39 0.49,-0.35 0.2,0.03 0.35,0.2 0.36,0.4 8.09,28.03 17.5,62.79 24.47,100.13z"/>
      </g>
      <g>
       <path class="fil1" d="M597.79 632.42l0 1.86c-7.44,-14.54 -15,-28.63 -22.27,-41.89 7.44,19.56 15.16,40.76 22.27,62.97l0 2.94c-8.04,-25.38 -16.91,-49.52 -25.3,-71.43 -0.03,-0.07 -0.04,-0.15 -0.02,-0.22 0.02,-0.14 0.11,-0.25 0.24,-0.32 0.21,-0.09 0.45,-0.01 0.56,0.18 7.93,14.41 16.29,29.88 24.52,45.91z"/>
      </g>
      <g>
       <path class="fil1" d="M597.79 621.29l0 1.5c-6.68,-9.68 -13.69,-19.64 -21.03,-29.93 6.87,12.56 14,25.83 21.03,39.53l0 1.93c-8.48,-16.56 -17.1,-32.55 -25.28,-47.4 -0.05,-0.09 -0.06,-0.18 -0.05,-0.28 0,-0.01 0,-0.02 0,-0.02 0.04,-0.23 0.26,-0.39 0.49,-0.35 0.16,0.02 0.29,0.13 0.34,0.27 8.6,12.01 16.76,23.56 24.49,34.74z"/>
      </g>
      <g>
       <path class="fil1" d="M597.79 655.4l0 2.79c-6.9,-21.77 -14.42,-42.61 -21.72,-61.91 7.41,26.19 15.53,57.36 21.72,90.54l0 4.79c-7.03,-39.08 -16.9,-75.59 -25.31,-104.77 -0.02,-0.06 -0.02,-0.12 -0.01,-0.18 0,-0.01 0,-0.02 0,-0.02 0.04,-0.23 0.26,-0.39 0.49,-0.35 0.19,0.03 0.34,0.18 0.36,0.36 8.11,21.14 16.65,44.35 24.47,68.77z"/>
      </g>
      <g>
       <path class="fil1" d="M597.79 828.09c-3.26,12.51 -6.84,25.06 -10.76,37.62 3.92,3.94 7.46,7.73 10.76,11.4l0 1.28c-3.5,-3.94 -7.33,-8.01 -11.56,-12.27 -0.1,-0.1 -0.14,-0.24 -0.12,-0.37 0,-0.02 0.01,-0.04 0.01,-0.06 4.28,-13.68 8.17,-27.36 11.66,-40.96l0 3.35z"/>
      </g>
      <g>
       <path class="fil1" d="M597.79 877.12l0 1.28c-3.31,-3.73 -6.9,-7.57 -10.87,-11.58 -0.83,15.36 -2.48,30.75 -4.92,45.79 -1.35,8.36 -2.97,16.75 -4.81,24.98 7.22,-3.85 14.05,-7.63 20.6,-11.35l0 0.98c-6.67,3.79 -13.65,7.64 -21.02,11.56 -0.15,0.08 -0.33,0.07 -0.46,-0.03 -0.13,-0.1 -0.18,-0.26 -0.16,-0.44 1.92,-8.5 3.61,-17.19 5.01,-25.84 2.48,-15.32 4.15,-31.02 4.96,-46.67 0,-0.02 0,-0.03 0.01,-0.05 -0,-0.01 0,-0.01 0,-0.02 0.04,-0.24 0.26,-0.4 0.49,-0.36 0.14,0.02 0.25,0.11 0.31,0.22 3.96,3.99 7.54,7.81 10.86,11.52z"/>
      </g>
      <g>
       <path class="fil1" d="M558.1 1078.12c-0.88,5.41 -1.64,10.96 -2.27,16.49 -0.03,0.22 0.13,0.43 0.35,0.47 0.22,0.04 0.44,-0.09 0.5,-0.31 9.66,-33.98 21.07,-65.96 33.91,-95.07 0.09,-0.21 0.01,-0.44 -0.19,-0.55 -0.2,-0.11 -0.45,-0.05 -0.57,0.14 -6.53,10.05 -13.36,20.57 -20.49,31.57 -0.02,0.03 -0.04,0.07 -0.05,0.11 -4.79,15.02 -8.55,30.88 -11.18,47.14zm-0.77 11.22l0 0c0.49,-3.72 1.02,-7.44 1.61,-11.09 2.62,-16.2 6.37,-32.01 11.14,-46.97 6.09,-9.41 11.96,-18.47 17.62,-27.18 -11.36,26.35 -21.56,54.98 -30.38,85.23z"/>
      </g>
      <g>
       <path class="fil1" d="M590.61 999.59c-2.26,17.81 0.18,37.39 7.18,58.28l0 2.59c-7.26,-20.77 -10.1,-40.3 -8.35,-58.15 -12.22,28.07 -23.12,58.76 -32.43,91.29 13.38,-9.6 27.08,-18.65 40.78,-26.99l0 1.01c-13.87,8.46 -27.75,17.65 -41.28,27.39 -0.15,0.11 -0.35,0.11 -0.5,0 -0.14,-0.1 -0.21,-0.26 -0.18,-0.42 0,-0.02 0.01,-0.03 0.02,-0.05 9.67,-34.02 21.09,-66.04 33.94,-95.19 0.09,-0.19 0.3,-0.3 0.51,-0.24 0.21,0.05 0.34,0.25 0.31,0.47z"/>
      </g>
      <g>
       <path class="fil1" d="M556.17 1049.97c-2.2,14.26 -2.32,29.31 -0.34,44.74 0.03,0.21 0.21,0.38 0.43,0.37 0.22,0 0.37,-0.15 0.42,-0.38 0.63,-5.52 1.39,-11.05 2.27,-16.44 2.62,-16.22 6.38,-32.04 11.15,-47.02 0.06,-0.21 -0.03,-0.42 -0.22,-0.52 -0.19,-0.09 -0.43,-0.03 -0.54,0.15l-2.23 3.22c-3.54,5.11 -7.16,10.35 -10.87,15.71 -0.03,0.05 -0.06,0.11 -0.07,0.18zm0.09 41.03l0 0c-1.51,-14.05 -1.26,-27.76 0.74,-40.8 3.69,-5.33 7.3,-10.54 10.81,-15.63l0.62 -0.89c-4.39,14.21 -7.86,29.15 -10.33,44.44 -0.69,4.24 -1.3,8.55 -1.84,12.88z"/>
      </g>
      <g>
       <path class="fil1" d="M509.38 1128.71c-0.02,0.14 0.03,0.29 0.14,0.39 0.16,0.13 0.39,0.13 0.55,0 15.23,-12.36 30.85,-23.84 46.42,-34.1 0.14,-0.08 0.21,-0.24 0.19,-0.41 -1.97,-15.35 -1.86,-30.32 0.34,-44.5 0.03,-0.2 -0.08,-0.39 -0.28,-0.47 -0.19,-0.07 -0.41,0.01 -0.51,0.18 -14.6,24.26 -30.34,50.75 -46.79,78.75 -0.03,0.05 -0.05,0.1 -0.05,0.15zm46.42 -34.26l0 0c-14.89,9.82 -29.83,20.75 -44.42,32.51 15.6,-26.53 30.56,-51.7 44.48,-74.86 -1.89,13.54 -1.91,27.77 -0.06,42.35z"/>
      </g>
      <g>
       <path class="fil1" d="M556.69 1094.71c-1.45,11.22 -2.46,22.85 -3.04,35.08l-0.82 0c0.57,-11.91 1.5,-23.31 2.89,-34.26 -15.25,10.08 -30.53,21.33 -45.45,33.42 0.04,0.28 0.11,0.56 0.16,0.83l-0.87 0c-0.05,-0.31 -0.13,-0.63 -0.17,-0.94 -0.01,-0.05 -0.01,-0.09 0,-0.13 0.02,-0.1 0.07,-0.2 0.15,-0.26 15.25,-12.38 30.9,-23.87 46.49,-34.15 0.14,-0.1 0.32,-0.1 0.46,-0.01 0.14,0.09 0.22,0.25 0.2,0.42z"/>
      </g>
      <g>
       <path class="fil1" d="M579.85 1129.79c6.26,-21.02 12.22,-40.34 17.94,-58.28l0 2.84c-5.45,17.14 -11.11,35.51 -17.04,55.44l-0.9 0z"/>
       <path class="fil1" d="M597.79 1067.59c-13.82,8.43 -27.64,17.6 -41.13,27.3 -1.44,11.14 -2.4,22.76 -2.98,34.9l-0.9 0c0.59,-12.26 1.6,-23.94 3.05,-35.19l0 -0.01c0.02,-0.11 0.08,-0.21 0.18,-0.28 13.69,-9.86 27.74,-19.16 41.78,-27.71l0 1z"/>
      </g>
      <g>
       <path class="fil1" d="M514.4 1073.86c-0.03,0.15 0.03,0.31 0.16,0.41 0.18,0.14 0.45,0.11 0.59,-0.08 5.42,-6.55 10.54,-12.23 15.65,-17.39 0.03,-0.03 0.05,-0.05 0.07,-0.09 4.64,-8.35 9.96,-16.77 16.24,-25.76 14.91,-19.36 30.18,-38.22 43.15,-54.13 0.15,-0.19 0.12,-0.45 -0.06,-0.6 -0.18,-0.15 -0.45,-0.12 -0.6,0.05 -13.87,16.16 -29.79,35.01 -43.19,54.17 -11.76,15.27 -22.21,29.41 -31.95,43.23 -0.04,0.05 -0.06,0.11 -0.07,0.18zm15.75 -17.61l0 0c-3.09,3.12 -6.19,6.43 -9.35,10.02 5.64,-7.87 11.55,-15.89 17.83,-24.2 -3.07,4.81 -5.88,9.5 -8.49,14.18z"/>
      </g>
      <g>
       <path class="fil1" d="M530.07 1056.44c-0.02,0.16 0.04,0.33 0.19,0.43 0.19,0.13 0.44,0.08 0.58,-0.1 19.16,-25.15 34.17,-44.76 47.23,-61.7 0.08,-0.1 0.11,-0.24 0.08,-0.36 -0.29,-1.16 -0.27,-2.42 0.05,-3.68 3.49,-4.16 7.32,-8.68 12.06,-14.2 0.14,-0.16 0.14,-0.41 -0.02,-0.57 -0.15,-0.16 -0.4,-0.18 -0.57,-0.05 -7.12,5.54 -11.14,10.25 -12.25,14.41 -15.82,18.88 -33.8,41.43 -47.3,65.68 -0.02,0.05 -0.04,0.09 -0.05,0.14zm47.19 -61.73l0 0c-12.11,15.71 -25.89,33.7 -43.11,56.29 12.72,-21.52 28.66,-41.57 42.96,-58.67 -0.07,0.81 -0.02,1.61 0.15,2.38zm9.11 -14.65l0 0c-2.66,3.11 -5.03,5.91 -7.24,8.53 1.31,-2.58 3.7,-5.4 7.24,-8.53z"/>
      </g>
      <g>
       <path class="fil1" d="M530.77 1056.17c0.17,0.14 0.21,0.39 0.08,0.57 -15.88,23.42 -31.87,47.86 -47.79,73.04l-0.97 0c15.1,-23.89 30.24,-47.16 45.31,-69.47 -3.99,4.21 -8.02,8.78 -12.22,13.85 -13.25,18.88 -25.14,37.32 -35.92,55.62l-0.99 0c10.85,-18.46 22.84,-37.07 36.22,-56.13 5.43,-6.57 10.57,-12.28 15.7,-17.45 0.16,-0.16 0.41,-0.17 0.58,-0.03z"/>
      </g>
      <g>
       <path class="fil1" d="M519.86 1082.06c-0.03,0.19 0.07,0.38 0.25,0.46 0.2,0.09 0.43,0.02 0.54,-0.16 19.74,-30.79 39.06,-60.16 57.43,-87.32 0.13,-0.18 0.09,-0.45 -0.1,-0.59 -0.19,-0.13 -0.45,-0.1 -0.59,0.09 -13.06,16.94 -28.07,36.55 -47.23,61.7 -4.49,8.66 -7.93,17.31 -10.28,25.77 -0.01,0.01 -0.01,0.03 -0.01,0.04zm49.9 -76.2l0 0c-15.57,23.2 -31.75,47.87 -48.23,73.54 2.29,-7.5 5.42,-15.12 9.35,-22.7 15.2,-19.94 27.8,-36.41 38.88,-50.84z"/>
      </g>
      <g>
       <path class="fil1" d="M530.72 1056.14c0.2,0.11 0.28,0.36 0.16,0.56 -4.42,8.55 -7.85,17.14 -10.18,25.55 -0.01,0.05 -0.03,0.1 -0.06,0.13l-20.32 28.78c-4.28,6.06 -8.68,12.3 -13.16,18.63l-1.05 0c4.6,-6.5 9.12,-12.92 13.5,-19.12l20.28 -28.72c1.84,-6.6 4.34,-13.32 7.47,-20.04 -14.72,21.82 -29.51,44.56 -44.26,67.88l-1.06 0c16.03,-25.36 32.12,-49.95 48.1,-73.52 0.13,-0.19 0.38,-0.25 0.58,-0.13z"/>
      </g>
      <g>
       <path class="fil1" d="M538.32 1004.24c-0.03,0.19 0.07,0.38 0.25,0.46 0.2,0.09 0.44,0.02 0.55,-0.17 13.57,-22.99 26.3,-45.16 37.82,-65.91 0.1,-0.2 0.05,-0.44 -0.13,-0.56 -4.7,-3.24 -10.27,-6.81 -17.02,-10.92 -0.12,-0.08 -0.27,-0.08 -0.4,-0.03 -0.13,0.06 -0.22,0.17 -0.25,0.31 -5.02,25.57 -12.02,51.39 -20.8,76.75 -0.01,0.02 -0.02,0.05 -0.02,0.07zm37.68 -65.7l0 0c-10.86,19.55 -22.78,40.36 -35.48,61.91 8.09,-23.91 14.59,-48.2 19.35,-72.27 6.35,3.87 11.64,7.27 16.13,10.35z"/>
      </g>
      <g>
       <path class="fil1" d="M512.01 1059.78c-0.03,0.18 0.06,0.37 0.23,0.45 0.21,0.1 0.47,0.02 0.57,-0.2 9.52,-18.81 18.38,-37.5 26.33,-55.55 8.81,-25.43 15.82,-51.29 20.85,-76.9 0.01,-0.19 -0.1,-0.45 -0.33,-0.5 -0.23,-0.05 -0.45,0.09 -0.51,0.32 -10.61,43.03 -26.45,87.53 -47.11,132.26 -0.02,0.03 -0.03,0.07 -0.03,0.11zm43.15 -113.76l0 0c-4.52,19.44 -10.16,38.93 -16.81,58.15 -5.21,11.83 -10.82,23.95 -16.75,36.21 13.71,-31.82 24.95,-63.42 33.56,-94.37z"/>
      </g>
      <g>
       <path class="fil1" d="M539.16 1004.45c-13.44,40.61 -32.8,82.74 -57.46,125.34l-1.18 0c12.71,-23.4 23.31,-46.94 31.53,-70.13 9.52,-18.8 18.37,-37.48 26.31,-55.51 0.09,-0.21 0.34,-0.31 0.55,-0.23 0.21,0.08 0.32,0.32 0.25,0.54zm-26.32 55.54l0 0c-6.19,17.48 -13.73,35.19 -22.53,52.88 18.53,-33.81 33.61,-67.25 44.98,-99.76 -6.92,15.34 -14.46,31.08 -22.46,46.88z"/>
      </g>
      <g>
       <path class="fil1" d="M597.79 976.16c-0.42,0.58 -0.82,1.17 -1.24,1.75 -2.95,4.29 -6.2,8.61 -9.64,12.84 -0.15,0.18 -0.42,0.21 -0.6,0.07 -0.13,-0.1 -0.18,-0.26 -0.16,-0.41 0.01,-0.07 0.04,-0.14 0.09,-0.19 3.29,-4.27 6.52,-8.57 9.61,-12.8 0.69,-1 1.29,-2 1.95,-3l0 1.75z"/>
      </g>
      <g>
       <path class="fil1" d="M597.79 976.16c-3.5,4.83 -7.13,9.72 -10.88,14.58 -0.14,0.18 -0.41,0.22 -0.6,0.08 -0.13,-0.09 -0.19,-0.26 -0.16,-0.41 0.01,-0.07 0.04,-0.13 0.08,-0.19 3.98,-5.27 7.85,-10.48 11.57,-15.53l0 1.47z"/>
      </g>
      <g>
       <path class="fil1" d="M526.73 1072.01c-0.03,0.17 0.05,0.35 0.21,0.44 0.2,0.12 0.46,0.05 0.58,-0.15 25.09,-40.3 41.27,-82.12 48.09,-124.31 0.51,-3.16 0.98,-6.37 1.38,-9.52 0.02,-0.21 -0.1,-0.4 -0.29,-0.47 -0.2,-0.07 -0.41,0.02 -0.51,0.2 -11.52,20.75 -24.25,42.92 -37.82,65.89 -0.04,0.08 -0.06,0.18 -0.05,0.27 1.51,11.62 1.37,23.16 -0.43,34.29 -1.92,11.88 -5.66,23.05 -11.12,33.21 -0.02,0.04 -0.04,0.08 -0.05,0.13zm12.02 -33.21l0 0c1.81,-11.17 1.96,-22.74 0.45,-34.4 13.11,-22.21 25.44,-43.67 36.65,-63.81 -0.33,2.41 -0.69,4.86 -1.08,7.26 -6.38,39.43 -20.96,78.55 -43.36,116.39 3.44,-8.01 5.9,-16.54 7.34,-25.45z"/>
      </g>
      <g>
       <path class="fil1" d="M597.79 927.23c-6.61,3.75 -13.53,7.57 -20.82,11.46 -0.4,3.09 -0.85,6.22 -1.35,9.31 -6.05,37.39 -19.44,74.49 -39.88,110.5 24.15,-36.36 44.64,-69.88 62.05,-101.39l0 1.75c-19.4,34.97 -42.57,72.42 -70.28,113.46 -0.13,0.19 -0.39,0.25 -0.59,0.12 -0.15,-0.1 -0.22,-0.26 -0.19,-0.43 0.01,-0.05 0.03,-0.11 0.06,-0.16 25.03,-40.2 41.17,-81.92 47.97,-123.99 0.51,-3.16 0.97,-6.35 1.38,-9.5 0.02,-0.1 0.1,-0.26 0.22,-0.32 7.52,-4 14.64,-7.93 21.43,-11.79l0 0.99z"/>
      </g>
      <g>
       <path class="fil1" d="M539.17 1004.26c1.53,11.71 1.39,23.32 -0.43,34.54 -1.94,11.97 -5.71,23.23 -11.25,33.53 -13.46,17.77 -28.37,37.11 -44.28,57.46l-1.09 0c16.07,-20.55 31.09,-40.04 44.65,-57.91 5.46,-10.16 9.2,-21.34 11.12,-33.21 1.7,-10.53 1.92,-21.42 0.66,-32.41 -13.41,40.06 -32.52,81.57 -56.81,123.53l-1.04 0c24.75,-42.69 44.17,-84.92 57.63,-125.61 0.06,-0.19 0.25,-0.31 0.45,-0.29 0.2,0.02 0.36,0.17 0.39,0.37z"/>
      </g>
      <g>
       <path class="fil1" d="M597.79 958.88c-17.51,31.56 -38.09,65.15 -62.32,101.57 18.93,-25.01 35.6,-48.09 50.77,-70.24 4.24,-5.21 8.06,-10.47 11.55,-15.78l0 1.47c-3.32,4.98 -6.88,9.93 -10.86,14.81 -17.42,25.46 -36.86,52.16 -59.43,81.62 -0.14,0.18 -0.4,0.23 -0.59,0.09 -0.13,-0.1 -0.2,-0.26 -0.17,-0.41 0.01,-0.06 0.03,-0.12 0.07,-0.17 28.05,-41.54 51.46,-79.41 70.99,-114.75l0 1.79z"/>
      </g>
      <g>
       <path class="fil1" d="M527.41 1071.73c0.19,0.14 0.24,0.41 0.1,0.6 -13.08,18.39 -26.76,37.61 -40.92,57.46l-1.06 0c8.97,-12.58 17.76,-24.91 26.31,-36.93 -9.07,11.82 -18.66,24.19 -28.63,36.93l-1.09 0c16.06,-20.54 31.11,-40.05 44.69,-57.97 0.14,-0.18 0.41,-0.23 0.6,-0.09z"/>
      </g>
      <g>
       <path class="fil1" d="M527.4 1071.73c0.19,0.13 0.24,0.39 0.11,0.59 -12.39,18.23 -25.7,37.3 -40.08,57.47l-1.9 0c14.28,-20.03 28.09,-39.41 41.27,-57.96 0.14,-0.19 0.4,-0.23 0.6,-0.1z"/>
      </g>
      <g>
       <path class="fil1" d="M586.82 990.13c0.19,0.13 0.23,0.4 0.1,0.59 -17.42,25.46 -36.86,52.16 -59.39,81.57 -13.03,23.27 -31,41.45 -47.42,57.5l-1.23 0c16.55,-16.16 34.76,-34.47 47.93,-57.97 18.75,-24.48 35.34,-47.05 50.41,-68.59 -16.4,20.86 -33.75,41.63 -50.61,61.83 -17.58,21.05 -35.56,42.59 -52.93,64.73l-1.07 0c17.49,-22.33 35.61,-44.06 53.33,-65.28 20.23,-24.21 41.13,-49.25 60.28,-74.29 0.14,-0.18 0.4,-0.22 0.59,-0.09z"/>
      </g>
      <g>
       <path class="fil1" d="M527.38 1071.71c0.2,0.12 0.25,0.37 0.15,0.57 -4.99,8.9 -10.93,17.54 -18.16,26.4 -7.04,10.1 -14.35,20.47 -21.93,31.1l-1.06 0c5.85,-8.21 11.55,-16.26 17.07,-24.14 -7.61,8.64 -15.53,16.51 -23.34,24.14l-1.23 0c10.03,-9.79 20.27,-19.96 29.79,-31.62 6.23,-8.94 12.32,-17.8 18.12,-26.33 0.13,-0.2 0.38,-0.25 0.58,-0.13z"/>
      </g>
     </g>
    </g>
   </g>
   <path class="fil1" d="M483 1122.34c-3.76,-0.6 -6.31,-4.12 -5.71,-7.85 0.61,-3.74 4.14,-6.28 7.9,-5.68 3.76,0.6 6.31,4.12 5.71,7.85 -0.61,3.73 -4.14,6.28 -7.9,5.68z"/>
   <path class="fil1" d="M529.23 1060.63c-3.75,-0.6 -6.31,-4.12 -5.71,-7.86 0.61,-3.73 4.14,-6.27 7.9,-5.68 3.76,0.6 6.31,4.12 5.71,7.86 -0.6,3.73 -4.14,6.28 -7.9,5.68z"/>
   <path class="fil1" d="M589.09 1006.3c-3.75,-0.6 -6.31,-4.12 -5.71,-7.85 0.61,-3.74 4.14,-6.28 7.9,-5.68 3.76,0.6 6.31,4.12 5.71,7.86 -0.61,3.74 -4.14,6.28 -7.9,5.68z"/>
   <path class="fil1" d="M589.09 1006.3c-3.75,-0.6 -6.31,-4.12 -5.71,-7.85 0.61,-3.74 4.14,-6.28 7.9,-5.68 3.76,0.6 6.31,4.12 5.71,7.86 -0.61,3.74 -4.14,6.28 -7.9,5.68z"/>
   <path class="fil1" d="M355.63 176.6c-3.75,-0.61 -6.31,-4.11 -5.71,-7.86 0.6,-3.74 4.14,-6.27 7.9,-5.67 3.76,0.6 6.31,4.11 5.71,7.85 -0.6,3.75 -4.14,6.28 -7.89,5.68z"/>
   <path class="fil1" d="M589.16 755.71c-3.76,-0.6 -6.31,-4.12 -5.71,-7.86 0.6,-3.73 4.14,-6.28 7.9,-5.68 3.76,0.6 6.31,4.12 5.71,7.86 -0.61,3.74 -4.14,6.28 -7.9,5.68z"/>
   <path class="fil1" d="M566.56 726.51c-3.75,-0.61 -6.31,-4.12 -5.71,-7.86 0.6,-3.74 4.14,-6.27 7.9,-5.67 3.76,0.6 6.31,4.11 5.71,7.85 -0.61,3.74 -4.14,6.28 -7.9,5.68z"/>
   <path class="fil1" d="M505.9 240.52c-3.76,-0.6 -6.32,-4.11 -5.71,-7.85 0.61,-3.74 4.14,-6.27 7.9,-5.67 3.75,0.6 6.31,4.11 5.71,7.85 -0.61,3.73 -4.14,6.27 -7.89,5.67z"/>
   <path class="fil1" d="M529.23 1060.63c-3.75,-0.6 -6.31,-4.12 -5.71,-7.86 0.61,-3.73 4.14,-6.27 7.9,-5.68 3.76,0.6 6.31,4.12 5.71,7.86 -0.6,3.73 -4.14,6.28 -7.9,5.68z"/>
   <path class="fil1" d="M588.84 983.32c-3.75,-0.6 -6.31,-4.12 -5.71,-7.86 0.61,-3.74 4.14,-6.27 7.9,-5.68 3.76,0.61 6.31,4.12 5.71,7.86 -0.6,3.73 -4.14,6.28 -7.9,5.68z"/>
   <path class="fil1" d="M585.45 872.6c-3.76,-0.6 -6.31,-4.12 -5.71,-7.86 0.61,-3.74 4.14,-6.28 7.9,-5.68 3.76,0.6 6.31,4.12 5.71,7.86 -0.61,3.73 -4.14,6.28 -7.9,5.68z"/>
   <path class="fil1" d="M589.16 755.71c-3.76,-0.6 -6.31,-4.12 -5.71,-7.86 0.6,-3.73 4.14,-6.28 7.9,-5.68 3.76,0.6 6.31,4.12 5.71,7.86 -0.61,3.74 -4.14,6.28 -7.9,5.68z"/>
   <path class="fil1" d="M566.56 726.51c-3.75,-0.61 -6.31,-4.12 -5.71,-7.86 0.6,-3.74 4.14,-6.27 7.9,-5.67 3.76,0.6 6.31,4.11 5.71,7.85 -0.61,3.74 -4.14,6.28 -7.9,5.68z"/>
   <path class="fil1" d="M585.45 872.6c-3.76,-0.6 -6.31,-4.12 -5.71,-7.86 0.61,-3.74 4.14,-6.28 7.9,-5.68 3.76,0.6 6.31,4.12 5.71,7.86 -0.61,3.73 -4.14,6.28 -7.9,5.68z"/>
   <path class="fil1" d="M589.16 755.71c-3.76,-0.6 -6.31,-4.12 -5.71,-7.86 0.6,-3.73 4.14,-6.28 7.9,-5.68 3.76,0.6 6.31,4.12 5.71,7.86 -0.61,3.74 -4.14,6.28 -7.9,5.68z"/>
   <path class="fil1" d="M585.45 872.6c-3.76,-0.6 -6.31,-4.12 -5.71,-7.86 0.61,-3.74 4.14,-6.28 7.9,-5.68 3.76,0.6 6.31,4.12 5.71,7.86 -0.61,3.73 -4.14,6.28 -7.9,5.68z"/>
   <path class="fil1" d="M575.47 945.18c-3.76,-0.6 -6.31,-4.12 -5.71,-7.86 0.6,-3.74 4.14,-6.28 7.89,-5.68 3.76,0.6 6.31,4.11 5.71,7.85 -0.6,3.73 -4.14,6.28 -7.9,5.68z"/>
   <path class="fil1" d="M558.47 934.27c-3.76,-0.6 -6.31,-4.12 -5.71,-7.86 0.6,-3.73 4.14,-6.28 7.9,-5.68 3.76,0.6 6.31,4.12 5.71,7.86 -0.6,3.73 -4.14,6.28 -7.89,5.68z"/>
   <path class="fil1" d="M505.9 240.52c-3.76,-0.6 -6.32,-4.11 -5.71,-7.85 0.61,-3.74 4.14,-6.27 7.9,-5.67 3.75,0.6 6.31,4.11 5.71,7.85 -0.61,3.73 -4.14,6.27 -7.89,5.67z"/>
   <path class="fil1" d="M585.47 997.24c-3.76,-0.6 -6.31,-4.12 -5.71,-7.85 0.61,-3.74 4.14,-6.28 7.9,-5.68 3.76,0.61 6.31,4.13 5.71,7.86 -0.6,3.74 -4.14,6.28 -7.9,5.68z"/>
   <path class="fil1" d="M585.47 997.24c-3.76,-0.6 -6.31,-4.12 -5.71,-7.85 0.61,-3.74 4.14,-6.28 7.9,-5.68 3.76,0.61 6.31,4.13 5.71,7.86 -0.6,3.74 -4.14,6.28 -7.9,5.68z"/>
   <path class="fil1" d="M529.23 1060.63c-3.75,-0.6 -6.31,-4.12 -5.71,-7.86 0.61,-3.73 4.14,-6.27 7.9,-5.68 3.76,0.6 6.31,4.12 5.71,7.86 -0.6,3.73 -4.14,6.28 -7.9,5.68z"/>
   <path class="fil1" d="M585.47 997.24c-3.76,-0.6 -6.31,-4.12 -5.71,-7.85 0.61,-3.74 4.14,-6.28 7.9,-5.68 3.76,0.61 6.31,4.13 5.71,7.86 -0.6,3.74 -4.14,6.28 -7.9,5.68z"/>
   <path class="fil1" d="M529.23 1060.63c-3.75,-0.6 -6.31,-4.12 -5.71,-7.86 0.61,-3.73 4.14,-6.27 7.9,-5.68 3.76,0.6 6.31,4.12 5.71,7.86 -0.6,3.73 -4.14,6.28 -7.9,5.68z"/>
   <path class="fil1" d="M355.63 176.6c-3.75,-0.61 -6.31,-4.11 -5.71,-7.86 0.6,-3.74 4.14,-6.27 7.9,-5.67 3.76,0.6 6.31,4.11 5.71,7.85 -0.6,3.75 -4.14,6.28 -7.89,5.68z"/>
   <path class="fil1" d="M505.9 240.52c-3.76,-0.6 -6.32,-4.11 -5.71,-7.85 0.61,-3.74 4.14,-6.27 7.9,-5.67 3.75,0.6 6.31,4.11 5.71,7.85 -0.61,3.73 -4.14,6.27 -7.89,5.67z"/>
   <path class="fil1" d="M355.63 176.6c-3.75,-0.61 -6.31,-4.11 -5.71,-7.86 0.6,-3.74 4.14,-6.27 7.9,-5.67 3.76,0.6 6.31,4.11 5.71,7.85 -0.6,3.75 -4.14,6.28 -7.89,5.68z"/>
   <path class="fil1" d="M505.9 240.52c-3.76,-0.6 -6.32,-4.11 -5.71,-7.85 0.61,-3.74 4.14,-6.27 7.9,-5.67 3.75,0.6 6.31,4.11 5.71,7.85 -0.61,3.73 -4.14,6.27 -7.89,5.67z"/>
   <path class="fil1" d="M513.73 1080.69c-3.76,-0.6 -6.31,-4.12 -5.71,-7.85 0.61,-3.74 4.14,-6.28 7.9,-5.68 3.76,0.6 6.31,4.12 5.71,7.85 -0.61,3.74 -4.14,6.28 -7.9,5.68z"/>
   <path class="fil1" d="M529.23 1060.63c-3.75,-0.6 -6.31,-4.12 -5.71,-7.86 0.61,-3.73 4.14,-6.27 7.9,-5.68 3.76,0.6 6.31,4.12 5.71,7.86 -0.6,3.73 -4.14,6.28 -7.9,5.68z"/>
   <path class="fil1" d="M588.84 983.32c-3.75,-0.6 -6.31,-4.12 -5.71,-7.86 0.61,-3.74 4.14,-6.27 7.9,-5.68 3.76,0.61 6.31,4.12 5.71,7.86 -0.6,3.73 -4.14,6.28 -7.9,5.68z"/>
   <path class="fil1" d="M513.73 1080.69c-3.76,-0.6 -6.31,-4.12 -5.71,-7.85 0.61,-3.74 4.14,-6.28 7.9,-5.68 3.76,0.6 6.31,4.12 5.71,7.85 -0.61,3.74 -4.14,6.28 -7.9,5.68z"/>
   <path class="fil1" d="M483 1122.34c-3.76,-0.6 -6.31,-4.12 -5.71,-7.85 0.61,-3.74 4.14,-6.28 7.9,-5.68 3.76,0.6 6.31,4.12 5.71,7.85 -0.61,3.73 -4.14,6.28 -7.9,5.68z"/>
   <path class="fil1" d="M529.23 1060.63c-3.75,-0.6 -6.31,-4.12 -5.71,-7.86 0.61,-3.73 4.14,-6.27 7.9,-5.68 3.76,0.6 6.31,4.12 5.71,7.86 -0.6,3.73 -4.14,6.28 -7.9,5.68z"/>
   <path class="fil1" d="M555.5 1056.81c-3.76,-0.6 -6.31,-4.12 -5.71,-7.85 0.61,-3.74 4.14,-6.28 7.9,-5.68 3.76,0.6 6.31,4.12 5.71,7.86 -0.6,3.74 -4.14,6.28 -7.9,5.68z"/>
   <path class="fil1" d="M519.19 1088.9c-3.76,-0.6 -6.31,-4.11 -5.71,-7.85 0.6,-3.73 4.14,-6.27 7.9,-5.68 3.76,0.6 6.31,4.12 5.71,7.85 -0.6,3.74 -4.14,6.28 -7.9,5.68z"/>
   <path class="fil1" d="M576.63 1001.57c-3.75,-0.6 -6.31,-4.12 -5.71,-7.86 0.6,-3.73 4.14,-6.28 7.9,-5.68 3.76,0.6 6.31,4.12 5.71,7.86 -0.61,3.74 -4.14,6.28 -7.9,5.68z"/>
   <path class="fil1" d="M573.4 1011.13c-3.75,-0.6 -6.31,-4.12 -5.71,-7.85 0.61,-3.73 4.14,-6.28 7.9,-5.68 3.76,0.6 6.31,4.12 5.71,7.85 -0.61,3.74 -4.14,6.28 -7.9,5.68z"/>
   <path class="fil1" d="M576.63 1001.57c-3.75,-0.6 -6.31,-4.12 -5.71,-7.86 0.6,-3.73 4.14,-6.28 7.9,-5.68 3.76,0.6 6.31,4.12 5.71,7.86 -0.61,3.74 -4.14,6.28 -7.9,5.68z"/>
   <path class="fil1" d="M573.4 1011.13c-3.75,-0.6 -6.31,-4.12 -5.71,-7.85 0.61,-3.73 4.14,-6.28 7.9,-5.68 3.76,0.6 6.31,4.12 5.71,7.85 -0.61,3.74 -4.14,6.28 -7.9,5.68z"/>
   <path class="fil1" d="M589.09 1006.3c-3.75,-0.6 -6.31,-4.12 -5.71,-7.85 0.61,-3.74 4.14,-6.28 7.9,-5.68 3.76,0.6 6.31,4.12 5.71,7.86 -0.61,3.74 -4.14,6.28 -7.9,5.68z"/>
   <path class="fil1" d="M573.4 1011.13c-3.75,-0.6 -6.31,-4.12 -5.71,-7.85 0.61,-3.73 4.14,-6.28 7.9,-5.68 3.76,0.6 6.31,4.12 5.71,7.85 -0.61,3.74 -4.14,6.28 -7.9,5.68z"/>
   <path class="fil1" d="M555.5 1056.81c-3.76,-0.6 -6.31,-4.12 -5.71,-7.85 0.61,-3.74 4.14,-6.28 7.9,-5.68 3.76,0.6 6.31,4.12 5.71,7.86 -0.6,3.74 -4.14,6.28 -7.9,5.68z"/>
   <path class="fil1" d="M576.63 1001.57c-3.75,-0.6 -6.31,-4.12 -5.71,-7.86 0.6,-3.73 4.14,-6.28 7.9,-5.68 3.76,0.6 6.31,4.12 5.71,7.86 -0.61,3.74 -4.14,6.28 -7.9,5.68z"/>
   <path class="fil1" d="M573.4 1011.13c-3.75,-0.6 -6.31,-4.12 -5.71,-7.85 0.61,-3.73 4.14,-6.28 7.9,-5.68 3.76,0.6 6.31,4.12 5.71,7.85 -0.61,3.74 -4.14,6.28 -7.9,5.68z"/>
   <path class="fil1" d="M568.6 1037.88c-3.76,-0.61 -6.31,-4.12 -5.71,-7.86 0.61,-3.73 4.14,-6.27 7.9,-5.68 3.76,0.6 6.31,4.12 5.71,7.85 -0.6,3.74 -4.14,6.28 -7.9,5.68z"/>
   <path class="fil1" d="M589.09 1006.3c-3.75,-0.6 -6.31,-4.12 -5.71,-7.85 0.61,-3.74 4.14,-6.28 7.9,-5.68 3.76,0.6 6.31,4.12 5.71,7.86 -0.61,3.74 -4.14,6.28 -7.9,5.68z"/>
   <path class="fil1" d="M573.4 1011.13c-3.75,-0.6 -6.31,-4.12 -5.71,-7.85 0.61,-3.73 4.14,-6.28 7.9,-5.68 3.76,0.6 6.31,4.12 5.71,7.85 -0.61,3.74 -4.14,6.28 -7.9,5.68z"/>
   <path class="fil1" d="M568.6 1037.88c-3.76,-0.61 -6.31,-4.12 -5.71,-7.86 0.61,-3.73 4.14,-6.27 7.9,-5.68 3.76,0.6 6.31,4.12 5.71,7.85 -0.6,3.74 -4.14,6.28 -7.9,5.68z"/>
   <path class="fil1" d="M555.5 1056.81c-3.76,-0.6 -6.31,-4.12 -5.71,-7.85 0.61,-3.74 4.14,-6.28 7.9,-5.68 3.76,0.6 6.31,4.12 5.71,7.86 -0.6,3.74 -4.14,6.28 -7.9,5.68z"/>
   <path class="fil1" d="M344.74 209.35c-3.76,-0.6 -6.31,-4.12 -5.71,-7.86 0.61,-3.74 4.14,-6.27 7.89,-5.67 3.76,0.6 6.31,4.11 5.71,7.85 -0.6,3.73 -4.14,6.28 -7.89,5.68z"/>
   <path class="fil1" d="M496.85 758.35c-3.75,-0.6 -6.31,-4.12 -5.71,-7.85 0.6,-3.73 4.14,-6.28 7.9,-5.68 3.76,0.61 6.31,4.12 5.71,7.86 -0.6,3.74 -4.14,6.28 -7.9,5.68z"/>
   <path class="fil1" d="M494.93 1055.81c-3.76,-0.6 -6.31,-4.12 -5.71,-7.86 0.61,-3.73 4.14,-6.27 7.9,-5.67 3.76,0.6 6.31,4.12 5.71,7.85 -0.6,3.73 -4.14,6.28 -7.9,5.68z"/>
   <path class="fil1" d="M500.27 1041.01c-3.76,-0.6 -6.31,-4.12 -5.71,-7.86 0.6,-3.74 4.14,-6.28 7.9,-5.68 3.76,0.6 6.31,4.12 5.71,7.86 -0.6,3.73 -4.14,6.28 -7.9,5.68z"/>
   <path class="fil1" d="M495.08 731.46c-3.76,-0.6 -6.31,-4.12 -5.71,-7.86 0.61,-3.73 4.14,-6.28 7.89,-5.68 3.76,0.6 6.31,4.12 5.71,7.86 -0.61,3.73 -4.14,6.28 -7.9,5.68z"/>
   <path class="fil1" d="M355.63 176.6c-3.75,-0.61 -6.31,-4.11 -5.71,-7.86 0.6,-3.74 4.14,-6.27 7.9,-5.67 3.76,0.6 6.31,4.11 5.71,7.85 -0.6,3.75 -4.14,6.28 -7.89,5.68z"/>
   <path class="fil1" d="M576.63 1001.57c-3.75,-0.6 -6.31,-4.12 -5.71,-7.86 0.6,-3.73 4.14,-6.28 7.9,-5.68 3.76,0.6 6.31,4.12 5.71,7.86 -0.61,3.74 -4.14,6.28 -7.9,5.68z"/>
   <path class="fil1" d="M576.63 1001.57c-3.75,-0.6 -6.31,-4.12 -5.71,-7.86 0.6,-3.73 4.14,-6.28 7.9,-5.68 3.76,0.6 6.31,4.12 5.71,7.86 -0.61,3.74 -4.14,6.28 -7.9,5.68z"/>
   <path class="fil1" d="M588.84 983.32c-3.75,-0.6 -6.31,-4.12 -5.71,-7.86 0.61,-3.74 4.14,-6.27 7.9,-5.68 3.76,0.61 6.31,4.12 5.71,7.86 -0.6,3.73 -4.14,6.28 -7.9,5.68z"/>
   <path class="fil1" d="M589.09 1006.3c-3.75,-0.6 -6.31,-4.12 -5.71,-7.85 0.61,-3.74 4.14,-6.28 7.9,-5.68 3.76,0.6 6.31,4.12 5.71,7.86 -0.61,3.74 -4.14,6.28 -7.9,5.68z"/>
   <path class="fil1" d="M585.45 872.6c-3.76,-0.6 -6.31,-4.12 -5.71,-7.86 0.61,-3.74 4.14,-6.28 7.9,-5.68 3.76,0.6 6.31,4.12 5.71,7.86 -0.61,3.73 -4.14,6.28 -7.9,5.68z"/>
   <path class="fil1" d="M588.84 983.32c-3.75,-0.6 -6.31,-4.12 -5.71,-7.86 0.61,-3.74 4.14,-6.27 7.9,-5.68 3.76,0.61 6.31,4.12 5.71,7.86 -0.6,3.73 -4.14,6.28 -7.9,5.68z"/>
   <path class="fil1" d="M510.9 1122.01c3.73,0.6 6.27,4.07 5.71,7.78l-13.59 0c-0.1,-0.68 -0.14,-1.38 -0.02,-2.1 0.6,-3.73 4.14,-6.27 7.9,-5.68z"/>
   <path class="fil1" d="M555.5 1056.81c-3.76,-0.6 -6.31,-4.12 -5.71,-7.85 0.61,-3.74 4.14,-6.28 7.9,-5.68 3.76,0.6 6.31,4.12 5.71,7.86 -0.6,3.74 -4.14,6.28 -7.9,5.68z"/>
   <path class="fil1" d="M519.19 1088.9c-3.76,-0.6 -6.31,-4.11 -5.71,-7.85 0.6,-3.73 4.14,-6.27 7.9,-5.68 3.76,0.6 6.31,4.12 5.71,7.85 -0.6,3.74 -4.14,6.28 -7.9,5.68z"/>
   <path class="fil1" d="M510.9 1122.01c3.73,0.6 6.27,4.07 5.71,7.78l-13.59 0c-0.1,-0.68 -0.14,-1.38 -0.02,-2.1 0.6,-3.73 4.14,-6.27 7.9,-5.68z"/>
   <path class="fil1" d="M597.79 1072.11c-3.07,-1.09 -5.02,-4.22 -4.49,-7.53 0.41,-2.55 2.21,-4.51 4.49,-5.33l0 12.86z"/>
   <path class="fil1" d="M589.09 1006.3c-3.75,-0.6 -6.31,-4.12 -5.71,-7.85 0.61,-3.74 4.14,-6.28 7.9,-5.68 3.76,0.6 6.31,4.12 5.71,7.86 -0.61,3.74 -4.14,6.28 -7.9,5.68z"/>
   <path class="fil1" d="M522.02 322.1c-3.76,-0.6 -6.31,-4.12 -5.7,-7.86 0.6,-3.74 4.14,-6.27 7.89,-5.68 3.76,0.6 6.31,4.11 5.71,7.85 -0.6,3.73 -4.14,6.28 -7.9,5.68z"/>
   <path class="fil1" d="M505.9 240.52c-3.76,-0.6 -6.32,-4.11 -5.71,-7.85 0.61,-3.74 4.14,-6.27 7.9,-5.67 3.75,0.6 6.31,4.11 5.71,7.85 -0.61,3.73 -4.14,6.27 -7.89,5.67z"/>
   <path class="fil1" d="M522.02 322.1c-3.76,-0.6 -6.31,-4.12 -5.7,-7.86 0.6,-3.74 4.14,-6.27 7.89,-5.68 3.76,0.6 6.31,4.11 5.71,7.85 -0.6,3.73 -4.14,6.28 -7.9,5.68z"/>
   <path class="fil1" d="M597.79 1072.11c-3.07,-1.09 -5.02,-4.22 -4.49,-7.53 0.41,-2.55 2.21,-4.51 4.49,-5.33l0 12.86z"/>
   <path class="fil1" d="M597.79 1072.11c-3.07,-1.09 -5.02,-4.22 -4.49,-7.53 0.41,-2.55 2.21,-4.51 4.49,-5.33l0 12.86z"/>
   <path class="fil1" d="M483 1122.34c-3.76,-0.6 -6.31,-4.12 -5.71,-7.85 0.61,-3.74 4.14,-6.28 7.9,-5.68 3.76,0.6 6.31,4.12 5.71,7.85 -0.61,3.73 -4.14,6.28 -7.9,5.68z"/>
   <path class="fil1" d="M483 1122.34c-3.76,-0.6 -6.31,-4.12 -5.71,-7.85 0.61,-3.74 4.14,-6.28 7.9,-5.68 3.76,0.6 6.31,4.12 5.71,7.85 -0.61,3.73 -4.14,6.28 -7.9,5.68z"/>
   <path class="fil1" d="M513.73 1080.69c-3.76,-0.6 -6.31,-4.12 -5.71,-7.85 0.61,-3.74 4.14,-6.28 7.9,-5.68 3.76,0.6 6.31,4.12 5.71,7.85 -0.61,3.74 -4.14,6.28 -7.9,5.68z"/>
   <path class="fil1" d="M553.12 811.06c-3.76,-0.6 -6.31,-4.12 -5.71,-7.86 0.6,-3.74 4.14,-6.27 7.9,-5.68 3.76,0.6 6.31,4.12 5.71,7.86 -0.6,3.74 -4.14,6.28 -7.9,5.68z"/>
   <path class="fil1" d="M566.56 726.51c-3.75,-0.61 -6.31,-4.12 -5.71,-7.86 0.6,-3.74 4.14,-6.27 7.9,-5.67 3.76,0.6 6.31,4.11 5.71,7.85 -0.61,3.74 -4.14,6.28 -7.9,5.68z"/>
   <path class="fil1" d="M355.63 176.6c-3.75,-0.61 -6.31,-4.11 -5.71,-7.86 0.6,-3.74 4.14,-6.27 7.9,-5.67 3.76,0.6 6.31,4.11 5.71,7.85 -0.6,3.75 -4.14,6.28 -7.89,5.68z"/>
   <path class="fil1" d="M553.12 811.06c-3.76,-0.6 -6.31,-4.12 -5.71,-7.86 0.6,-3.74 4.14,-6.27 7.9,-5.68 3.76,0.6 6.31,4.12 5.71,7.86 -0.6,3.74 -4.14,6.28 -7.9,5.68z"/>
   <path class="fil1" d="M585.45 872.6c-3.76,-0.6 -6.31,-4.12 -5.71,-7.86 0.61,-3.74 4.14,-6.28 7.9,-5.68 3.76,0.6 6.31,4.12 5.71,7.86 -0.61,3.73 -4.14,6.28 -7.9,5.68z"/>
   <path class="fil1" d="M566.56 726.51c-3.75,-0.61 -6.31,-4.12 -5.71,-7.86 0.6,-3.74 4.14,-6.27 7.9,-5.67 3.76,0.6 6.31,4.11 5.71,7.85 -0.61,3.74 -4.14,6.28 -7.9,5.68z"/>
   <path class="fil1" d="M553.12 811.06c-3.76,-0.6 -6.31,-4.12 -5.71,-7.86 0.6,-3.74 4.14,-6.27 7.9,-5.68 3.76,0.6 6.31,4.12 5.71,7.86 -0.6,3.74 -4.14,6.28 -7.9,5.68z"/>
   <path class="fil1" d="M558.47 934.27c-3.76,-0.6 -6.31,-4.12 -5.71,-7.86 0.6,-3.73 4.14,-6.28 7.9,-5.68 3.76,0.6 6.31,4.12 5.71,7.86 -0.6,3.73 -4.14,6.28 -7.89,5.68z"/>
   <path class="fil1" d="M585.45 872.6c-3.76,-0.6 -6.31,-4.12 -5.71,-7.86 0.61,-3.74 4.14,-6.28 7.9,-5.68 3.76,0.6 6.31,4.12 5.71,7.86 -0.61,3.73 -4.14,6.28 -7.9,5.68z"/>
   <path class="fil1" d="M553.12 811.06c-3.76,-0.6 -6.31,-4.12 -5.71,-7.86 0.6,-3.74 4.14,-6.27 7.9,-5.68 3.76,0.6 6.31,4.12 5.71,7.86 -0.6,3.74 -4.14,6.28 -7.9,5.68z"/>
   <path class="fil1" d="M511.34 1066.62c-3.75,-0.6 -6.31,-4.12 -5.71,-7.86 0.6,-3.73 4.14,-6.27 7.9,-5.68 3.76,0.6 6.31,4.12 5.71,7.85 -0.61,3.74 -4.14,6.28 -7.9,5.68z"/>
   <path class="fil1" d="M558.47 934.27c-3.76,-0.6 -6.31,-4.12 -5.71,-7.86 0.6,-3.73 4.14,-6.28 7.9,-5.68 3.76,0.6 6.31,4.12 5.71,7.86 -0.6,3.73 -4.14,6.28 -7.89,5.68z"/>
   <path class="fil1" d="M478.78 667.64c-3.76,-0.61 -6.31,-4.12 -5.71,-7.85 0.6,-3.74 4.14,-6.28 7.9,-5.68 3.76,0.6 6.31,4.12 5.71,7.86 -0.61,3.74 -4.14,6.27 -7.9,5.68z"/>
   <path class="fil1" d="M517.04 944.39c-3.76,-0.6 -6.31,-4.11 -5.71,-7.85 0.61,-3.73 4.14,-6.28 7.9,-5.68 3.76,0.6 6.31,4.12 5.71,7.86 -0.6,3.73 -4.14,6.27 -7.89,5.67z"/>
   <path class="fil1" d="M525.77 1003.19c-3.75,-0.6 -6.31,-4.12 -5.71,-7.85 0.6,-3.74 4.14,-6.28 7.9,-5.68 3.76,0.6 6.31,4.11 5.71,7.85 -0.61,3.73 -4.14,6.28 -7.9,5.68z"/>
   <path class="fil1" d="M553.12 811.06c-3.76,-0.6 -6.31,-4.12 -5.71,-7.86 0.6,-3.74 4.14,-6.27 7.9,-5.68 3.76,0.6 6.31,4.12 5.71,7.86 -0.6,3.74 -4.14,6.28 -7.9,5.68z"/>
   <path class="fil1" d="M355.63 176.6c-3.75,-0.61 -6.31,-4.11 -5.71,-7.86 0.6,-3.74 4.14,-6.27 7.9,-5.67 3.76,0.6 6.31,4.11 5.71,7.85 -0.6,3.75 -4.14,6.28 -7.89,5.68z"/>
   <path class="fil1" d="M478.78 667.64c-3.76,-0.61 -6.31,-4.12 -5.71,-7.85 0.6,-3.74 4.14,-6.28 7.9,-5.68 3.76,0.6 6.31,4.12 5.71,7.86 -0.61,3.74 -4.14,6.27 -7.9,5.68z"/>
   <path class="fil1" d="M517.04 944.39c-3.76,-0.6 -6.31,-4.11 -5.71,-7.85 0.61,-3.73 4.14,-6.28 7.9,-5.68 3.76,0.6 6.31,4.12 5.71,7.86 -0.6,3.73 -4.14,6.27 -7.89,5.67z"/>
   <path class="fil1" d="M500.27 1041.01c-3.76,-0.6 -6.31,-4.12 -5.71,-7.86 0.6,-3.74 4.14,-6.28 7.9,-5.68 3.76,0.6 6.31,4.12 5.71,7.86 -0.6,3.73 -4.14,6.28 -7.9,5.68z"/>
   <path class="fil1" d="M495.08 731.46c-3.76,-0.6 -6.31,-4.12 -5.71,-7.86 0.61,-3.73 4.14,-6.28 7.89,-5.68 3.76,0.6 6.31,4.12 5.71,7.86 -0.61,3.73 -4.14,6.28 -7.9,5.68z"/>
   <path class="fil1" d="M355.63 176.6c-3.75,-0.61 -6.31,-4.11 -5.71,-7.86 0.6,-3.74 4.14,-6.27 7.9,-5.67 3.76,0.6 6.31,4.11 5.71,7.85 -0.6,3.75 -4.14,6.28 -7.89,5.68z"/>
   <path class="fil1" d="M525.77 1003.19c-3.75,-0.6 -6.31,-4.12 -5.71,-7.85 0.6,-3.74 4.14,-6.28 7.9,-5.68 3.76,0.6 6.31,4.11 5.71,7.85 -0.61,3.73 -4.14,6.28 -7.9,5.68z"/>
   <path class="fil1" d="M511.34 1066.62c-3.75,-0.6 -6.31,-4.12 -5.71,-7.86 0.6,-3.73 4.14,-6.27 7.9,-5.68 3.76,0.6 6.31,4.12 5.71,7.85 -0.61,3.74 -4.14,6.28 -7.9,5.68z"/>
   <path class="fil1" d="M553.12 811.06c-3.76,-0.6 -6.31,-4.12 -5.71,-7.86 0.6,-3.74 4.14,-6.27 7.9,-5.68 3.76,0.6 6.31,4.12 5.71,7.86 -0.6,3.74 -4.14,6.28 -7.9,5.68z"/>
   <path class="fil1" d="M511.34 1066.62c-3.75,-0.6 -6.31,-4.12 -5.71,-7.86 0.6,-3.73 4.14,-6.27 7.9,-5.68 3.76,0.6 6.31,4.12 5.71,7.85 -0.61,3.74 -4.14,6.28 -7.9,5.68z"/>
   <path class="fil1" d="M513.73 1080.69c-3.76,-0.6 -6.31,-4.12 -5.71,-7.85 0.61,-3.74 4.14,-6.28 7.9,-5.68 3.76,0.6 6.31,4.12 5.71,7.85 -0.61,3.74 -4.14,6.28 -7.9,5.68z"/>
   <path class="fil1" d="M510.9 1122.01c3.73,0.6 6.27,4.07 5.71,7.78l-13.59 0c-0.1,-0.68 -0.14,-1.38 -0.02,-2.1 0.6,-3.73 4.14,-6.27 7.9,-5.68z"/>
   <path class="fil1" d="M519.19 1088.9c-3.76,-0.6 -6.31,-4.11 -5.71,-7.85 0.6,-3.73 4.14,-6.27 7.9,-5.68 3.76,0.6 6.31,4.12 5.71,7.85 -0.6,3.74 -4.14,6.28 -7.9,5.68z"/>
   <path class="fil1" d="M571.79 593.48c-3.76,-0.6 -6.31,-4.12 -5.71,-7.86 0.6,-3.74 4.14,-6.28 7.9,-5.67 3.76,0.6 6.31,4.11 5.71,7.85 -0.6,3.73 -4.14,6.28 -7.9,5.68z"/>
   <path class="fil1" d="M457.89 408.67c-3.75,-0.6 -6.31,-4.12 -5.7,-7.86 0.6,-3.73 4.14,-6.27 7.89,-5.67 3.76,0.6 6.31,4.12 5.71,7.85 -0.6,3.73 -4.14,6.28 -7.9,5.68z"/>
   <path class="fil1" d="M355.63 176.6c-3.75,-0.61 -6.31,-4.11 -5.71,-7.86 0.6,-3.74 4.14,-6.27 7.9,-5.67 3.76,0.6 6.31,4.11 5.71,7.85 -0.6,3.75 -4.14,6.28 -7.89,5.68z"/>
   <path class="fil1" d="M505.9 240.52c-3.76,-0.6 -6.32,-4.11 -5.71,-7.85 0.61,-3.74 4.14,-6.27 7.9,-5.67 3.75,0.6 6.31,4.11 5.71,7.85 -0.61,3.73 -4.14,6.27 -7.89,5.67z"/>
   <path class="fil1" d="M571.79 593.48c-3.76,-0.6 -6.31,-4.12 -5.71,-7.86 0.6,-3.74 4.14,-6.28 7.9,-5.67 3.76,0.6 6.31,4.11 5.71,7.85 -0.6,3.73 -4.14,6.28 -7.9,5.68z"/>
   <path class="fil1" d="M522.02 322.1c-3.76,-0.6 -6.31,-4.12 -5.7,-7.86 0.6,-3.74 4.14,-6.27 7.89,-5.68 3.76,0.6 6.31,4.11 5.71,7.85 -0.6,3.73 -4.14,6.28 -7.9,5.68z"/>
   <path class="fil1" d="M505.9 240.52c-3.76,-0.6 -6.32,-4.11 -5.71,-7.85 0.61,-3.74 4.14,-6.27 7.9,-5.67 3.75,0.6 6.31,4.11 5.71,7.85 -0.61,3.73 -4.14,6.27 -7.89,5.67z"/>
   <path class="fil1" d="M457.89 408.67c-3.75,-0.6 -6.31,-4.12 -5.7,-7.86 0.6,-3.73 4.14,-6.27 7.89,-5.67 3.76,0.6 6.31,4.12 5.71,7.85 -0.6,3.73 -4.14,6.28 -7.9,5.68z"/>
   <path class="fil1" d="M571.79 593.48c-3.76,-0.6 -6.31,-4.12 -5.71,-7.86 0.6,-3.74 4.14,-6.28 7.9,-5.67 3.76,0.6 6.31,4.11 5.71,7.85 -0.6,3.73 -4.14,6.28 -7.9,5.68z"/>
   <path class="fil1" d="M566.56 726.51c-3.75,-0.61 -6.31,-4.12 -5.71,-7.86 0.6,-3.74 4.14,-6.27 7.9,-5.67 3.76,0.6 6.31,4.11 5.71,7.85 -0.61,3.74 -4.14,6.28 -7.9,5.68z"/>
   <path class="fil1" d="M355.63 176.6c-3.75,-0.61 -6.31,-4.11 -5.71,-7.86 0.6,-3.74 4.14,-6.27 7.9,-5.67 3.76,0.6 6.31,4.11 5.71,7.85 -0.6,3.75 -4.14,6.28 -7.89,5.68z"/>
   <path class="fil1" d="M571.79 593.48c-3.76,-0.6 -6.31,-4.12 -5.71,-7.86 0.6,-3.74 4.14,-6.28 7.9,-5.67 3.76,0.6 6.31,4.11 5.71,7.85 -0.6,3.73 -4.14,6.28 -7.9,5.68z"/>
   <path class="fil1" d="M522.02 322.1c-3.76,-0.6 -6.31,-4.12 -5.7,-7.86 0.6,-3.74 4.14,-6.27 7.89,-5.68 3.76,0.6 6.31,4.11 5.71,7.85 -0.6,3.73 -4.14,6.28 -7.9,5.68z"/>
   <path class="fil1" d="M571.79 593.48c-3.76,-0.6 -6.31,-4.12 -5.71,-7.86 0.6,-3.74 4.14,-6.28 7.9,-5.67 3.76,0.6 6.31,4.11 5.71,7.85 -0.6,3.73 -4.14,6.28 -7.9,5.68z"/>
   <path class="fil1" d="M571.79 593.48c-3.76,-0.6 -6.31,-4.12 -5.71,-7.86 0.6,-3.74 4.14,-6.28 7.9,-5.67 3.76,0.6 6.31,4.11 5.71,7.85 -0.6,3.73 -4.14,6.28 -7.9,5.68z"/>
   <path class="fil1" d="M566.56 726.51c-3.75,-0.61 -6.31,-4.12 -5.71,-7.86 0.6,-3.74 4.14,-6.27 7.9,-5.67 3.76,0.6 6.31,4.11 5.71,7.85 -0.61,3.74 -4.14,6.28 -7.9,5.68z"/>
   <path class="fil1" d="M571.79 593.48c-3.76,-0.6 -6.31,-4.12 -5.71,-7.86 0.6,-3.74 4.14,-6.28 7.9,-5.67 3.76,0.6 6.31,4.11 5.71,7.85 -0.6,3.73 -4.14,6.28 -7.9,5.68z"/>
   <path class="fil1" d="M571.79 593.48c-3.76,-0.6 -6.31,-4.12 -5.71,-7.86 0.6,-3.74 4.14,-6.28 7.9,-5.67 3.76,0.6 6.31,4.11 5.71,7.85 -0.6,3.73 -4.14,6.28 -7.9,5.68z"/>
   <path class="fil1" d="M571.79 593.48c-3.76,-0.6 -6.31,-4.12 -5.71,-7.86 0.6,-3.74 4.14,-6.28 7.9,-5.67 3.76,0.6 6.31,4.11 5.71,7.85 -0.6,3.73 -4.14,6.28 -7.9,5.68z"/>
   <path class="fil1" d="M510.9 1122.01c3.73,0.6 6.27,4.07 5.71,7.78l-13.59 0c-0.1,-0.68 -0.14,-1.38 -0.02,-2.1 0.6,-3.73 4.14,-6.27 7.9,-5.68z"/>
   <path class="fil1" d="M510.9 1122.01c3.73,0.6 6.27,4.07 5.71,7.78l-13.59 0c-0.1,-0.68 -0.14,-1.38 -0.02,-2.1 0.6,-3.73 4.14,-6.27 7.9,-5.68z"/>
   <path class="fil1" d="M585.45 872.6c-3.76,-0.6 -6.31,-4.12 -5.71,-7.86 0.61,-3.74 4.14,-6.28 7.9,-5.68 3.76,0.6 6.31,4.12 5.71,7.86 -0.61,3.73 -4.14,6.28 -7.9,5.68z"/>
   <path class="fil1" d="M575.47 945.18c-3.76,-0.6 -6.31,-4.12 -5.71,-7.86 0.6,-3.74 4.14,-6.28 7.89,-5.68 3.76,0.6 6.31,4.11 5.71,7.85 -0.6,3.73 -4.14,6.28 -7.9,5.68z"/>
   <path class="fil1" d="M585.45 872.6c-3.76,-0.6 -6.31,-4.12 -5.71,-7.86 0.61,-3.74 4.14,-6.28 7.9,-5.68 3.76,0.6 6.31,4.12 5.71,7.86 -0.61,3.73 -4.14,6.28 -7.9,5.68z"/>
   <path class="fil1" d="M555.17 1101.42c-3.76,-0.6 -6.31,-4.12 -5.71,-7.85 0.6,-3.74 4.14,-6.28 7.9,-5.68 3.75,0.6 6.31,4.12 5.71,7.86 -0.61,3.74 -4.14,6.28 -7.9,5.68z"/>
   <path class="fil1" d="M568.6 1037.88c-3.76,-0.61 -6.31,-4.12 -5.71,-7.86 0.61,-3.73 4.14,-6.27 7.9,-5.68 3.76,0.6 6.31,4.12 5.71,7.85 -0.6,3.74 -4.14,6.28 -7.9,5.68z"/>
   <path class="fil1" d="M589.09 1006.3c-3.75,-0.6 -6.31,-4.12 -5.71,-7.85 0.61,-3.74 4.14,-6.28 7.9,-5.68 3.76,0.6 6.31,4.12 5.71,7.86 -0.61,3.74 -4.14,6.28 -7.9,5.68z"/>
   <path class="fil1" d="M555.17 1101.42c-3.76,-0.6 -6.31,-4.12 -5.71,-7.85 0.6,-3.74 4.14,-6.28 7.9,-5.68 3.75,0.6 6.31,4.12 5.71,7.86 -0.61,3.74 -4.14,6.28 -7.9,5.68z"/>
   <path class="fil1" d="M597.79 1072.11c-3.07,-1.09 -5.02,-4.22 -4.49,-7.53 0.41,-2.55 2.21,-4.51 4.49,-5.33l0 12.86z"/>
   <path class="fil1" d="M589.09 1006.3c-3.75,-0.6 -6.31,-4.12 -5.71,-7.85 0.61,-3.74 4.14,-6.28 7.9,-5.68 3.76,0.6 6.31,4.12 5.71,7.86 -0.61,3.74 -4.14,6.28 -7.9,5.68z"/>
   <path class="fil1" d="M555.17 1101.42c-3.76,-0.6 -6.31,-4.12 -5.71,-7.85 0.6,-3.74 4.14,-6.28 7.9,-5.68 3.75,0.6 6.31,4.12 5.71,7.86 -0.61,3.74 -4.14,6.28 -7.9,5.68z"/>
   <path class="fil1" d="M568.6 1037.88c-3.76,-0.61 -6.31,-4.12 -5.71,-7.86 0.61,-3.73 4.14,-6.27 7.9,-5.68 3.76,0.6 6.31,4.12 5.71,7.85 -0.6,3.74 -4.14,6.28 -7.9,5.68z"/>
   <path class="fil1" d="M555.5 1056.81c-3.76,-0.6 -6.31,-4.12 -5.71,-7.85 0.61,-3.74 4.14,-6.28 7.9,-5.68 3.76,0.6 6.31,4.12 5.71,7.86 -0.6,3.74 -4.14,6.28 -7.9,5.68z"/>
   <path class="fil1" d="M555.17 1101.42c-3.76,-0.6 -6.31,-4.12 -5.71,-7.85 0.6,-3.74 4.14,-6.28 7.9,-5.68 3.75,0.6 6.31,4.12 5.71,7.86 -0.61,3.74 -4.14,6.28 -7.9,5.68z"/>
   <path class="fil1" d="M510.9 1122.01c3.73,0.6 6.27,4.07 5.71,7.78l-13.59 0c-0.1,-0.68 -0.14,-1.38 -0.02,-2.1 0.6,-3.73 4.14,-6.27 7.9,-5.68z"/>
   <path class="fil1" d="M555.5 1056.81c-3.76,-0.6 -6.31,-4.12 -5.71,-7.85 0.61,-3.74 4.14,-6.28 7.9,-5.68 3.76,0.6 6.31,4.12 5.71,7.86 -0.6,3.74 -4.14,6.28 -7.9,5.68z"/>
   <path class="fil1" d="M555.17 1101.42c-3.76,-0.6 -6.31,-4.12 -5.71,-7.85 0.6,-3.74 4.14,-6.28 7.9,-5.68 3.75,0.6 6.31,4.12 5.71,7.86 -0.61,3.74 -4.14,6.28 -7.9,5.68z"/>
   <path class="fil1" d="M510.9 1122.01c3.73,0.6 6.27,4.07 5.71,7.78l-13.59 0c-0.1,-0.68 -0.14,-1.38 -0.02,-2.1 0.6,-3.73 4.14,-6.27 7.9,-5.68z"/>
   <path class="fil1" d="M555.17 1101.42c-3.76,-0.6 -6.31,-4.12 -5.71,-7.85 0.6,-3.74 4.14,-6.28 7.9,-5.68 3.75,0.6 6.31,4.12 5.71,7.86 -0.61,3.74 -4.14,6.28 -7.9,5.68z"/>
   <path class="fil1" d="M597.79 1072.11c-3.07,-1.09 -5.02,-4.22 -4.49,-7.53 0.41,-2.55 2.21,-4.51 4.49,-5.33l0 12.86z"/>
   <path class="fil1" d="M529.4 1063.27c-3.76,-0.61 -6.31,-4.12 -5.71,-7.85 0.6,-3.74 4.14,-6.28 7.9,-5.68 3.76,0.6 6.31,4.11 5.71,7.85 -0.6,3.73 -4.14,6.28 -7.89,5.68z"/>
   <path class="fil1" d="M513.73 1080.69c-3.76,-0.6 -6.31,-4.12 -5.71,-7.85 0.61,-3.74 4.14,-6.28 7.9,-5.68 3.76,0.6 6.31,4.12 5.71,7.85 -0.61,3.74 -4.14,6.28 -7.9,5.68z"/>
   <path class="fil1" d="M588.84 983.32c-3.75,-0.6 -6.31,-4.12 -5.71,-7.86 0.61,-3.74 4.14,-6.27 7.9,-5.68 3.76,0.61 6.31,4.12 5.71,7.86 -0.6,3.73 -4.14,6.28 -7.9,5.68z"/>
   <path class="fil1" d="M529.4 1063.27c-3.76,-0.61 -6.31,-4.12 -5.71,-7.85 0.6,-3.74 4.14,-6.28 7.9,-5.68 3.76,0.6 6.31,4.11 5.71,7.85 -0.6,3.73 -4.14,6.28 -7.89,5.68z"/>
   <path class="fil1" d="M576.63 1001.57c-3.75,-0.6 -6.31,-4.12 -5.71,-7.86 0.6,-3.73 4.14,-6.28 7.9,-5.68 3.76,0.6 6.31,4.12 5.71,7.86 -0.61,3.74 -4.14,6.28 -7.9,5.68z"/>
   <path class="fil1" d="M588.84 983.32c-3.75,-0.6 -6.31,-4.12 -5.71,-7.86 0.61,-3.74 4.14,-6.27 7.9,-5.68 3.76,0.61 6.31,4.12 5.71,7.86 -0.6,3.73 -4.14,6.28 -7.9,5.68z"/>
   <path class="fil1" d="M529.4 1063.27c-3.76,-0.61 -6.31,-4.12 -5.71,-7.85 0.6,-3.74 4.14,-6.28 7.9,-5.68 3.76,0.6 6.31,4.11 5.71,7.85 -0.6,3.73 -4.14,6.28 -7.89,5.68z"/>
   <path class="fil1" d="M513.73 1080.69c-3.76,-0.6 -6.31,-4.12 -5.71,-7.85 0.61,-3.74 4.14,-6.28 7.9,-5.68 3.76,0.6 6.31,4.12 5.71,7.85 -0.61,3.74 -4.14,6.28 -7.9,5.68z"/>
   <path class="fil1" d="M529.4 1063.27c-3.76,-0.61 -6.31,-4.12 -5.71,-7.85 0.6,-3.74 4.14,-6.28 7.9,-5.68 3.76,0.6 6.31,4.11 5.71,7.85 -0.6,3.73 -4.14,6.28 -7.89,5.68z"/>
   <path class="fil1" d="M519.19 1088.9c-3.76,-0.6 -6.31,-4.11 -5.71,-7.85 0.6,-3.73 4.14,-6.27 7.9,-5.68 3.76,0.6 6.31,4.12 5.71,7.85 -0.6,3.74 -4.14,6.28 -7.9,5.68z"/>
   <path class="fil1" d="M576.63 1001.57c-3.75,-0.6 -6.31,-4.12 -5.71,-7.86 0.6,-3.73 4.14,-6.28 7.9,-5.68 3.76,0.6 6.31,4.12 5.71,7.86 -0.61,3.74 -4.14,6.28 -7.9,5.68z"/>
   <path class="fil1" d="M529.4 1063.27c-3.76,-0.61 -6.31,-4.12 -5.71,-7.85 0.6,-3.74 4.14,-6.28 7.9,-5.68 3.76,0.6 6.31,4.11 5.71,7.85 -0.6,3.73 -4.14,6.28 -7.89,5.68z"/>
   <path class="fil1" d="M519.19 1088.9c-3.76,-0.6 -6.31,-4.11 -5.71,-7.85 0.6,-3.73 4.14,-6.27 7.9,-5.68 3.76,0.6 6.31,4.12 5.71,7.85 -0.6,3.74 -4.14,6.28 -7.9,5.68z"/>
   <path class="fil1" d="M537.65 1011.08c-3.76,-0.6 -6.31,-4.12 -5.71,-7.85 0.6,-3.74 4.14,-6.28 7.9,-5.68 3.76,0.6 6.31,4.11 5.71,7.85 -0.61,3.74 -4.14,6.28 -7.9,5.68z"/>
   <path class="fil1" d="M575.47 945.18c-3.76,-0.6 -6.31,-4.12 -5.71,-7.86 0.6,-3.74 4.14,-6.28 7.89,-5.68 3.76,0.6 6.31,4.11 5.71,7.85 -0.6,3.73 -4.14,6.28 -7.9,5.68z"/>
   <path class="fil1" d="M558.47 934.27c-3.76,-0.6 -6.31,-4.12 -5.71,-7.86 0.6,-3.73 4.14,-6.28 7.9,-5.68 3.76,0.6 6.31,4.12 5.71,7.86 -0.6,3.73 -4.14,6.28 -7.89,5.68z"/>
   <path class="fil1" d="M537.65 1011.08c-3.76,-0.6 -6.31,-4.12 -5.71,-7.85 0.6,-3.74 4.14,-6.28 7.9,-5.68 3.76,0.6 6.31,4.11 5.71,7.85 -0.61,3.74 -4.14,6.28 -7.9,5.68z"/>
   <path class="fil1" d="M511.34 1066.62c-3.75,-0.6 -6.31,-4.12 -5.71,-7.86 0.6,-3.73 4.14,-6.27 7.9,-5.68 3.76,0.6 6.31,4.12 5.71,7.85 -0.61,3.74 -4.14,6.28 -7.9,5.68z"/>
   <path class="fil1" d="M558.47 934.27c-3.76,-0.6 -6.31,-4.12 -5.71,-7.86 0.6,-3.73 4.14,-6.28 7.9,-5.68 3.76,0.6 6.31,4.12 5.71,7.86 -0.6,3.73 -4.14,6.28 -7.89,5.68z"/>
   <path class="fil1" d="M537.65 1011.08c-3.76,-0.6 -6.31,-4.12 -5.71,-7.85 0.6,-3.74 4.14,-6.28 7.9,-5.68 3.76,0.6 6.31,4.11 5.71,7.85 -0.61,3.74 -4.14,6.28 -7.9,5.68z"/>
   <path class="fil1" d="M511.34 1066.62c-3.75,-0.6 -6.31,-4.12 -5.71,-7.86 0.6,-3.73 4.14,-6.27 7.9,-5.68 3.76,0.6 6.31,4.12 5.71,7.85 -0.61,3.74 -4.14,6.28 -7.9,5.68z"/>
   <path class="fil1" d="M585.47 997.24c-3.76,-0.6 -6.31,-4.12 -5.71,-7.85 0.61,-3.74 4.14,-6.28 7.9,-5.68 3.76,0.61 6.31,4.13 5.71,7.86 -0.6,3.74 -4.14,6.28 -7.9,5.68z"/>
   <path class="fil1" d="M585.47 997.24c-3.76,-0.6 -6.31,-4.12 -5.71,-7.85 0.61,-3.74 4.14,-6.28 7.9,-5.68 3.76,0.61 6.31,4.13 5.71,7.86 -0.6,3.74 -4.14,6.28 -7.9,5.68z"/>
   <path class="fil1" d="M588.84 983.32c-3.75,-0.6 -6.31,-4.12 -5.71,-7.86 0.61,-3.74 4.14,-6.27 7.9,-5.68 3.76,0.61 6.31,4.12 5.71,7.86 -0.6,3.73 -4.14,6.28 -7.9,5.68z"/>
   <path class="fil1" d="M588.84 983.32c-3.75,-0.6 -6.31,-4.12 -5.71,-7.86 0.61,-3.74 4.14,-6.27 7.9,-5.68 3.76,0.61 6.31,4.12 5.71,7.86 -0.6,3.73 -4.14,6.28 -7.9,5.68z"/>
   <path class="fil1" d="M526.06 1078.85c-3.76,-0.6 -6.31,-4.12 -5.71,-7.86 0.6,-3.73 4.14,-6.28 7.9,-5.68 3.75,0.6 6.31,4.12 5.71,7.86 -0.6,3.73 -4.14,6.27 -7.9,5.68z"/>
   <path class="fil1" d="M537.65 1011.08c-3.76,-0.6 -6.31,-4.12 -5.71,-7.85 0.6,-3.74 4.14,-6.28 7.9,-5.68 3.76,0.6 6.31,4.11 5.71,7.85 -0.61,3.74 -4.14,6.28 -7.9,5.68z"/>
   <path class="fil1" d="M575.47 945.18c-3.76,-0.6 -6.31,-4.12 -5.71,-7.86 0.6,-3.74 4.14,-6.28 7.89,-5.68 3.76,0.6 6.31,4.11 5.71,7.85 -0.6,3.73 -4.14,6.28 -7.9,5.68z"/>
   <path class="fil1" d="M526.06 1078.85c-3.76,-0.6 -6.31,-4.12 -5.71,-7.86 0.6,-3.73 4.14,-6.28 7.9,-5.68 3.75,0.6 6.31,4.12 5.71,7.86 -0.6,3.73 -4.14,6.27 -7.9,5.68z"/>
   <path class="fil1" d="M575.47 945.18c-3.76,-0.6 -6.31,-4.12 -5.71,-7.86 0.6,-3.74 4.14,-6.28 7.89,-5.68 3.76,0.6 6.31,4.11 5.71,7.85 -0.6,3.73 -4.14,6.28 -7.9,5.68z"/>
   <path class="fil1" d="M526.06 1078.85c-3.76,-0.6 -6.31,-4.12 -5.71,-7.86 0.6,-3.73 4.14,-6.28 7.9,-5.68 3.75,0.6 6.31,4.12 5.71,7.86 -0.6,3.73 -4.14,6.27 -7.9,5.68z"/>
   <path class="fil1" d="M537.65 1011.08c-3.76,-0.6 -6.31,-4.12 -5.71,-7.85 0.6,-3.74 4.14,-6.28 7.9,-5.68 3.76,0.6 6.31,4.11 5.71,7.85 -0.61,3.74 -4.14,6.28 -7.9,5.68z"/>
   <path class="fil1" d="M526.06 1078.85c-3.76,-0.6 -6.31,-4.12 -5.71,-7.86 0.6,-3.73 4.14,-6.28 7.9,-5.68 3.75,0.6 6.31,4.12 5.71,7.86 -0.6,3.73 -4.14,6.27 -7.9,5.68z"/>
   <path class="fil1" d="M585.47 997.24c-3.76,-0.6 -6.31,-4.12 -5.71,-7.85 0.61,-3.74 4.14,-6.28 7.9,-5.68 3.76,0.61 6.31,4.13 5.71,7.86 -0.6,3.74 -4.14,6.28 -7.9,5.68z"/>
   <path class="fil1" d="M526.06 1078.85c-3.76,-0.6 -6.31,-4.12 -5.71,-7.86 0.6,-3.73 4.14,-6.28 7.9,-5.68 3.75,0.6 6.31,4.12 5.71,7.86 -0.6,3.73 -4.14,6.27 -7.9,5.68z"/>
   <path class="fil1" d="M526.06 1078.85c-3.76,-0.6 -6.31,-4.12 -5.71,-7.86 0.6,-3.73 4.14,-6.28 7.9,-5.68 3.75,0.6 6.31,4.12 5.71,7.86 -0.6,3.73 -4.14,6.27 -7.9,5.68z"/>
   <path class="fil1" d="M526.06 1078.85c-3.76,-0.6 -6.31,-4.12 -5.71,-7.86 0.6,-3.73 4.14,-6.28 7.9,-5.68 3.75,0.6 6.31,4.12 5.71,7.86 -0.6,3.73 -4.14,6.27 -7.9,5.68z"/>
   <path class="fil1" d="M585.47 997.24c-3.76,-0.6 -6.31,-4.12 -5.71,-7.85 0.61,-3.74 4.14,-6.28 7.9,-5.68 3.76,0.61 6.31,4.13 5.71,7.86 -0.6,3.74 -4.14,6.28 -7.9,5.68z"/>
   <path class="fil1" d="M526.06 1078.85c-3.76,-0.6 -6.31,-4.12 -5.71,-7.86 0.6,-3.73 4.14,-6.28 7.9,-5.68 3.75,0.6 6.31,4.12 5.71,7.86 -0.6,3.73 -4.14,6.27 -7.9,5.68z"/>
  </g>
  <path class="fil2" d="M130.47 55.51c-8.03,2.21 -15.62,4.89 -22.68,7.93 5.29,-2.1 10.87,-3.98 16.71,-5.59 47.66,-13.13 94.2,-3.39 103.95,21.74 4.73,12.2 -0.08,25.79 -11.73,38.04l1.82 3.97 -5.8 -0.09c-12.47,11.38 -30.9,21.28 -52.95,27.36 -47.66,13.13 -94.21,3.39 -103.95,-21.75 -0.45,-1.17 -0.82,-2.35 -1.1,-3.55l-1.49 0c0.24,2.7 0.85,5.36 1.86,7.96 10.7,27.59 61.78,38.27 114.1,23.87 52.31,-14.41 86.05,-48.45 75.35,-76.04 -10.7,-27.59 -61.78,-38.27 -114.1,-23.87z"/>
  <path class="fil3" d="M60.29 112.99l6.39 0 2.19 3.49 -10.4 0 -2.14 4.24 -4.25 0 10.38 -19.36 4.11 0 6.19 11.4 -4.55 0 -3.85 -7.65 -4.08 7.88zm14.64 3.75l2.16 3.97 -4.79 0 -2.06 -3.97 4.69 0zm8.05 3.97l0 -19.36 4.26 0 0 15.72 13.74 0 0 3.64 -18 0zm40.13 -15.98l-12 0 0 4.16 11.43 0c1.8,0 3.01,0.33 3.64,0.97 0.63,0.65 0.95,1.85 0.95,3.61l0 2.66c0,1.75 -0.31,2.96 -0.95,3.6 -0.63,0.64 -1.84,0.97 -3.64,0.97l-11.32 0c-1.79,0 -3.01,-0.33 -3.63,-0.97 -0.63,-0.64 -0.95,-1.85 -0.95,-3.6l0 -0.53 3.76 -0.83 0 2.29 12.96 0 0 -4.43 -11.43 0c-1.78,0 -2.98,-0.33 -3.61,-0.97 -0.62,-0.64 -0.94,-1.84 -0.94,-3.6l0 -2.14c0,-1.76 0.31,-2.96 0.94,-3.61 0.63,-0.64 1.83,-0.97 3.61,-0.97l10.4 0c1.72,0 2.91,0.31 3.56,0.93 0.66,0.63 0.98,1.73 0.98,3.31l0 0.41 -3.76 0.94 0 -2.21zm16.92 8.25l8.04 0 -3.96 -7.88 -4.08 7.88zm-8.2 7.73l10.38 -19.36 4.11 0 10.51 19.36 -4.79 0 -2.2 -4.24 -11.62 0 -2.14 4.24 -4.25 0zm30.86 0l0 -19.36 3.44 0 8.64 11.7 8.43 -11.7 3.41 0 0 19.36 -3.94 0 0 -11.96c0,-0.23 0.01,-0.53 0.04,-0.88 0.03,-0.36 0.07,-0.75 0.11,-1.19 -0.23,0.5 -0.43,0.91 -0.6,1.24 -0.18,0.33 -0.33,0.59 -0.47,0.79l-6.89 9.67 -0.85 0 -6.91 -9.7c-0.25,-0.37 -0.47,-0.71 -0.65,-1.04 -0.18,-0.33 -0.33,-0.64 -0.44,-0.94 0.04,0.41 0.07,0.77 0.08,1.1 0.02,0.33 0.02,0.64 0.02,0.95l0 11.96 -3.44 0zm38.93 -7.73l6.71 0 -3.96 -7.88 -3.96 7.65 -4.06 0 6.11 -11.4 4.11 0 10.51 19.36 -4.79 0 -2.2 -4.24 -10.67 0 2.19 -3.49zm-9.53 7.73l2.13 -3.97 4.12 0 -2 3.97 -4.25 0z"/>
  <g id="_1465051597504">
   <path class="fil4" d="M151.44 150.95c-44.63,9.86 -86.41,-0.15 -95.59,-23.82 -0.45,-1.17 -0.82,-2.35 -1.1,-3.55l-1.49 0c0.24,2.7 0.85,5.36 1.86,7.96 10.7,27.59 61.78,38.27 114.1,23.87 0.42,-0.12 0.84,-0.24 1.26,-0.36l-19.04 -4.11z"/>
   <path class="fil2" d="M224.01 71.94l0.02 0.03c1.88,2.36 3.37,4.9 4.43,7.63 4.73,12.2 -0.08,25.79 -11.73,38.04l1.82 3.97 -5.8 -0.09c-12.47,11.38 -30.9,21.28 -52.95,27.36 -2.74,0.76 -5.48,1.43 -8.21,2.04l-0.15 0.03 19.04 4.11 0.12 -0.03c51.52,-14.62 84.58,-48.31 73.97,-75.65 -1.29,-3.32 -3.17,-6.4 -5.56,-9.21l-0.02 -0.02 -14.98 1.8z"/>
   <path class="fil5" d="M130.47 55.51c-8.03,2.21 -15.62,4.89 -22.68,7.93 5.29,-2.1 10.87,-3.98 16.71,-5.59 42.47,-11.7 84.05,-5.24 99.5,14.09l14.98 -1.8c-17.48,-20.56 -62.52,-27.3 -108.52,-14.63z"/>
  </g>
  <path class="fil6" d="M187.49 69.78l3.89 0c1.01,0 1.52,0.46 1.52,1.39 0,0.35 -0.05,0.64 -0.15,0.89 -0.1,0.25 -0.17,0.42 -0.21,0.5l-5.05 0 0 -2.78zm-101 -0.96c1.39,0 2.63,0.25 3.73,0.76 1.1,0.5 1.97,1.29 2.62,2.37 0.56,-0.94 1.35,-1.7 2.34,-2.27 1,-0.57 2.18,-0.86 3.55,-0.86 0.93,0 1.81,0.13 2.64,0.4 0.82,0.27 1.54,0.67 2.15,1.19 0.61,0.53 1.09,1.19 1.43,1.98 0.35,0.79 0.52,1.73 0.52,2.8l0 11.02 -3.39 0 0 -9.84c0,-1.61 -0.34,-2.79 -1.01,-3.53 -0.67,-0.74 -1.63,-1.11 -2.87,-1.11 -1.22,0 -2.2,0.41 -2.96,1.23 -0.76,0.82 -1.14,2.1 -1.14,3.85l0 9.4 -3.35 0 0 -9.54c0,-1.72 -0.38,-2.98 -1.14,-3.76 -0.76,-0.78 -1.82,-1.18 -3.19,-1.18 -1.06,0 -1.89,0.1 -2.47,0.3 -0.59,0.2 -0.96,0.35 -1.11,0.44l0 13.74 -3.35 0 0 -15.92c0.09,-0.05 0.31,-0.15 0.67,-0.3 0.36,-0.16 0.84,-0.32 1.43,-0.5 0.6,-0.18 1.31,-0.34 2.13,-0.47 0.83,-0.13 1.75,-0.2 2.77,-0.2zm58.9 8.23c0,1.28 -0.24,2.4 -0.72,3.38 -0.48,0.97 -1.13,1.82 -1.95,2.54 0.59,0.34 1.06,0.7 1.42,1.09 0.36,0.39 0.64,0.79 0.83,1.19 0.2,0.4 0.33,0.79 0.39,1.16 0.07,0.37 0.1,0.69 0.1,0.96 0,0.92 -0.19,1.74 -0.57,2.47 -0.38,0.73 -0.92,1.34 -1.61,1.85 -0.69,0.5 -1.52,0.9 -2.49,1.18 -0.97,0.28 -2.02,0.42 -3.17,0.42 -1.24,0 -2.33,-0.1 -3.27,-0.29 -0.94,-0.19 -1.74,-0.41 -2.38,-0.65 -0.64,-0.25 -1.14,-0.48 -1.5,-0.71 -0.36,-0.22 -0.57,-0.37 -0.64,-0.44l1.4 -2.59c0.11,0.09 0.32,0.24 0.64,0.44 0.31,0.2 0.73,0.41 1.24,0.62 0.51,0.21 1.11,0.4 1.81,0.55 0.69,0.16 1.48,0.23 2.34,0.23 0.65,0 1.26,-0.06 1.82,-0.18 0.56,-0.12 1.05,-0.31 1.47,-0.57 0.41,-0.26 0.74,-0.59 0.98,-1.01 0.24,-0.41 0.36,-0.91 0.36,-1.49 0,-0.43 -0.14,-0.9 -0.41,-1.41 -0.27,-0.51 -0.75,-0.94 -1.45,-1.28 -0.35,0.13 -0.78,0.25 -1.3,0.34 -0.52,0.09 -0.99,0.13 -1.4,0.13 -1.17,0 -2.25,-0.2 -3.24,-0.6 -0.99,-0.4 -1.84,-0.96 -2.56,-1.68 -0.72,-0.72 -1.27,-1.57 -1.68,-2.55 -0.4,-0.99 -0.6,-2.07 -0.6,-3.26 0,-1.19 0.21,-2.27 0.62,-3.26 0.41,-0.99 0.98,-1.84 1.69,-2.55 0.72,-0.72 1.57,-1.27 2.56,-1.66 0.99,-0.39 2.06,-0.59 3.21,-0.59 0.52,0 1.03,0.04 1.53,0.13 0.5,0.09 0.98,0.22 1.43,0.4l5.08 0c0.56,0 0.96,0.13 1.19,0.39 0.23,0.26 0.34,0.61 0.34,1.06 0,0.31 -0.05,0.59 -0.16,0.84 -0.11,0.25 -0.2,0.41 -0.26,0.5l-2.93 0c0.69,0.65 1.18,1.43 1.45,2.33 0.27,0.91 0.41,1.76 0.41,2.57zm-3.39 -0.17c0,-1.61 -0.43,-2.91 -1.29,-3.88 -0.86,-0.97 -1.99,-1.46 -3.4,-1.46 -1.43,0 -2.58,0.49 -3.44,1.48 -0.86,0.99 -1.29,2.27 -1.29,3.86 0,1.61 0.43,2.91 1.29,3.9 0.86,0.99 2,1.48 3.44,1.48 1.41,0 2.54,-0.49 3.4,-1.48 0.86,-0.98 1.29,-2.28 1.29,-3.9zm-21.92 1.4l-0.14 -0.01c-0.37,-0.03 -0.76,-0.06 -1.18,-0.08 -0.42,-0.02 -0.83,-0.03 -1.21,-0.03 -1.62,0 -2.78,0.25 -3.48,0.74 -0.7,0.5 -1.05,1.26 -1.05,2.3 0,0.43 0.07,0.83 0.19,1.2 0.13,0.37 0.37,0.68 0.71,0.94 0.35,0.26 0.81,0.46 1.39,0.6 0.58,0.14 1.32,0.21 2.2,0.21 1.1,0 1.96,-0.04 2.59,-0.13 0.63,-0.09 1.05,-0.16 1.26,-0.23l0 -5.1 3.3 0 0 7.23c-0.39,0.09 -1.2,0.2 -2.44,0.34 -1.24,0.14 -2.85,0.21 -4.84,0.21 -1.62,0 -2.93,-0.15 -3.93,-0.44 -1,-0.29 -1.79,-0.68 -2.35,-1.17 -0.56,-0.49 -0.94,-1.04 -1.13,-1.67 -0.19,-0.63 -0.29,-1.27 -0.29,-1.94 0,-0.84 0.13,-1.6 0.39,-2.27 0.26,-0.67 0.68,-1.23 1.26,-1.68 0.58,-0.45 1.35,-0.8 2.31,-1.05 0.96,-0.25 2.14,-0.37 3.54,-0.37 0.97,0 1.85,0.02 2.64,0.07l0.25 0.01 0 2.31zm-3.6 -6.44c-0.63,0 -1.18,0.05 -1.67,0.16 -0.49,0.11 -0.91,0.23 -1.26,0.37 -0.36,0.14 -0.65,0.29 -0.89,0.45 -0.24,0.16 -0.43,0.3 -0.58,0.4 -0.24,-0.15 -0.44,-0.37 -0.61,-0.65 -0.17,-0.28 -0.26,-0.6 -0.26,-0.97 0,-0.37 0.1,-0.67 0.31,-0.92 0.21,-0.25 0.48,-0.46 0.83,-0.63 0.37,-0.17 0.87,-0.34 1.52,-0.5 0.65,-0.16 1.46,-0.24 2.43,-0.24 1.29,0 2.46,0.12 3.5,0.36 1.04,0.24 1.92,0.63 2.64,1.18 0.72,0.55 1.28,1.27 1.67,2.15 0.34,0.78 0.53,1.71 0.57,2.79l-3.26 0c-0.01,-0.3 -0.04,-0.58 -0.1,-0.85 -0.17,-1.01 -0.64,-1.79 -1.41,-2.31 -0.77,-0.53 -1.9,-0.79 -3.41,-0.79zm40.75 0.23c-0.54,0 -1.01,0.04 -1.42,0.11 -0.41,0.08 -0.76,0.16 -1.05,0.26 -0.29,0.1 -0.52,0.19 -0.7,0.29 -0.17,0.1 -0.29,0.17 -0.36,0.21l0 13.08 -3.33 0 0 -14.79c0.06,-0.06 0.26,-0.2 0.6,-0.4 0.33,-0.2 0.79,-0.42 1.36,-0.65 0.57,-0.23 1.25,-0.43 2.02,-0.61 0.78,-0.18 1.65,-0.28 2.62,-0.28 0.86,0 1.57,0.05 2.12,0.16 0.55,0.11 0.99,0.25 1.31,0.42 0.6,0.3 0.91,0.74 0.91,1.33 0,0.41 -0.09,0.76 -0.26,1.04 -0.17,0.28 -0.32,0.47 -0.45,0.58 -0.22,-0.15 -0.64,-0.31 -1.26,-0.49 -0.63,-0.17 -1.33,-0.26 -2.1,-0.26zm21.36 3.4c0,1.25 -0.35,2.23 -1.04,2.94 -0.69,0.71 -1.87,1.07 -3.53,1.07l-5.65 0 0 -2.36 4.81 0c0.78,0 1.34,-0.14 1.68,-0.42 0.35,-0.28 0.52,-0.8 0.52,-1.55 0,-0.41 -0.07,-0.82 -0.21,-1.23 -0.14,-0.41 -0.37,-0.78 -0.7,-1.1 -0.32,-0.32 -0.74,-0.59 -1.25,-0.79 -0.51,-0.21 -1.12,-0.31 -1.83,-0.31 -0.82,0 -1.54,0.17 -2.17,0.5 -0.63,0.33 -1.15,0.76 -1.57,1.28 -0.42,0.52 -0.74,1.09 -0.96,1.73 -0.19,0.56 -0.3,1.12 -0.34,1.67l-3.37 0c0.09,-0.83 0.28,-1.62 0.56,-2.35 0.42,-1.09 1.01,-2.03 1.76,-2.82 0.76,-0.79 1.65,-1.4 2.69,-1.83 1.04,-0.43 2.18,-0.65 3.43,-0.65 1.17,0 2.2,0.16 3.09,0.47 0.9,0.31 1.64,0.74 2.23,1.29 0.59,0.55 1.05,1.2 1.36,1.96 0.31,0.76 0.47,1.59 0.47,2.49zm-12.09 4.28c0.23,1.23 0.78,2.19 1.66,2.88 0.94,0.73 2.21,1.1 3.8,1.1 1.23,0 2.24,-0.12 3.03,-0.37 0.79,-0.25 1.32,-0.46 1.6,-0.63l1.04 2.43c-0.11,0.06 -0.33,0.18 -0.66,0.34 -0.33,0.16 -0.77,0.32 -1.29,0.47 -0.53,0.15 -1.14,0.29 -1.85,0.4 -0.7,0.12 -1.46,0.18 -2.28,0.18 -1.21,0 -2.34,-0.17 -3.38,-0.52 -1.05,-0.35 -1.96,-0.86 -2.73,-1.55 -0.78,-0.69 -1.39,-1.56 -1.83,-2.62 -0.27,-0.64 -0.45,-1.34 -0.56,-2.1l3.47 0zm20.73 -7.11l0 8.27c0,1.08 0.24,1.82 0.71,2.22 0.48,0.4 1.12,0.6 1.94,0.6 0.35,0 0.67,-0.04 0.97,-0.11 0.3,-0.08 0.57,-0.17 0.81,-0.27 0.24,-0.11 0.43,-0.21 0.58,-0.31 0.15,-0.1 0.26,-0.17 0.32,-0.21l1.29 2.07c-0.09,0.06 -0.25,0.19 -0.49,0.37 -0.24,0.18 -0.55,0.36 -0.94,0.53 -0.39,0.17 -0.86,0.33 -1.41,0.47 -0.55,0.14 -1.17,0.21 -1.86,0.21 -0.93,0 -1.73,-0.13 -2.39,-0.39 -0.67,-0.26 -1.22,-0.62 -1.65,-1.08 -0.43,-0.46 -0.75,-1.01 -0.96,-1.63 -0.2,-0.63 -0.31,-1.31 -0.31,-2.04l0 -8.69 3.37 0zm-3.37 -2.89l0 -3.5c0,-0.52 0.16,-0.9 0.47,-1.15 0.31,-0.25 0.75,-0.37 1.31,-0.37 0.37,0 0.7,0.04 0.99,0.13 0.29,0.09 0.49,0.15 0.6,0.19l0 4.7 -3.37 0z"/>
  <polygon class="fil7" points="206.37,67.46 204.95,71.77 200.31,73.09 204.95,74.41 206.37,78.72 207.79,74.41 212.43,73.09 207.79,71.77 "/>
  <polygon class="fil7" points="79.13,131.32 77.7,135.62 73.07,136.95 77.7,138.27 79.13,142.57 80.55,138.27 85.19,136.95 80.55,135.62 "/>
  <polygon class="fil7" points="228.39,93.28 226.64,98.58 220.93,100.21 226.64,101.83 228.39,107.13 230.15,101.83 235.85,100.21 230.15,98.58 "/>
  <polygon class="fil7" points="134.47,131.32 133.75,133.49 131.42,134.15 133.75,134.82 134.47,136.99 135.19,134.82 137.52,134.15 135.19,133.49 "/>
  <polygon class="fil7" points="99.92,60.58 99.2,62.75 96.87,63.42 99.2,64.09 99.92,66.26 100.64,64.09 102.97,63.42 100.64,62.75 "/>
  <g id="_1465051605568">
   <path class="fil8" d="M251.04 316.3c-21.35,14.07 -41.52,31.08 -60.29,50.44 14.06,-13.37 28.9,-25.32 44.43,-35.54 126.69,-83.49 250.39,-21.57 276.3,138.28 12.58,77.6 -0.21,164.01 -31.18,241.94l4.85 25.27 -15.41 -0.6c-33.15,72.36 -82.12,135.35 -140.74,173.96 -126.69,83.48 -250.39,21.57 -276.3,-138.29 -1.21,-7.44 -2.18,-14.97 -2.93,-22.56l-3.96 0c0.64,17.15 2.27,34.09 4.95,50.65 28.44,175.45 164.21,243.4 303.26,151.78 139.05,-91.62 228.71,-308.12 200.27,-483.56 -28.44,-175.45 -164.21,-243.4 -303.26,-151.78z"/>
   <path class="fil8" d="M499.65 420.78l0.06 0.18c4.99,14.98 8.96,31.17 11.77,48.52 12.58,77.6 -0.21,164.01 -31.18,241.94l-10.56 24.67c-33.15,72.36 -82.12,135.35 -140.74,173.97 -7.29,4.8 -14.57,9.1 -21.82,12.95l-0.41 0.22 50.6 26.14 0.31 -0.21c136.95,-92.99 224.8,-307.19 196.61,-481.08 -3.43,-21.13 -8.42,-40.68 -14.78,-58.6l-0.05 -0.15 -39.82 11.45z"/>
   <path class="fil9" d="M251.04 316.3c-21.35,14.07 -41.52,31.08 -60.29,50.44 14.06,-13.37 28.9,-25.32 44.43,-35.54 112.88,-74.39 223.4,-33.33 264.47,89.58l39.82 -11.45c-46.46,-130.77 -166.17,-173.58 -288.43,-93.03z"/>
  </g>
  <path class="fil10" d="M338.96 146.02c-0.28,2.13 -1.48,3.8 -3.61,5 -1.92,1.06 -4.32,1.6 -7.19,1.6 -3.84,0 -6.74,-1.1 -8.68,-3.3 -1.44,-1.64 -2.15,-3.66 -2.15,-6.04 0,-1.83 0.43,-3.43 1.28,-4.79l4.17 -0.87c-0.93,1.57 -1.39,3.23 -1.39,4.96 0,1.94 0.58,3.44 1.74,4.48 1.16,1.06 2.84,1.6 5.03,1.6 3.43,0 5.51,-0.88 6.25,-2.64l-3.33 0 2.19 -4.2 5.8 0 0 4.2 -0.1 0z"/>
  <path id="_1" class="fil10" d="M359.37 141.82l3.09 0 0 4.2 -3.54 0c-1.67,0 -3.03,-0.43 -4.1,-1.28 -1.25,1.32 -2.89,1.98 -4.93,1.98 -2.08,0 -3.73,-0.66 -4.93,-1.98 -1.11,0.86 -2.49,1.28 -4.13,1.28l-3.54 0 0 -4.2 3.12 0c0.88,0 1.5,-0.19 1.88,-0.57 0.37,-0.38 0.56,-1.02 0.56,-1.93l0 -1.01c0,-2.71 0.71,-4.81 2.12,-6.32 1.23,-1.32 2.87,-1.98 4.93,-1.98 2.34,0 4.14,0.86 5.42,2.57 1.06,1.46 1.6,3.37 1.6,5.73l0 1.01c0,0.9 0.19,1.54 0.57,1.93 0.38,0.38 1.01,0.57 1.89,0.57zm-9.48 0.69c1.76,0 2.64,-1.44 2.64,-4.31 0,-2.75 -0.88,-4.13 -2.64,-4.13 -1.78,0 -2.67,1.38 -2.67,4.13 0,2.87 0.89,4.31 2.67,4.31z"/>
  <polygon id="_2" class="fil10" points="360.38,146.02 360.38,141.82 366.49,141.82 366.49,146.02 "/>
  <polygon id="_3" class="fil10" points="364.41,146.02 364.41,141.82 370.52,141.82 370.52,146.02 "/>
  <polygon id="_4" class="fil10" points="368.44,146.02 368.44,141.82 374.55,141.82 374.55,146.02 "/>
  <polygon id="_5" class="fil10" points="372.46,146.02 372.46,141.82 378.57,141.82 378.57,146.02 "/>
  <polygon id="_6" class="fil10" points="376.49,146.02 376.49,141.82 382.6,141.82 382.6,146.02 "/>
  <polygon id="_7" class="fil10" points="380.52,146.02 380.52,141.82 386.63,141.82 386.63,146.02 "/>
  <polygon id="_8" class="fil10" points="384.55,146.02 384.55,141.82 390.66,141.82 390.66,146.02 "/>
  <polygon id="_9" class="fil10" points="388.57,146.02 388.57,141.82 394.68,141.82 394.68,146.02 "/>
  <polygon id="_10" class="fil10" points="392.6,146.02 392.6,141.82 398.71,141.82 398.71,146.02 "/>
  <polygon id="_11" class="fil10" points="396.63,146.02 396.63,141.82 402.74,141.82 402.74,146.02 "/>
  <polygon id="_12" class="fil10" points="400.66,146.02 400.66,141.82 406.77,141.82 406.77,146.02 "/>
  <polygon id="_13" class="fil10" points="404.68,146.02 404.68,141.82 410.79,141.82 410.79,146.02 "/>
  <polygon id="_14" class="fil10" points="408.71,146.02 408.71,141.82 414.82,141.82 414.82,146.02 "/>
  <polygon id="_15" class="fil10" points="412.74,146.02 412.74,141.82 418.85,141.82 418.85,146.02 "/>
  <polygon id="_16" class="fil10" points="416.77,146.02 416.77,141.82 422.88,141.82 422.88,146.02 "/>
  <polygon id="_17" class="fil10" points="420.79,146.02 420.79,141.82 426.91,141.82 426.91,146.02 "/>
  <polygon id="_18" class="fil10" points="424.82,146.02 424.82,141.82 430.93,141.82 430.93,146.02 "/>
  <path id="_19" class="fil10" d="M428.85 146.02l0 -4.2 3.68 0c0.88,0 1.51,-0.19 1.89,-0.57 0.38,-0.38 0.57,-1.02 0.57,-1.93l0 -4.58 4.37 -2.29 0 6.87c0,0.9 0.18,1.54 0.56,1.93 0.37,0.38 1,0.57 1.88,0.57l2.36 0c0.88,0 1.5,-0.19 1.88,-0.57 0.37,-0.38 0.56,-1.02 0.56,-1.93l0 -5.49 4.37 -2.33 0 7.81c0,0.9 0.19,1.54 0.57,1.93 0.38,0.38 1.01,0.57 1.89,0.57l2.36 0c0.88,0 1.5,-0.19 1.87,-0.57 0.37,-0.38 0.56,-1.02 0.56,-1.93l0 -6.42 4.38 -2.29 0 8.16c0,1.11 0.23,1.9 0.68,2.36 0.45,0.46 1.21,0.69 2.27,0.69l3.19 0 0 4.2 -3.44 0c-1.94,0 -3.51,-0.56 -4.69,-1.67 -1.04,1.09 -2.44,1.64 -4.2,1.67l-3.44 0c-1.71,0 -3.11,-0.51 -4.2,-1.53 -1,1 -2.31,1.5 -3.96,1.53l-3.44 0c-1.71,0 -3.11,-0.51 -4.2,-1.53 -1.09,1.02 -2.49,1.53 -4.2,1.53l-4.13 0z"/>
  <path id="_20" class="fil10" d="M466.66 146.02l0 -4.2 2.19 0c1.06,0 1.82,-0.23 2.27,-0.69 0.45,-0.46 0.68,-1.25 0.68,-2.36l0 -12.81 4.34 -2.33 0 15.17c0,2.25 -0.68,4.04 -2.05,5.38 -1.25,1.23 -2.92,1.84 -5,1.84l-2.43 0z"/>
  <polygon id="_21" class="fil10" points="482.39,146.02 482.39,125.95 486.76,123.62 486.76,146.02 "/>
  <path id="_22" class="fil10" d="M509.01 126.4c-0.69,0 -1.25,-0.21 -1.67,-0.62 -0.42,-0.42 -0.63,-0.98 -0.63,-1.7 0,-1.5 0.76,-2.26 2.29,-2.26 0.69,0 1.24,0.2 1.65,0.61 0.4,0.41 0.61,0.95 0.61,1.65 0,1.55 -0.75,2.33 -2.26,2.33zm5.31 0c-0.69,0 -1.25,-0.21 -1.67,-0.64 -0.42,-0.43 -0.62,-0.99 -0.62,-1.68 0,-0.67 0.21,-1.22 0.62,-1.63 0.42,-0.42 0.97,-0.63 1.67,-0.63 0.69,0 1.24,0.2 1.65,0.61 0.41,0.41 0.61,0.95 0.61,1.65 0,1.55 -0.75,2.33 -2.26,2.33zm-2.64 19.62c-2.2,0 -3.92,-0.74 -5.17,-2.22 -1.06,-1.27 -1.6,-2.9 -1.6,-4.9 0,-2.08 0.6,-3.9 1.81,-5.45 1.2,-1.55 2.92,-2.7 5.14,-3.44 2.36,0.79 4.14,2.03 5.35,3.71 1.09,1.48 1.63,3.21 1.63,5.17 0,2.29 -0.69,4.09 -2.08,5.38 -1.2,1.16 -2.78,1.74 -4.72,1.74l-0.35 0zm-0.03 -4.2l0.45 0c1.62,0 2.43,-0.96 2.43,-2.88 0,-2.2 -0.89,-3.81 -2.67,-4.83 -1.76,1.02 -2.64,2.6 -2.64,4.76 0,1.97 0.81,2.95 2.43,2.95z"/>
  <path id="_23" class="fil10" d="M532.87 141.82l3.12 0 0 4.2 -3.54 0c-0.79,0 -1.52,-0.1 -2.19,-0.31 -0.3,2.22 -1.19,3.98 -2.67,5.28 -1.34,1.16 -2.95,1.74 -4.83,1.74 -1.46,0 -2.88,-0.37 -4.27,-1.11l0 -3.82c1.2,0.67 2.38,1.01 3.54,1.01 1.27,0 2.26,-0.41 2.97,-1.23 0.71,-0.82 1.06,-1.96 1.06,-3.42l0 -11.25 2.85 -1.49 1.49 -0.8 0 0.03 0.03 -0.03 0 8.71c0,0.9 0.18,1.54 0.56,1.93 0.37,0.38 1,0.57 1.87,0.57z"/>
  <path id="_24" class="fil10" d="M556.54 141.82l2.92 0 0 4.2 -2.95 0c-1.83,0 -3.29,-0.2 -4.39,-0.61 -1.1,-0.41 -2.12,-1.12 -3.07,-2.14 -2.89,1.83 -6.23,2.74 -10,2.74l-5.14 0 0 -4.2 5.17 0c4.07,0 7.31,-1.22 9.72,-3.65 -1.57,-2.75 -3.48,-4.13 -5.73,-4.13 -1.85,0 -3.88,1.01 -6.08,3.02l0 -3.85c1.94,-2.13 4.14,-3.19 6.6,-3.19 1.81,0 3.56,0.66 5.28,1.98 1.71,1.32 3.23,3.19 4.55,5.62l0 1.74c-0.37,0.49 -0.86,1.03 -1.46,1.63 0.93,0.56 2.45,0.83 4.58,0.83zm-9.62 7.36c0.69,0 1.24,0.2 1.65,0.61 0.4,0.41 0.61,0.96 0.61,1.65 0,1.55 -0.75,2.33 -2.26,2.33 -0.69,0 -1.25,-0.21 -1.67,-0.63 -0.42,-0.42 -0.63,-0.98 -0.63,-1.7 0,-0.67 0.21,-1.22 0.63,-1.63 0.42,-0.42 0.97,-0.63 1.67,-0.63z"/>
  <path id="_25" class="fil10" d="M562.93 136.43c0,-2.08 0.65,-3.72 1.94,-4.9 1.13,-1.02 2.59,-1.53 4.37,-1.53 2.29,0 4.07,0.84 5.35,2.53 1.09,1.41 1.63,3.23 1.63,5.45 0,2.57 -0.68,4.59 -2.05,6.08 -1.23,1.3 -2.79,1.94 -4.69,1.94 -1.85,0 -3.37,-0.41 -4.55,-1.22 -1.11,0.81 -2.45,1.22 -4.03,1.22l-3.54 0 0 -4.2 3.12 0c0.88,0 1.5,-0.19 1.88,-0.57 0.37,-0.38 0.56,-1.02 0.56,-1.93l0 -2.88zm4.37 3.44c0,1.3 0.68,1.94 2.05,1.94 1.71,0 2.57,-1.32 2.57,-3.96 0,-2.52 -0.89,-3.78 -2.67,-3.78 -1.3,0 -1.94,0.76 -1.94,2.29l0 3.51z"/>
  <path id="_26" class="fil10" d="M327.47 181.12c-0.69,0 -1.25,-0.21 -1.67,-0.64 -0.42,-0.43 -0.63,-0.99 -0.63,-1.68 0,-0.67 0.21,-1.22 0.63,-1.63 0.42,-0.42 0.97,-0.63 1.67,-0.63 0.69,0 1.24,0.2 1.65,0.61 0.41,0.41 0.61,0.95 0.61,1.65 0,1.55 -0.75,2.33 -2.26,2.33zm5.35 0c-0.69,0 -1.25,-0.21 -1.67,-0.62 -0.42,-0.42 -0.63,-0.98 -0.63,-1.7 0,-1.5 0.76,-2.26 2.29,-2.26 0.69,0 1.24,0.2 1.65,0.61 0.41,0.41 0.61,0.95 0.61,1.65 0,1.55 -0.75,2.33 -2.26,2.33zm-8.68 16.14c-1.97,0 -3.51,-0.66 -4.62,-1.98 -1,-1.16 -1.49,-2.65 -1.49,-4.48l0 -3.54 4.34 -2.29 0 5.56c0,0.93 0.19,1.58 0.57,1.96 0.38,0.38 1.01,0.57 1.89,0.57l11.32 0c0.88,0 1.5,-0.2 1.87,-0.59 0.37,-0.39 0.56,-1.04 0.56,-1.94l0 -6.39 4.37 -2.29 0 8.96c0,2.11 -0.66,3.75 -1.98,4.93 -1.16,1.02 -2.64,1.53 -4.44,1.53l-12.39 0z"/>
  <path id="_27" class="fil10" d="M355.59 197.26c-2.11,0 -3.74,-0.67 -4.9,-2.01 -1,-1.16 -1.49,-2.65 -1.49,-4.48l0 -13.61 4.37 -2.29 0 15.69c0,0.9 0.18,1.54 0.56,1.93 0.37,0.38 0.99,0.57 1.87,0.57l3.12 0 0 4.2 -3.54 0z"/>
  <path id="_28" class="fil10" d="M362.6 187.68c0,-2.08 0.65,-3.72 1.94,-4.9 1.13,-1.02 2.59,-1.53 4.37,-1.53 2.29,0 4.07,0.84 5.35,2.53 1.09,1.41 1.63,3.23 1.63,5.45 0,2.57 -0.68,4.59 -2.05,6.08 -1.23,1.3 -2.79,1.94 -4.69,1.94 -1.85,0 -3.37,-0.41 -4.55,-1.22 -1.11,0.81 -2.45,1.22 -4.03,1.22l-3.54 0 0 -4.2 3.12 0c0.88,0 1.5,-0.19 1.88,-0.57 0.37,-0.38 0.56,-1.02 0.56,-1.93l0 -2.88zm4.37 3.44c0,1.3 0.68,1.94 2.05,1.94 1.71,0 2.57,-1.32 2.57,-3.96 0,-2.52 -0.89,-3.78 -2.67,-3.78 -1.3,0 -1.94,0.76 -1.94,2.29l0 3.51z"/>
  <path id="_29" class="fil10" d="M398.12 193.06l0 4.2 -4.27 0c-0.16,2.08 -1.09,3.75 -2.78,5 -1.39,1.02 -3.01,1.53 -4.86,1.53 -1.46,0 -2.88,-0.39 -4.27,-1.18l0 -3.78c1.25,0.72 2.5,1.08 3.75,1.08 0.97,0 1.83,-0.27 2.59,-0.8 0.75,-0.53 1.16,-1.17 1.23,-1.91 -0.18,-0.02 -0.47,-0.05 -0.87,-0.07 -0.39,-0.05 -0.69,-0.08 -0.9,-0.1 -2.38,-0.25 -4.22,-1.19 -5.52,-2.81 -1.09,-1.37 -1.63,-3.02 -1.63,-4.96 0,-2.55 0.69,-4.56 2.08,-6.04 1.23,-1.3 2.85,-1.94 4.86,-1.94 2.06,0 3.67,0.66 4.83,1.98 1,1.13 1.49,2.62 1.49,4.44l0 5.38 4.27 0zm-8.61 -5.45c0,-1.53 -0.66,-2.29 -1.98,-2.29 -1.76,0 -2.64,1.26 -2.64,3.78 0,2.25 1.02,3.5 3.05,3.75 0.32,0.07 0.84,0.13 1.56,0.17l0 -5.42z"/>
  <path id="_30" class="fil10" d="M407.98 193.06l3.12 0 0 4.2 -3.54 0c-1.81,0 -3.27,-0.51 -4.41,-1.53 -1.27,1.02 -2.84,1.53 -4.69,1.53l-2.43 0 0 -4.2 2.19 0c1.06,0 1.82,-0.23 2.27,-0.69 0.45,-0.46 0.68,-1.25 0.68,-2.36l0 -12.81 4.34 -2.33 0 7.01 0.03 -0.03 0 8.71c0,0.9 0.19,1.54 0.56,1.93 0.37,0.38 1,0.57 1.87,0.57z"/>
  <path id="_31" class="fil10" d="M426.07 193.06l9.55 0 0.07 4.2 -10.03 0c-1.18,0 -2.29,-0.29 -3.33,-0.87 -1.09,0.58 -2.2,0.87 -3.33,0.87l-9.96 0 0 -4.2 9.44 0c-1.04,-0.72 -1.91,-1.4 -2.6,-2.05 -0.39,-0.35 -0.99,-1 -1.81,-1.94 -0.25,-0.3 -0.46,-0.54 -0.63,-0.73l0 -1.98c1.02,-1.55 2.33,-2.79 3.94,-3.72 1.61,-0.93 3.26,-1.39 4.95,-1.39 1.67,0 3.31,0.47 4.93,1.41 1.62,0.94 2.96,2.19 4.03,3.77l0 1.91c-1.55,1.87 -3.29,3.45 -5.21,4.72zm-3.78 -1.67c1.74,-1.37 3.02,-2.74 3.85,-4.13 -1.39,-1.3 -2.7,-1.94 -3.92,-1.94 -1.18,0 -2.41,0.65 -3.68,1.94 0.9,1.6 2.15,2.97 3.75,4.13z"/>
  <path id="_32" class="fil10" d="M455.69 193.06l3.09 0 0 4.2 -3.54 0c-1.67,0 -3.03,-0.43 -4.1,-1.28 -1.25,1.32 -2.89,1.98 -4.93,1.98 -2.08,0 -3.73,-0.66 -4.93,-1.98 -1.11,0.86 -2.49,1.28 -4.13,1.28l-3.54 0 0 -4.2 3.12 0c0.88,0 1.5,-0.19 1.88,-0.57 0.37,-0.38 0.56,-1.02 0.56,-1.93l0 -1.01c0,-2.71 0.71,-4.81 2.12,-6.32 1.23,-1.32 2.87,-1.98 4.93,-1.98 2.34,0 4.14,0.86 5.42,2.57 1.06,1.46 1.6,3.37 1.6,5.73l0 1.01c0,0.9 0.19,1.54 0.57,1.93 0.38,0.38 1.01,0.57 1.89,0.57zm-9.48 0.69c1.76,0 2.64,-1.44 2.64,-4.31 0,-2.75 -0.88,-4.13 -2.64,-4.13 -1.78,0 -2.67,1.38 -2.67,4.13 0,2.87 0.89,4.31 2.67,4.31z"/>
  <path id="_33" class="fil10" d="M456.69 197.26l0 -4.2 2.19 0c1.06,0 1.82,-0.23 2.27,-0.69 0.45,-0.46 0.68,-1.25 0.68,-2.36l0 -12.81 4.34 -2.33 0 15.17c0,2.25 -0.68,4.04 -2.05,5.38 -1.25,1.23 -2.92,1.84 -5,1.84l-2.43 0z"/>
  <polygon id="_34" class="fil10" points="472.42,197.26 472.42,177.19 476.79,174.87 476.79,197.26 "/>
  <path id="_35" class="fil10" d="M493.81 177.64c-0.69,0 -1.25,-0.21 -1.67,-0.62 -0.42,-0.42 -0.63,-0.98 -0.63,-1.7 0,-1.5 0.76,-2.26 2.29,-2.26 0.69,0 1.24,0.2 1.65,0.61 0.4,0.41 0.61,0.95 0.61,1.65 0,1.55 -0.75,2.33 -2.26,2.33zm5.35 0c-0.69,0 -1.25,-0.21 -1.67,-0.62 -0.42,-0.42 -0.63,-0.98 -0.63,-1.7 0,-1.5 0.76,-2.26 2.29,-2.26 0.69,0 1.24,0.2 1.65,0.61 0.41,0.41 0.61,0.95 0.61,1.65 0,1.55 -0.75,2.33 -2.26,2.33zm5.87 15.42l3.12 0 0 4.2 -3.54 0c-2.15,0 -3.82,-0.72 -5,-2.15 -1,0.76 -2.21,1.15 -3.65,1.15 -2.13,0 -3.83,-0.8 -5.1,-2.4 -1.04,-1.32 -1.56,-2.91 -1.56,-4.76 0,-2.29 0.74,-4.15 2.22,-5.59 1.25,-1.2 2.7,-1.81 4.34,-1.81 0.86,0 1.64,0.16 2.36,0.49l0 -0.9 4.34 -2.29 0 11.56c0,0.9 0.19,1.54 0.57,1.93 0.38,0.38 1.01,0.57 1.89,0.57zm-6.8 -6.49c-0.6,-0.51 -1.28,-0.76 -2.05,-0.76 -0.76,0 -1.38,0.31 -1.86,0.94 -0.47,0.63 -0.71,1.45 -0.71,2.46 0,1.02 0.23,1.83 0.69,2.43 0.46,0.6 1.1,0.9 1.91,0.9 0.88,0 1.56,-0.3 2.05,-0.9 -0.02,-0.18 -0.03,-0.47 -0.03,-0.87l0 -4.2z"/>
  <path id="_36" class="fil10" d="M518.42 193.06l3.12 0 0 4.2 -3.54 0c-1.69,0 -3.09,-0.45 -4.2,-1.35 -1.11,0.9 -2.51,1.35 -4.2,1.35l-3.54 0 0 -4.2 3.12 0c0.88,0 1.5,-0.19 1.88,-0.57 0.37,-0.38 0.56,-1.02 0.56,-1.93l0 -6.42 4.37 -2.29 0 8.71c0,0.9 0.19,1.54 0.56,1.93 0.37,0.38 1,0.57 1.87,0.57zm-8.99 7.36c0.69,0 1.24,0.2 1.65,0.61 0.41,0.41 0.61,0.96 0.61,1.65 0,1.55 -0.75,2.33 -2.26,2.33 -0.69,0 -1.25,-0.21 -1.67,-0.63 -0.42,-0.42 -0.62,-0.98 -0.62,-1.7 0,-1.5 0.76,-2.26 2.29,-2.26zm5.35 0c0.69,0 1.24,0.2 1.65,0.61 0.4,0.41 0.61,0.96 0.61,1.65 0,1.55 -0.75,2.33 -2.26,2.33 -0.69,0 -1.25,-0.21 -1.67,-0.63 -0.42,-0.42 -0.63,-0.98 -0.63,-1.7 0,-1.5 0.76,-2.26 2.29,-2.26z"/>
  <path id="_37" class="fil10" d="M526.27 178.34c-0.69,0 -1.25,-0.21 -1.67,-0.63 -0.42,-0.42 -0.63,-0.98 -0.63,-1.7 0,-0.67 0.21,-1.22 0.63,-1.63 0.42,-0.42 0.97,-0.62 1.67,-0.62 0.69,0 1.24,0.2 1.65,0.61 0.41,0.4 0.61,0.95 0.61,1.65 0,1.55 -0.75,2.33 -2.26,2.33zm5.55 14.72l3.12 0 0 4.2 -3.54 0c-1.69,0 -3.09,-0.45 -4.2,-1.35 -1.11,0.9 -2.51,1.35 -4.2,1.35l-3.54 0 0 -4.2 3.12 0c0.88,0 1.5,-0.19 1.88,-0.57 0.37,-0.38 0.56,-1.02 0.56,-1.93l0 -6.42 4.37 -2.29 0 8.71c0,0.9 0.19,1.54 0.56,1.93 0.37,0.38 1,0.57 1.87,0.57z"/>
  <path id="_38" class="fil10" d="M541.23 178.79c-0.69,0 -1.25,-0.21 -1.67,-0.63 -0.42,-0.42 -0.63,-0.98 -0.63,-1.7 0,-1.5 0.76,-2.26 2.29,-2.26 0.69,0 1.24,0.2 1.65,0.61 0.41,0.4 0.61,0.95 0.61,1.65 0,1.55 -0.75,2.33 -2.26,2.33zm5.35 0c-0.69,0 -1.25,-0.21 -1.67,-0.63 -0.42,-0.42 -0.62,-0.98 -0.62,-1.7 0,-1.5 0.76,-2.26 2.29,-2.26 0.69,0 1.24,0.2 1.65,0.61 0.4,0.4 0.61,0.95 0.61,1.65 0,1.55 -0.75,2.33 -2.26,2.33zm2.85 14.27l5.49 0 0 4.2 -8.23 0c-1.18,0 -2.11,-0.08 -2.78,-0.24 -0.72,0.16 -1.64,0.24 -2.78,0.24l-8.26 0 0 -4.2 5.49 0c-0.88,-1.41 -1.32,-2.85 -1.32,-4.31 0,-2.31 0.68,-4.18 2.05,-5.59 1.23,-1.27 2.84,-1.91 4.83,-1.91 2.27,0 4.03,0.82 5.28,2.46 1.04,1.34 1.56,3.02 1.56,5.03 0,1.46 -0.44,2.89 -1.32,4.31zm-5.56 -0.38c0.79,-0.37 1.43,-0.94 1.93,-1.72 0.5,-0.78 0.75,-1.59 0.75,-2.45 0,-1 -0.24,-1.78 -0.71,-2.34 -0.47,-0.57 -1.12,-0.85 -1.93,-0.85 -1.76,0 -2.64,1.05 -2.64,3.16 0,0.9 0.24,1.74 0.73,2.52 0.49,0.78 1.11,1.34 1.87,1.68z"/>
  <path id="_39" class="fil10" d="M556.13 178.79c-0.69,0 -1.25,-0.21 -1.67,-0.63 -0.42,-0.42 -0.63,-0.98 -0.63,-1.7 0,-0.67 0.21,-1.22 0.63,-1.63 0.42,-0.42 0.97,-0.63 1.67,-0.63 0.69,0 1.24,0.2 1.65,0.61 0.41,0.4 0.61,0.95 0.61,1.65 0,1.55 -0.75,2.33 -2.26,2.33zm5.31 0c-0.69,0 -1.25,-0.21 -1.67,-0.64 -0.42,-0.43 -0.63,-0.99 -0.63,-1.68 0,-0.67 0.21,-1.22 0.64,-1.63 0.43,-0.42 0.98,-0.63 1.65,-0.63 0.69,0 1.24,0.2 1.65,0.61 0.41,0.4 0.61,0.95 0.61,1.65 0,1.55 -0.75,2.33 -2.26,2.33zm3.75 14.27l3.12 0 0 4.2 -3.54 0c-1.69,0 -3.09,-0.45 -4.2,-1.35 -1.11,0.9 -2.51,1.35 -4.2,1.35l-3.54 0 0 -4.2 3.12 0c0.88,0 1.5,-0.19 1.88,-0.57 0.37,-0.38 0.56,-1.02 0.56,-1.93l0 -6.42 4.37 -2.29 0 8.71c0,0.9 0.19,1.54 0.56,1.93 0.37,0.38 1,0.57 1.87,0.57z"/>
  <path id="_40" class="fil10" d="M566.23 197.26l0 -4.2 2.19 0c1.06,0 1.82,-0.23 2.27,-0.69 0.45,-0.46 0.68,-1.25 0.68,-2.36l0 -12.81 4.34 -2.33 0 15.17c0,2.25 -0.68,4.04 -2.05,5.38 -1.25,1.23 -2.92,1.84 -5,1.84l-2.43 0z"/>
 </g>
</svg>
