<?xml version="1.0" encoding="UTF-8"?>
<!DOCTYPE svg PUBLIC "-//W3C//DTD SVG 1.1//EN" "http://www.w3.org/Graphics/SVG/1.1/DTD/svg11.dtd">
<!-- Creator: CorelDRAW 2021 (64-Bit) -->
<svg xmlns="http://www.w3.org/2000/svg" xml:space="preserve" width="0.842264in" height="0.827689in" version="1.1" style="shape-rendering:geometricPrecision; text-rendering:geometricPrecision; image-rendering:optimizeQuality; fill-rule:evenodd; clip-rule:evenodd"
viewBox="0 0 16.02 15.74"
 xmlns:xlink="http://www.w3.org/1999/xlink"
 xmlns:xodm="http://www.corel.com/coreldraw/odm/2003">
 <defs>
  <style type="text/css">
   <![CDATA[
    .fil3 {fill:#7932C0;fill-rule:nonzero}
    .fil4 {fill:#E6E4F5;fill-rule:nonzero}
    .fil2 {fill:white;fill-rule:nonzero}
    .fil1 {fill:white;fill-rule:nonzero}
    .fil5 {fill:white;fill-rule:nonzero}
    .fil0 {fill:#FEA92F;fill-opacity:0.341176}
   ]]>
  </style>
 </defs>
 <g id="Layer_x0020_1">
  <metadata id="CorelCorpID_0Corel-Layer"/>
  <path class="fil0" d="M8.01 0.48c-4.42,0 -8.01,3.42 -8.01,7.63 0,4.22 3.59,7.63 8.01,7.63 4.42,0 8.01,-3.42 8.01,-7.63 0,-4.22 -3.59,-7.63 -8.01,-7.63z"/>
  <path class="fil1" d="M10.58 0.19c-0.21,0 -5.75,0 -5.96,0 -0.75,0 -1.33,0.61 -1.33,1.33 0,0.56 0,10.89 0,12.62 0,0.75 0.61,1.33 1.33,1.33 0.21,0 5.75,0 5.96,0 0.75,0 1.33,-0.61 1.33,-1.33 0,-0.21 0,-12.44 0,-12.62 0,-0.75 -0.59,-1.33 -1.33,-1.33z"/>
  <path class="fil2" d="M10.21 1.17l-1.28 0 0 0.05c0,0.24 -0.19,0.43 -0.43,0.43l-1.78 0c-0.24,0 -0.43,-0.19 -0.43,-0.43l0 -0.05 -1.28 0c-0.4,0 -0.72,0.32 -0.72,0.72 0,0.69 0,11.21 0,11.9 0,0.4 0.32,0.72 0.72,0.72l5.25 0c0.4,0 0.72,-0.32 0.72,-0.72 0,-4.21 0,-7.72 0,-11.9 -0.08,-0.4 -0.4,-0.72 -0.77,-0.72z"/>
  <path class="fil2" d="M15.08 2.18c0.45,0 0.83,0.37 0.83,0.83 0,0.45 -0.37,0.83 -0.83,0.83 -0.45,0 -0.83,-0.37 -0.83,-0.83 0,-0.45 0.35,-0.83 0.83,-0.83z"/>
  <path class="fil2" d="M10.29 8.17c0,-0.4 0,-2.69 0,-3.04 0,-0.37 0.27,-0.69 0.61,-0.8 0.51,-0.13 1.01,0.27 1.01,0.8l0 2.32 3.67 0 0 2.72c0,1.78 -1.46,3.25 -3.25,3.25 -1.78,0 -3.25,-1.46 -3.25,-3.25l0 -1.44c0,-0.32 0.24,-0.56 0.56,-0.56l0.64 0 0 0z"/>
  <path class="fil3" d="M15 14.01c0.13,0 0.24,0.11 0.24,0.24 0,0.13 -0.11,0.24 -0.24,0.24 -0.13,0 -0.24,-0.11 -0.24,-0.24 0,-0.13 0.11,-0.24 0.24,-0.24z"/>
  <path class="fil3" d="M13.75 5.01c0.13,0 0.24,0.11 0.24,0.24 0,0.13 -0.11,0.24 -0.24,0.24 -0.13,0 -0.24,-0.11 -0.24,-0.24 0,-0.13 0.11,-0.24 0.24,-0.24z"/>
  <path class="fil3" d="M12.82 0.69c0.13,0 0.24,0.11 0.24,0.24 0,0.13 -0.11,0.24 -0.24,0.24 -0.13,0 -0.24,-0.11 -0.24,-0.24 0,-0.13 0.11,-0.24 0.24,-0.24z"/>
  <path class="fil4" d="M7.41 2.85c1.2,0 2.16,0.96 2.16,2.16 0,1.2 -0.96,2.16 -2.16,2.16 -1.2,0 -2.16,-0.96 -2.16,-2.16 0,-1.2 0.96,-2.16 2.16,-2.16z"/>
  <path class="fil3" d="M7.97 4.29c0.03,0.08 0.05,0.16 0.05,0.27 0,0.11 -0.03,0.19 -0.08,0.27 -0.05,0.08 -0.11,0.13 -0.19,0.19 -0.05,0.03 -0.08,0.05 -0.13,0.08 -0.05,0.03 -0.08,0.05 -0.11,0.05 -0.03,0.03 -0.05,0.05 -0.08,0.08 -0.03,0.03 -0.03,0.05 -0.03,0.11l-0.37 0c0,-0.05 0,-0.08 0,-0.13 0,-0.05 0.03,-0.08 0.03,-0.11 0.03,-0.03 0.03,-0.08 0.08,-0.11 0.05,-0.03 0.08,-0.05 0.13,-0.08 0.03,-0.03 0.05,-0.03 0.11,-0.05 0.05,-0.03 0.08,-0.05 0.13,-0.08 0.03,-0.03 0.08,-0.05 0.11,-0.11 0.03,-0.03 0.05,-0.08 0.05,-0.13 0,-0.05 -0.03,-0.11 -0.08,-0.16 -0.05,-0.03 -0.11,-0.05 -0.16,-0.05 -0.03,0 -0.08,0 -0.11,0.03 -0.03,0.03 -0.05,0.03 -0.08,0.05 -0.03,0.03 -0.05,0.05 -0.05,0.08 -0.03,0.03 -0.03,0.05 -0.05,0.05l-0.29 -0.21c0.05,-0.11 0.13,-0.21 0.24,-0.27 0.11,-0.05 0.24,-0.11 0.37,-0.11 0.08,0 0.13,0 0.21,0.03 0.08,0.03 0.13,0.05 0.19,0.11 0.03,0.08 0.05,0.13 0.11,0.21z"/>
  <polygon class="fil3" points="7.04,6.02 7.41,6.02 7.41,5.59 7.04,5.59 "/>
  <path class="fil3" d="M2.35 10.17c0.13,0 0.24,0.11 0.24,0.24 0,0.13 -0.11,0.24 -0.24,0.24 -0.13,0 -0.24,-0.11 -0.24,-0.24 0,-0.13 0.11,-0.24 0.24,-0.24z"/>
  <path class="fil5" d="M1.93 12.17c0.27,0 0.51,0.21 0.51,0.51 0,0.29 -0.21,0.51 -0.51,0.51 -0.29,0 -0.51,-0.21 -0.51,-0.51 0,-0.29 0.24,-0.51 0.51,-0.51z"/>
  <path class="fil3" d="M1.85 2.34c0.13,0 0.24,0.11 0.24,0.24 0,0.13 -0.11,0.24 -0.24,0.24 -0.13,0 -0.24,-0.11 -0.24,-0.24 0,-0.13 0.11,-0.24 0.24,-0.24z"/>
  <path class="fil3" d="M10.21 14.65l-5.25 0c-0.48,0 -0.88,-0.4 -0.88,-0.88l0 -11.88c0,-0.48 0.4,-0.88 0.88,-0.88l1.28 0c0.08,0 0.16,0.08 0.16,0.16l0 0.05c0,0.16 0.13,0.27 0.27,0.27l1.78 0c0.16,0 0.27,-0.13 0.27,-0.27l0 -0.05c0,-0.08 0.08,-0.16 0.16,-0.16l1.28 0c0.48,0 0.88,0.4 0.88,0.88l0 2.48c0,0.08 -0.08,0.16 -0.16,0.16 -0.08,0 -0.16,-0.08 -0.16,-0.16l0 -2.48c0,-0.29 -0.24,-0.53 -0.53,-0.53l-1.12 0c-0.05,0.29 -0.29,0.51 -0.59,0.51l-1.78 0c-0.29,0 -0.53,-0.21 -0.59,-0.51l-1.14 0c-0.29,0 -0.53,0.24 -0.53,0.53l0 11.9c0,0.29 0.24,0.53 0.53,0.53l5.25 0c0.29,0 0.53,-0.24 0.53,-0.53l0 -0.69c0,-0.08 0.08,-0.16 0.16,-0.16 0.08,0 0.16,0.08 0.16,0.16l0 0.69c0.03,0.48 -0.37,0.85 -0.85,0.85z"/>
  <path class="fil3" d="M10.55 15.66l-5.96 0c-0.83,0 -1.52,-0.67 -1.52,-1.52l0 -12.62c0,-0.83 0.67,-1.52 1.52,-1.52l5.96 0c0.83,0 1.52,0.67 1.52,1.52l0 4.66c0,0.08 -0.08,0.16 -0.16,0.16l0 0c-0.08,0 -0.16,-0.08 -0.16,-0.16l0 -4.66c0,-0.64 -0.53,-1.17 -1.17,-1.17l-5.99 0c-0.64,0 -1.17,0.53 -1.17,1.17l0 12.62c0,0.64 0.53,1.17 1.17,1.17l5.96 0c0.64,0 1.17,-0.53 1.17,-1.17l0 -0.75c0,-0.08 0.08,-0.16 0.16,-0.16l0 0c0.08,0 0.16,0.08 0.16,0.16l0 0.75c0.03,0.83 -0.64,1.52 -1.49,1.52z"/>
  <path class="fil3" d="M10.29 10.04c-0.08,0 -0.16,-0.08 -0.16,-0.16l0 -1.68c0,-0.08 0.08,-0.16 0.16,-0.16 0.08,0 0.16,0.08 0.16,0.16l0 1.68c0.03,0.08 -0.05,0.16 -0.16,0.16z"/>
  <path class="fil3" d="M11.91 11.42c-0.08,0 -0.16,-0.08 -0.16,-0.16l0 -2.72c0,-0.08 0.08,-0.16 0.16,-0.16 0.08,0 0.16,0.08 0.16,0.16l0 2.72c0.03,0.08 -0.05,0.16 -0.16,0.16z"/>
  <path class="fil3" d="M13 11.42c-0.08,0 -0.16,-0.08 -0.16,-0.16l0 -2.18c0,-0.08 0.08,-0.16 0.16,-0.16 0.08,0 0.16,0.08 0.16,0.16l0 2.18c0,0.08 -0.05,0.16 -0.16,0.16z"/>
  <path class="fil3" d="M14.1 11.42c-0.08,0 -0.16,-0.08 -0.16,-0.16l0 -1.62c0,-0.08 0.08,-0.16 0.16,-0.16 0.08,0 0.16,0.08 0.16,0.16l0 1.62c0,0.08 -0.08,0.16 -0.16,0.16z"/>
  <path class="fil3" d="M9.65 8.36c-0.21,0 -0.4,0.19 -0.4,0.4l0 1.44c0,0.83 0.32,1.6 0.91,2.18 0.24,0.24 0.53,0.45 0.83,0.59 0.29,0.13 0.61,0.24 0.96,0.29 0.13,0.03 0.27,0.03 0.4,0.03 1.7,0 3.09,-1.38 3.09,-3.09l0 -2.56 -3.51 0c-0.08,0 -0.16,-0.08 -0.16,-0.16l0 -2.32c0,-0.19 -0.05,-0.35 -0.19,-0.45 -0.11,-0.13 -0.29,-0.19 -0.45,-0.19 -0.05,0 -0.11,0 -0.16,0.03 -0.29,0.08 -0.48,0.32 -0.48,0.64l0 3.04c0,0.08 -0.08,0.16 -0.16,0.16l-0.67 -0.03 0 0zm2.69 5.22c-0.16,0 -0.29,0 -0.45,-0.03 -0.37,-0.05 -0.72,-0.16 -1.04,-0.32 -0.35,-0.16 -0.67,-0.4 -0.93,-0.67 -0.64,-0.64 -1.01,-1.49 -1.01,-2.42l0 -1.44c0,-0.4 0.32,-0.72 0.72,-0.72l0.51 0 0 -2.85c0,-0.45 0.29,-0.85 0.75,-0.96 0.08,-0.03 0.16,-0.03 0.24,-0.03 0.27,0 0.51,0.11 0.69,0.29 0.19,0.19 0.29,0.43 0.29,0.69l0 2.13 3.49 0c0.08,0 0.16,0.08 0.16,0.16l0 2.72c0,1.92 -1.54,3.44 -3.41,3.44z"/>
  <path class="fil3" d="M7.41 3.01c-1.09,0 -2,0.91 -2,2 0,1.09 0.91,2 2,2 1.09,0 2,-0.91 2,-2 0,-1.09 -0.91,-2 -2,-2zm0 4.31c-1.28,0 -2.34,-1.04 -2.34,-2.34 0,-1.3 1.04,-2.34 2.34,-2.34 1.3,0 2.34,1.04 2.34,2.34 0,1.3 -1.07,2.34 -2.34,2.34z"/>
  <path class="fil3" d="M1.93 12.33c-0.19,0 -0.35,0.16 -0.35,0.35 0,0.19 0.16,0.35 0.35,0.35 0.19,0 0.35,-0.16 0.35,-0.35 0,-0.19 -0.16,-0.35 -0.35,-0.35zm0 0.99c-0.37,0 -0.67,-0.29 -0.67,-0.67 0,-0.37 0.29,-0.67 0.67,-0.67 0.37,0 0.67,0.29 0.67,0.67 0,0.37 -0.29,0.67 -0.67,0.67z"/>
  <path class="fil3" d="M8.24 12.83l-3.99 0c-0.08,0 -0.16,-0.08 -0.16,-0.16 0,-0.08 0.08,-0.16 0.16,-0.16l3.99 0c0.08,0 0.16,0.08 0.16,0.16 0,0.08 -0.05,0.16 -0.16,0.16z"/>
 </g>
</svg>
