<?xml version="1.0" encoding="UTF-8"?>
<!DOCTYPE svg PUBLIC "-//W3C//DTD SVG 1.1//EN" "http://www.w3.org/Graphics/SVG/1.1/DTD/svg11.dtd">
<!-- Creator: CorelDRAW 2021 (64-Bit) -->
<svg xmlns="http://www.w3.org/2000/svg" xml:space="preserve" width="0.842264in" height="0.859669in" version="1.1" style="shape-rendering:geometricPrecision; text-rendering:geometricPrecision; image-rendering:optimizeQuality; fill-rule:evenodd; clip-rule:evenodd"
viewBox="0 0 15.58 15.9"
 xmlns:xlink="http://www.w3.org/1999/xlink"
 xmlns:xodm="http://www.corel.com/coreldraw/odm/2003">
 <defs>
  <style type="text/css">
   <![CDATA[
    .fil3 {fill:#7932C0;fill-rule:nonzero}
    .fil1 {fill:#CCCCFF;fill-rule:nonzero}
    .fil2 {fill:white;fill-rule:nonzero}
    .fil0 {fill:#FEA92F;fill-opacity:0.341176}
   ]]>
  </style>
 </defs>
 <g id="Layer_x0020_1">
  <metadata id="CorelCorpID_0Corel-Layer"/>
  <path class="fil0" d="M7.79 1.05c-4.3,0 -7.79,3.32 -7.79,7.42 0,4.1 3.49,7.42 7.79,7.42 4.3,0 7.79,-3.32 7.79,-7.42 0,-4.1 -3.49,-7.42 -7.79,-7.42z"/>
  <path class="fil1" d="M13.76 4.51l0 9.66c0,0.49 -0.39,0.88 -0.88,0.88 -0.39,0 -10.8,0 -10.88,0 -0.49,0 -0.88,-0.39 -0.88,-0.88l0 -9.66c0.65,0 12.2,0 12.64,0z"/>
  <path class="fil2" d="M12.47 5.8l0 7.93c-0.6,0 -10.02,0 -10.05,0l0 -7.93 10.05 0z"/>
  <path class="fil2" d="M8.89 6.63l0 1.94c0,0 -2.59,0 -2.93,0l0 -1.94 2.93 0z"/>
  <path class="fil3" d="M14.49 2.25c0.13,0 0.23,0.1 0.23,0.23 0,0.13 -0.1,0.23 -0.23,0.23 -0.13,0 -0.23,-0.1 -0.23,-0.23 0,-0.13 0.1,-0.23 0.23,-0.23z"/>
  <polygon class="fil2" points="6.3,4.53 13.76,4.53 13.76,3.55 6.3,3.55 "/>
  <path class="fil2" d="M13.76 3.44l0 0.1 -7.46 0 0 -0.98 6.58 0c0.49,0 0.88,0.39 0.88,0.88z"/>
  <path class="fil2" d="M11.9 0.16c0.41,0 0.73,0.34 0.73,0.73 0,0.41 -0.34,0.73 -0.73,0.73 -0.39,0 -0.73,-0.34 -0.73,-0.73 0,-0.41 0.31,-0.73 0.73,-0.73z"/>
  <polygon class="fil2" points="8.89,8.57 11.64,8.57 11.64,6.63 8.89,6.63 "/>
  <path class="fil2" d="M10.66 13.75c-0.44,0.78 -1.27,1.3 -2.23,1.3 -0.73,0 -1.35,-0.28 -1.84,-0.75 -0.16,-0.16 -0.31,-0.34 -0.41,-0.54 -0.21,-0.39 -0.34,-0.83 -0.34,-1.3l0 -1.14c0,-0.23 0.21,-0.44 0.44,-0.44l0.52 0 0 -2.41c0,-0.36 0.28,-0.65 0.65,-0.65 0.18,0 0.34,0.08 0.47,0.18 0.1,0.13 0.18,0.28 0.18,0.47l0 1.84 2.93 0 0 2.15c-0.03,0.47 -0.13,0.91 -0.36,1.3z"/>
  <path class="fil3" d="M9.62 0.96c0.13,0 0.23,0.1 0.23,0.23 0,0.13 -0.1,0.23 -0.23,0.23 -0.13,0 -0.23,-0.1 -0.23,-0.23 0,-0.13 0.1,-0.23 0.23,-0.23z"/>
  <path class="fil3" d="M6.72 1.61c0.13,0 0.23,0.1 0.23,0.23 0,0.13 -0.1,0.23 -0.23,0.23 -0.13,0 -0.23,-0.1 -0.23,-0.23 0,-0.13 0.1,-0.23 0.23,-0.23z"/>
  <path class="fil2" d="M6.3 4.51l-5.18 0 0 -1.06c0,-0.49 0.39,-0.88 0.88,-0.88l4.3 0c0,0.23 0,1.71 0,1.94z"/>
  <polygon class="fil2" points="3.22,8.57 5.97,8.57 5.97,6.63 3.22,6.63 "/>
  <path class="fil3" d="M5.09 0.65c0.13,0 0.23,0.1 0.23,0.23 0,0.13 -0.1,0.23 -0.23,0.23 -0.13,0 -0.23,-0.1 -0.23,-0.23 0,-0.13 0.1,-0.23 0.23,-0.23z"/>
  <path class="fil3" d="M4.36 3.21c0.18,0 0.34,0.16 0.34,0.34 0,0.18 -0.16,0.34 -0.34,0.34 -0.18,0 -0.34,-0.16 -0.34,-0.34 0,-0.18 0.16,-0.34 0.34,-0.34z"/>
  <path class="fil3" d="M3.4 3.21c0.18,0 0.34,0.16 0.34,0.34 0,0.18 -0.16,0.34 -0.34,0.34 -0.18,0 -0.34,-0.16 -0.34,-0.34 0,-0.18 0.16,-0.34 0.34,-0.34z"/>
  <path class="fil2" d="M2.91 0.8c0.26,0 0.49,0.21 0.49,0.49 0,0.26 -0.21,0.49 -0.49,0.49 -0.28,0 -0.49,-0.21 -0.49,-0.49 0,-0.29 0.23,-0.49 0.49,-0.49z"/>
  <path class="fil3" d="M2.42 3.21c0.18,0 0.34,0.16 0.34,0.34 0,0.18 -0.16,0.34 -0.34,0.34 -0.18,0 -0.34,-0.16 -0.34,-0.34 0,-0.18 0.16,-0.34 0.34,-0.34z"/>
  <path class="fil3" d="M0.55 2.25c0.13,0 0.23,0.1 0.23,0.23 0,0.13 -0.1,0.23 -0.23,0.23 -0.13,0 -0.23,-0.1 -0.23,-0.23 0,-0.13 0.1,-0.23 0.23,-0.23z"/>
  <path class="fil3" d="M13.76 4.69l-12.64 0c-0.08,0 -0.16,-0.08 -0.16,-0.16 0,-0.08 0.08,-0.16 0.16,-0.16l12.64 0c0.08,0 0.16,0.08 0.16,0.16 0,0.08 -0.08,0.16 -0.16,0.16z"/>
  <path class="fil3" d="M13.76 3.7l-7.46 0c-0.08,0 -0.16,-0.08 -0.16,-0.16 0,-0.08 0.08,-0.16 0.16,-0.16l7.46 0c0.08,0 0.16,0.08 0.16,0.16 0,0.08 -0.08,0.16 -0.16,0.16z"/>
  <path class="fil3" d="M2.91 0.96c-0.18,0 -0.34,0.16 -0.34,0.34 0,0.18 0.16,0.34 0.34,0.34 0.18,0 0.34,-0.16 0.34,-0.34 -0.03,-0.21 -0.16,-0.34 -0.34,-0.34zm0 0.96c-0.36,0 -0.65,-0.28 -0.65,-0.65 0,-0.36 0.28,-0.65 0.65,-0.65 0.36,0 0.65,0.28 0.65,0.65 0,0.36 -0.28,0.65 -0.65,0.65z"/>
  <path class="fil3" d="M11.9 0.31c-0.31,0 -0.57,0.26 -0.57,0.57 0,0.31 0.26,0.57 0.57,0.57 0.31,0 0.57,-0.26 0.57,-0.57 0,-0.31 -0.26,-0.57 -0.57,-0.57zm0 1.45c-0.49,0 -0.88,-0.39 -0.88,-0.88 0,-0.49 0.39,-0.88 0.88,-0.88 0.49,0 0.88,0.39 0.88,0.88 0,0.49 -0.39,0.88 -0.88,0.88z"/>
  <path class="fil3" d="M6.3 4.69c-0.08,0 -0.16,-0.08 -0.16,-0.16l0 -1.94c0,-0.08 0.08,-0.16 0.16,-0.16 0.08,0 0.16,0.08 0.16,0.16l0 1.94c0,0.08 -0.05,0.16 -0.16,0.16z"/>
  <path class="fil3" d="M2 2.75c-0.39,0 -0.72,0.31 -0.72,0.73l0 10.72c0,0.39 0.31,0.73 0.72,0.73l10.88 0c0.39,0 0.73,-0.31 0.73,-0.73l0 -10.75c0,-0.39 -0.31,-0.73 -0.73,-0.73l-10.88 0 0 0.03zm10.88 12.46l-10.88 0c-0.57,0 -1.04,-0.47 -1.04,-1.04l0 -10.72c0,-0.57 0.47,-1.04 1.04,-1.04l10.88 0c0.57,0 1.04,0.47 1.04,1.04l0 10.72c0,0.57 -0.47,1.04 -1.04,1.04z"/>
  <path class="fil3" d="M12.47 13.91l-1.81 0c-0.08,0 -0.16,-0.08 -0.16,-0.16 0,-0.08 0.08,-0.16 0.16,-0.16l1.63 0 0 -7.62 -9.71 0 0 7.62 3.6 0c0.08,0 0.16,0.08 0.16,0.16 0,0.08 -0.08,0.16 -0.16,0.16l-3.76 0c-0.08,0 -0.16,-0.08 -0.16,-0.16l0 -7.95c0,-0.08 0.08,-0.16 0.16,-0.16l10.05 0c0.08,0 0.16,0.08 0.16,0.16l0 7.93c0,0.1 -0.08,0.18 -0.16,0.18z"/>
  <path class="fil3" d="M5.99 8.73l-2.77 0c-0.08,0 -0.16,-0.08 -0.16,-0.16l0 -1.94c0,-0.08 0.08,-0.16 0.16,-0.16l2.75 0c0.08,0 0.16,0.08 0.16,0.16 0,0.08 -0.08,0.16 -0.16,0.16l-2.59 0 0 1.63 2.59 0c0.08,0 0.16,0.08 0.16,0.16 0,0.08 -0.05,0.16 -0.13,0.16z"/>
  <path class="fil3" d="M8.89 8.73l-0.8 0c-0.08,0 -0.16,-0.08 -0.16,-0.16 0,-0.08 0.08,-0.16 0.16,-0.16l0.8 0c0.08,0 0.16,0.08 0.16,0.16 0,0.08 -0.05,0.16 -0.16,0.16z"/>
  <path class="fil3" d="M6.8 8.73l-0.8 0c-0.08,0 -0.16,-0.08 -0.16,-0.16l0 -1.94c0,-0.08 0.08,-0.16 0.16,-0.16l2.93 0c0.08,0 0.16,0.08 0.16,0.16 0,0.08 -0.08,0.16 -0.16,0.16l-2.77 0 0 1.63 0.65 0c0.08,0 0.16,0.08 0.16,0.16 0,0.08 -0.08,0.16 -0.16,0.16z"/>
  <path class="fil3" d="M9.05 8.39l2.43 0 0 -1.63 -2.43 0 0 1.63zm2.59 0.34l-2.75 0c-0.08,0 -0.16,-0.08 -0.16,-0.16l0 -1.94c0,-0.08 0.08,-0.16 0.16,-0.16l2.75 0c0.08,0 0.16,0.08 0.16,0.16l0 1.94c0.03,0.08 -0.05,0.16 -0.16,0.16z"/>
  <path class="fil3" d="M6.8 12.35c-0.08,0 -0.16,-0.08 -0.16,-0.16l0 -1.32c0,-0.08 0.08,-0.16 0.16,-0.16 0.08,0 0.16,0.08 0.16,0.16l0 1.32c0,0.1 -0.05,0.16 -0.16,0.16z"/>
  <path class="fil3" d="M8.09 13.47c-0.08,0 -0.16,-0.08 -0.16,-0.16l0 -2.15c0,-0.08 0.08,-0.16 0.16,-0.16 0.08,0 0.16,0.08 0.16,0.16l0 2.15c0,0.08 -0.05,0.16 -0.16,0.16z"/>
  <path class="fil3" d="M8.95 13.47c-0.08,0 -0.16,-0.08 -0.16,-0.16l0 -1.74c0,-0.08 0.08,-0.16 0.16,-0.16 0.08,0 0.16,0.08 0.16,0.16l0 1.74c0.03,0.08 -0.05,0.16 -0.16,0.16z"/>
  <path class="fil3" d="M9.83 13.47c-0.08,0 -0.16,-0.08 -0.16,-0.16l0 -1.3c0,-0.08 0.08,-0.16 0.16,-0.16 0.08,0 0.16,0.08 0.16,0.16l0 1.3c0,0.08 -0.08,0.16 -0.16,0.16z"/>
  <path class="fil3" d="M6.28 11.03c-0.16,0 -0.28,0.13 -0.28,0.28l0 1.14c0,0.41 0.1,0.83 0.31,1.22 0.1,0.18 0.23,0.36 0.39,0.49 0.47,0.47 1.06,0.7 1.71,0.7 0.85,0 1.66,-0.47 2.1,-1.22 0.21,-0.36 0.31,-0.78 0.31,-1.22l0 -1.99 -2.72 0c-0.08,0 -0.16,-0.08 -0.16,-0.16l0 -1.84c0,-0.13 -0.05,-0.26 -0.13,-0.34 -0.08,-0.1 -0.21,-0.13 -0.34,-0.13 -0.26,0 -0.49,0.21 -0.49,0.49l0 2.41c0,0.08 -0.08,0.16 -0.16,0.16l-0.54 0 0 0zm2.15 4.17c-0.73,0 -1.42,-0.28 -1.94,-0.8 -0.18,-0.18 -0.31,-0.36 -0.44,-0.57 -0.23,-0.41 -0.36,-0.88 -0.36,-1.37l0 -1.14c0,-0.34 0.26,-0.6 0.6,-0.6l0.36 0 0 -2.25c0,-0.44 0.36,-0.8 0.8,-0.8 0.21,0 0.41,0.08 0.57,0.23 0.16,0.16 0.23,0.36 0.23,0.57l0 1.68 2.75 0c0.08,0 0.16,0.08 0.16,0.16l0 2.15c0,0.49 -0.13,0.96 -0.36,1.37 -0.47,0.83 -1.4,1.37 -2.36,1.37z"/>
 </g>
</svg>
