<?xml version="1.0" encoding="UTF-8"?>
<!DOCTYPE svg PUBLIC "-//W3C//DTD SVG 1.1//EN" "http://www.w3.org/Graphics/SVG/1.1/DTD/svg11.dtd">
<!-- Creator: CorelDRAW 2021 (64-Bit) -->
<svg xmlns="http://www.w3.org/2000/svg" xml:space="preserve" width="0.842264in" height="0.802701in" version="1.1" style="shape-rendering:geometricPrecision; text-rendering:geometricPrecision; image-rendering:optimizeQuality; fill-rule:evenodd; clip-rule:evenodd"
viewBox="0 0 14.01 13.35"
 xmlns:xlink="http://www.w3.org/1999/xlink"
 xmlns:xodm="http://www.corel.com/coreldraw/odm/2003">
 <defs>
  <style type="text/css">
   <![CDATA[
    .fil2 {fill:#7932C0;fill-rule:nonzero}
    .fil4 {fill:#CCCCFF;fill-rule:nonzero}
    .fil3 {fill:#E6E4F5;fill-rule:nonzero}
    .fil1 {fill:white;fill-rule:nonzero}
    .fil0 {fill:#FEA92F;fill-opacity:0.341176}
   ]]>
  </style>
 </defs>
 <g id="Layer_x0020_1">
  <metadata id="CorelCorpID_0Corel-Layer"/>
  <path class="fil0" d="M7.01 0c-3.87,0 -7.01,2.99 -7.01,6.68 0,3.69 3.14,6.68 7.01,6.68 3.87,0 7.01,-2.99 7.01,-6.68 0,-3.69 -3.14,-6.68 -7.01,-6.68z"/>
  <g id="_1465011112800">
   <path class="fil1" d="M13.26 2.27l0 7.17c0,0.51 -0.42,0.93 -0.93,0.93 -1.12,0 -10.62,0 -10.95,0 -0.51,0 -0.93,-0.42 -0.93,-0.93l0 -7.17c0,-0.51 0.42,-0.93 0.93,-0.93 0.47,0 10.48,0 10.95,0 0.51,0 0.93,0.42 0.93,0.93z"/>
   <path class="fil2" d="M12.74 11.54c0.12,0 0.21,0.09 0.21,0.21 0,0.12 -0.09,0.21 -0.21,0.21 -0.12,0 -0.21,-0.09 -0.21,-0.21 0,-0.12 0.09,-0.21 0.21,-0.21z"/>
   <path class="fil2" d="M12.46 0.03c0.12,0 0.21,0.09 0.21,0.21 0,0.12 -0.09,0.21 -0.21,0.21 -0.12,0 -0.21,-0.09 -0.21,-0.21 0,-0.12 0.09,-0.21 0.21,-0.21z"/>
   <path class="fil3" d="M12.39 8.63l-11.07 0 0 -6.41c0.63,0 10.46,0 11.07,0 0,0.35 0,6.03 0,6.41z"/>
   <path class="fil2" d="M10.86 11.68c0.12,0 0.21,0.09 0.21,0.21 0,0.12 -0.09,0.21 -0.21,0.21 -0.12,0 -0.21,-0.09 -0.21,-0.21 0,-0.12 0.09,-0.21 0.21,-0.21z"/>
   <path class="fil4" d="M9.11 12.26c0.21,0 0.37,0.16 0.37,0.37 0,0.21 -0.16,0.37 -0.37,0.37l-4.52 0c-0.21,0 -0.37,-0.16 -0.37,-0.37 0,-0.21 0.16,-0.37 0.37,-0.37 0.93,0 3.54,0 4.52,0z"/>
   <path class="fil3" d="M9.04 10.38l0 0.16c0,0.3 -0.26,0.56 -0.56,0.56 -0.37,0 -2.82,0 -3.24,0 -0.3,0 -0.56,-0.26 -0.56,-0.56l0 -0.16 4.36 0z"/>
   <polygon class="fil1" points="5.83,12.26 7.88,12.26 7.88,11.1 5.83,11.1 "/>
   <path class="fil2" d="M7.06 9.28c0.05,0.05 0.09,0.12 0.09,0.21 0,0.09 -0.02,0.16 -0.09,0.21 -0.05,0.05 -0.12,0.09 -0.21,0.09 -0.16,0 -0.3,-0.14 -0.3,-0.3 0,-0.07 0.02,-0.16 0.09,-0.21 0.05,-0.05 0.12,-0.09 0.21,-0.09 0.09,0 0.16,0.05 0.21,0.09z"/>
   <path class="fil2" d="M6.48 0.34c0.12,0 0.21,0.09 0.21,0.21 0,0.12 -0.09,0.21 -0.21,0.21 -0.12,0 -0.21,-0.09 -0.21,-0.21 0,-0.12 0.09,-0.21 0.21,-0.21z"/>
   <path class="fil2" d="M3.87 10.82c0.12,0 0.21,0.09 0.21,0.21 0,0.12 -0.09,0.21 -0.21,0.21 -0.12,0 -0.21,-0.09 -0.21,-0.21 0,-0.12 0.09,-0.21 0.21,-0.21z"/>
   <path class="fil1" d="M2.33 11.26c0.48,0 0.86,0.39 0.86,0.86 0,0.48 -0.39,0.86 -0.86,0.86 -0.48,0 -0.86,-0.39 -0.86,-0.86 0,-0.48 0.39,-0.86 0.86,-0.86z"/>
   <path class="fil2" d="M1.98 0.03c0.12,0 0.21,0.09 0.21,0.21 0,0.12 -0.09,0.21 -0.21,0.21 -0.12,0 -0.21,-0.09 -0.21,-0.21 0,-0.12 0.09,-0.21 0.21,-0.21z"/>
   <path class="fil2" d="M0.65 11.24c0.12,0 0.21,0.09 0.21,0.21 0,0.12 -0.09,0.21 -0.21,0.21 -0.12,0 -0.21,-0.09 -0.21,-0.21 0,-0.12 0.09,-0.21 0.21,-0.21z"/>
   <path class="fil2" d="M5.83 11.24l-0.61 0c-0.4,0 -0.72,-0.33 -0.72,-0.72l0 -0.16c0,-0.07 0.07,-0.14 0.14,-0.14 0.07,0 0.14,0.07 0.14,0.14l0 0.16c0,0.23 0.19,0.42 0.42,0.42l0.61 0c0.07,0 0.14,0.07 0.14,0.14 0,0.07 -0.02,0.16 -0.12,0.16z"/>
   <path class="fil2" d="M8.46 11.24l-0.61 0c-0.07,0 -0.14,-0.07 -0.14,-0.14 0,-0.07 0.07,-0.14 0.14,-0.14l0.61 0c0.23,0 0.42,-0.19 0.42,-0.42l0 -0.16c0,-0.07 0.07,-0.14 0.14,-0.14 0.07,0 0.14,0.07 0.14,0.14l0 0.16c0.02,0.37 -0.3,0.7 -0.7,0.7z"/>
   <path class="fil2" d="M7.88 12.4c-0.07,0 -0.14,-0.07 -0.14,-0.14l0 -1.02 -1.75 0 0 1.02c0,0.07 -0.07,0.14 -0.14,0.14 -0.07,0 -0.14,-0.07 -0.14,-0.14l0 -1.16c0,-0.07 0.07,-0.14 0.14,-0.14l2.05 0c0.07,0 0.14,0.07 0.14,0.14l0 1.16c-0.02,0.07 -0.09,0.14 -0.16,0.14z"/>
   <path class="fil2" d="M4.59 12.4c-0.07,0 -0.12,0.02 -0.16,0.07 -0.05,0.05 -0.07,0.09 -0.07,0.16 0,0.12 0.09,0.21 0.21,0.21l4.52 0c0.07,0 0.12,-0.02 0.16,-0.07 0.05,-0.05 0.07,-0.09 0.07,-0.16 0,-0.12 -0.09,-0.21 -0.21,-0.21l-4.52 0 0 0zm4.52 0.72l-4.52 0c-0.28,0 -0.51,-0.23 -0.51,-0.51 0,-0.14 0.05,-0.26 0.14,-0.35 0.09,-0.09 0.23,-0.14 0.35,-0.14l4.52 0c0.28,0 0.51,0.23 0.51,0.51 0,0.14 -0.05,0.26 -0.14,0.35 -0.09,0.09 -0.21,0.14 -0.35,0.14z"/>
   <path class="fil2" d="M2.33 11.38c-0.4,0 -0.72,0.33 -0.72,0.72 0,0.4 0.33,0.72 0.72,0.72 0.4,0 0.72,-0.33 0.72,-0.72 0,-0.4 -0.33,-0.72 -0.72,-0.72zm0 1.75c-0.56,0 -1.02,-0.47 -1.02,-1.03 0,-0.56 0.47,-1.03 1.02,-1.03 0.56,0 1.03,0.47 1.03,1.03 0,0.56 -0.47,1.03 -1.03,1.03z"/>
   <path class="fil2" d="M1.47 8.47l10.79 0 0 -6.1 -10.79 0 0 6.1zm10.93 0.3l-11.07 0c-0.07,0 -0.14,-0.07 -0.14,-0.14l0 -6.41c0,-0.07 0.07,-0.14 0.14,-0.14l11.07 0c0.07,0 0.14,0.07 0.14,0.14l0 6.41c0,0.07 -0.07,0.14 -0.14,0.14z"/>
   <path class="fil2" d="M1.38 1.48c-0.44,0 -0.79,0.35 -0.79,0.79l0 7.17c0,0.44 0.35,0.79 0.79,0.79l10.95 0c0.44,0 0.79,-0.35 0.79,-0.79l0 -7.17c0,-0.44 -0.35,-0.79 -0.79,-0.79l-10.95 0zm10.95 9.04l-10.95 0c-0.61,0 -1.07,-0.49 -1.07,-1.07l0 -7.17c0,-0.61 0.49,-1.07 1.07,-1.07l10.95 0c0.61,0 1.07,0.49 1.07,1.07l0 7.17c0,0.58 -0.47,1.07 -1.07,1.07z"/>
   <path class="fil2" d="M5.99 5.55l-0.72 0c-0.07,0 -0.14,-0.07 -0.14,-0.14 0,-0.07 0.07,-0.14 0.14,-0.14l0.72 0c0.07,0 0.14,0.07 0.14,0.14 0,0.07 -0.07,0.14 -0.14,0.14z"/>
   <path class="fil2" d="M8.6 5.55l-2.05 0c-0.07,0 -0.14,-0.07 -0.14,-0.14 0,-0.07 0.07,-0.14 0.14,-0.14l2.05 0c0.07,0 0.14,0.07 0.14,0.14 0,0.07 -0.07,0.14 -0.14,0.14z"/>
   <path class="fil2" d="M6.57 6.3l-1.3 0c-0.07,0 -0.14,-0.07 -0.14,-0.14 0,-0.07 0.07,-0.14 0.14,-0.14l1.3 0c0.07,0 0.14,0.07 0.14,0.14 0,0.07 -0.07,0.14 -0.14,0.14z"/>
   <path class="fil2" d="M7.43 6.3l-0.3 0c-0.07,0 -0.14,-0.07 -0.14,-0.14 0,-0.07 0.07,-0.14 0.14,-0.14l0.3 0c0.07,0 0.14,0.07 0.14,0.14 0,0.07 -0.07,0.14 -0.14,0.14z"/>
   <path class="fil2" d="M8.46 6.3l-0.44 0c-0.07,0 -0.14,-0.07 -0.14,-0.14 0,-0.07 0.07,-0.14 0.14,-0.14l0.44 0c0.07,0 0.14,0.07 0.14,0.14 0,0.07 -0.07,0.14 -0.14,0.14z"/>
   <path class="fil2" d="M5.69 7.02l-0.44 0c-0.07,0 -0.14,-0.07 -0.14,-0.14 0,-0.07 0.07,-0.14 0.14,-0.14l0.44 0c0.07,0 0.14,0.07 0.14,0.14 0,0.07 -0.07,0.14 -0.14,0.14z"/>
   <path class="fil2" d="M7.29 7.02l-1.03 0c-0.07,0 -0.14,-0.07 -0.14,-0.14 0,-0.07 0.07,-0.14 0.14,-0.14l1.03 0c0.07,0 0.14,0.07 0.14,0.14 0,0.07 -0.07,0.14 -0.14,0.14z"/>
   <path class="fil2" d="M8.46 7.02l-0.58 0c-0.07,0 -0.14,-0.07 -0.14,-0.14 0,-0.07 0.07,-0.14 0.14,-0.14l0.58 0c0.07,0 0.14,0.07 0.14,0.14 0,0.07 -0.07,0.14 -0.14,0.14z"/>
   <path class="fil2" d="M5.83 7.74l-0.58 0c-0.07,0 -0.14,-0.07 -0.14,-0.14 0,-0.07 0.07,-0.14 0.14,-0.14l0.58 0c0.07,0 0.14,0.07 0.14,0.14 0,0.07 -0.05,0.14 -0.14,0.14z"/>
   <path class="fil2" d="M7.74 7.74l-1.3 0c-0.07,0 -0.14,-0.07 -0.14,-0.14 0,-0.07 0.07,-0.14 0.14,-0.14l1.3 0c0.07,0 0.14,0.07 0.14,0.14 0,0.07 -0.07,0.14 -0.14,0.14z"/>
   <path class="fil2" d="M5.97 4.69c-0.02,0 -0.07,0 -0.09,-0.02l-0.72 -0.58c-0.02,-0.02 -0.05,-0.07 -0.05,-0.12 0,-0.05 0.02,-0.09 0.05,-0.12l0.72 -0.58c0.07,-0.05 0.16,-0.05 0.21,0.02 0.05,0.07 0.05,0.16 -0.02,0.21l-0.58 0.47 0.58 0.47c0.07,0.05 0.07,0.14 0.02,0.21 -0.02,0.02 -0.07,0.05 -0.12,0.05z"/>
   <path class="fil2" d="M7.74 4.69c-0.05,0 -0.09,-0.02 -0.12,-0.05 -0.05,-0.07 -0.05,-0.16 0.02,-0.21l0.58 -0.47 -0.58 -0.47c-0.07,-0.05 -0.07,-0.14 -0.02,-0.21 0.05,-0.07 0.14,-0.07 0.21,-0.02l0.72 0.58c0.02,0.02 0.05,0.07 0.05,0.12 0,0.05 -0.02,0.09 -0.05,0.12l-0.72 0.58c-0.05,0 -0.07,0.02 -0.09,0.02z"/>
   <path class="fil2" d="M6.55 4.55c-0.02,0 -0.05,0 -0.07,-0.02 -0.07,-0.05 -0.09,-0.14 -0.05,-0.21l0.58 -1.02c0.05,-0.07 0.14,-0.09 0.21,-0.05 0.07,0.05 0.09,0.14 0.05,0.21l-0.58 1.02c-0.02,0.02 -0.07,0.07 -0.14,0.07z"/>
  </g>
 </g>
</svg>
