<?xml version="1.0" encoding="UTF-8"?>
<!DOCTYPE svg PUBLIC "-//W3C//DTD SVG 1.1//EN" "http://www.w3.org/Graphics/SVG/1.1/DTD/svg11.dtd">
<!-- Creator: CorelDRAW 2021 (64-Bit) -->
<svg xmlns="http://www.w3.org/2000/svg" xml:space="preserve" width="0.842264in" height="0.802701in" version="1.1" style="shape-rendering:geometricPrecision; text-rendering:geometricPrecision; image-rendering:optimizeQuality; fill-rule:evenodd; clip-rule:evenodd"
viewBox="0 0 12.75 12.15"
 xmlns:xlink="http://www.w3.org/1999/xlink"
 xmlns:xodm="http://www.corel.com/coreldraw/odm/2003">
 <defs>
  <style type="text/css">
   <![CDATA[
    .fil3 {fill:#7932C0;fill-rule:nonzero}
    .fil1 {fill:#E6E4F5;fill-rule:nonzero}
    .fil2 {fill:white;fill-rule:nonzero}
    .fil0 {fill:#FEA92F;fill-opacity:0.341176}
   ]]>
  </style>
 </defs>
 <g id="Layer_x0020_1">
  <metadata id="CorelCorpID_0Corel-Layer"/>
  <path class="fil0" d="M6.37 0c-3.52,0 -6.37,2.72 -6.37,6.07 0,3.35 2.85,6.07 6.37,6.07 3.52,0 6.37,-2.72 6.37,-6.07 0,-3.35 -2.85,-6.07 -6.37,-6.07z"/>
  <path class="fil1" d="M10.96 5.3c0.36,0 0.66,0.3 0.66,0.66 0,0.36 -0.3,0.66 -0.66,0.66 -0.36,0 -0.66,-0.3 -0.66,-0.66 -0.02,-0.36 0.28,-0.66 0.66,-0.66z"/>
  <path class="fil1" d="M0.89 8.73c0.36,0 0.66,0.3 0.66,0.66 0,0.36 -0.3,0.66 -0.66,0.66 -0.36,0 -0.66,-0.3 -0.66,-0.66 0,-0.36 0.28,-0.66 0.66,-0.66z"/>
  <path class="fil2" d="M8.93 3.29c0,-0.36 -0.3,-0.66 -0.66,-0.66 -0.36,0 -0.66,0.3 -0.66,0.66 0,0.36 0.3,0.66 0.66,0.66 0.36,0 0.66,-0.3 0.66,-0.66zm-0.66 -1.23c0.68,0 1.23,0.55 1.23,1.23 0,0.68 -0.55,1.23 -1.23,1.23 -0.68,0 -1.23,-0.55 -1.23,-1.23 0,-0.68 0.55,-1.23 1.23,-1.23z"/>
  <path class="fil1" d="M9.5 3.29c0,-0.68 -0.55,-1.23 -1.23,-1.23 -0.68,0 -1.23,0.55 -1.23,1.23 0,0.68 0.55,1.23 1.23,1.23 0.68,0 1.23,-0.55 1.23,-1.23zm1.14 -0.42l0 0.85 -0.53 0.04c-0.04,0.17 -0.11,0.34 -0.21,0.49l0.34 0.4 -0.59 0.59 -0.4 -0.34 0 0c-0.15,0.08 -0.32,0.15 -0.49,0.19l-0.04 0.53 -0.85 0 -0.04 -0.53c-0.17,-0.04 -0.34,-0.11 -0.49,-0.21l-0.4 0.34 -0.61 -0.57 0.34 -0.4c-0.08,-0.15 -0.17,-0.32 -0.21,-0.49l-0.53 -0.04 0 -0.85 0.53 -0.04c0.04,-0.17 0.11,-0.34 0.21,-0.49l-0.34 -0.4 0.59 -0.59 0.4 0.34c0.15,-0.08 0.32,-0.17 0.49,-0.21l0.02 -0.15 0.02 -0.4 0.85 0 0.04 0.53c0.17,0.04 0.34,0.11 0.49,0.21l0.4 -0.34 0.59 0.59 -0.32 0.4c0.08,0.15 0.17,0.32 0.21,0.49l0.53 0.06z"/>
  <path class="fil3" d="M11.02 7.95c0.11,0 0.19,0.09 0.19,0.19 0,0.11 -0.09,0.19 -0.19,0.19 -0.11,0 -0.19,-0.09 -0.19,-0.19 0,-0.11 0.09,-0.19 0.19,-0.19z"/>
  <path class="fil3" d="M10.88 0.94c0.11,0 0.19,0.09 0.19,0.19 0,0.11 -0.09,0.19 -0.19,0.19 -0.11,0 -0.19,-0.09 -0.19,-0.19 0,-0.11 0.09,-0.19 0.19,-0.19z"/>
  <path class="fil3" d="M10.03 11.13c0.11,0 0.19,0.09 0.19,0.19 0,0.11 -0.09,0.19 -0.19,0.19 -0.11,0 -0.19,-0.09 -0.19,-0.19 0,-0.11 0.09,-0.19 0.19,-0.19z"/>
  <polygon class="fil2" points="9.22,9.39 9.22,11.26 4.45,11.26 "/>
  <polygon class="fil1" points="9.22,8.61 9.22,9.39 4.45,11.26 4.45,10.45 "/>
  <path class="fil2" d="M9.22 4.9l0 3.71 -4.77 1.86 0 -1.59 -1.59 0c0,-0.32 0,-2.33 0,-2.65l-1.33 0 0.53 -2.12c0,-1.91 1.53,-3.45 3.45,-3.45l0.28 0c0.76,0 1.46,0.25 2.03,0.66l-0.02 0.15c-0.17,0.04 -0.34,0.11 -0.49,0.21l-0.4 -0.34 -0.59 0.59 0.34 0.38c-0.08,0.15 -0.17,0.32 -0.21,0.49l-0.53 0.04 0 0.85 0.53 0.04c0.04,0.17 0.11,0.34 0.21,0.49l-0.34 0.42 0.59 0.59 0.4 -0.34c0.15,0.08 0.32,0.17 0.49,0.21l0.04 0.53 0.85 0 0.04 -0.53c0.17,-0.06 0.34,-0.13 0.49,-0.21z"/>
  <path class="fil3" d="M3.08 10.6c0.11,0 0.19,0.09 0.19,0.19 0,0.11 -0.09,0.19 -0.19,0.19 -0.11,0 -0.19,-0.09 -0.19,-0.19 0,-0.11 0.09,-0.19 0.19,-0.19z"/>
  <path class="fil3" d="M2.02 0.53c0.11,0 0.19,0.09 0.19,0.19 0,0.11 -0.09,0.19 -0.19,0.19 -0.11,0 -0.19,-0.09 -0.19,-0.19 0,-0.11 0.09,-0.19 0.19,-0.19z"/>
  <path class="fil3" d="M1.74 7.29c0.11,0 0.19,0.09 0.19,0.19 0,0.11 -0.09,0.19 -0.19,0.19 -0.11,0 -0.19,-0.09 -0.19,-0.19 0,-0.11 0.09,-0.19 0.19,-0.19z"/>
  <path class="fil3" d="M0.55 3.71c0.11,0 0.19,0.09 0.19,0.19 0,0.11 -0.09,0.19 -0.19,0.19 -0.11,0 -0.19,-0.09 -0.19,-0.19 0,-0.11 0.09,-0.19 0.19,-0.19z"/>
  <path class="fil3" d="M4.45 11.38c-0.06,0 -0.11,-0.04 -0.13,-0.08 -0.02,-0.06 0,-0.15 0.08,-0.17l4.77 -1.86c0.06,-0.02 0.15,0 0.17,0.08 0.02,0.06 0,0.15 -0.08,0.17l-4.77 1.87c0,0 -0.02,0 -0.04,0z"/>
  <path class="fil3" d="M4.45 10.6c-0.06,0 -0.11,-0.04 -0.13,-0.08 -0.02,-0.06 0,-0.15 0.08,-0.17l4.77 -1.84c0.06,-0.02 0.15,0 0.17,0.08 0.02,0.06 0,0.15 -0.08,0.17l-4.75 1.82c-0.02,0 -0.04,0.02 -0.06,0.02z"/>
  <path class="fil3" d="M0.89 8.86c-0.3,0 -0.53,0.23 -0.53,0.53 0,0.3 0.23,0.53 0.53,0.53 0.3,0 0.53,-0.23 0.53,-0.53 0,-0.28 -0.25,-0.53 -0.53,-0.53zm0 1.34c-0.44,0 -0.81,-0.36 -0.81,-0.81 0,-0.44 0.36,-0.81 0.81,-0.81 0.45,0 0.81,0.36 0.81,0.81 -0.02,0.45 -0.38,0.81 -0.81,0.81z"/>
  <path class="fil3" d="M9.22 11.38l-4.77 0c-0.06,0 -0.13,-0.06 -0.13,-0.13l0 -2.25 -1.46 0c-0.06,0 -0.13,-0.06 -0.13,-0.13l0 -2.52 -1.19 0c-0.04,0 -0.08,-0.02 -0.11,-0.04 -0.02,-0.04 -0.04,-0.06 -0.02,-0.11l0.53 -2.1c0,-0.95 0.38,-1.84 1.04,-2.52 0.68,-0.68 1.57,-1.04 2.54,-1.04l0.28 0c0.76,0 1.5,0.23 2.12,0.68 0.06,0.04 0.06,0.13 0.02,0.19 -0.04,0.06 -0.13,0.06 -0.19,0.02 -0.57,-0.42 -1.25,-0.64 -1.95,-0.64l-0.28 0c-1.82,0 -3.31,1.48 -3.31,3.31 0,0.02 0,0.02 0,0.04l-0.49 1.95 1.14 0c0.06,0 0.13,0.06 0.13,0.13l0 2.52 1.46 0c0.06,0 0.13,0.06 0.13,0.13l0 2.25 4.51 0 0 -6.23c0,-0.06 0.06,-0.13 0.13,-0.13 0.06,0 0.13,0.06 0.13,0.13l0 6.36c0,0.06 -0.06,0.13 -0.15,0.13z"/>
  <path class="fil3" d="M7.97 5.51l0.59 0 0.04 -0.42c0,-0.06 0.04,-0.11 0.11,-0.13 0.15,-0.04 0.32,-0.11 0.44,-0.19 0,0 0,0 0.02,0l0 0c0.04,-0.02 0.11,-0.02 0.15,0.02l0.32 0.28 0.42 -0.42 -0.28 -0.32c-0.04,-0.04 -0.04,-0.11 -0.02,-0.15 0.08,-0.15 0.15,-0.3 0.19,-0.47 0.02,-0.06 0.06,-0.08 0.13,-0.11l0.42 -0.04 0 -0.59 -0.42 -0.04c-0.06,0 -0.11,-0.04 -0.13,-0.11 -0.04,-0.17 -0.11,-0.32 -0.19,-0.47 -0.02,-0.04 -0.02,-0.11 0.02,-0.15l0.28 -0.32 -0.42 -0.42 -0.32 0.28c-0.04,0.04 -0.11,0.04 -0.15,0.02 -0.15,-0.08 -0.3,-0.15 -0.47,-0.19 -0.06,-0.02 -0.08,-0.06 -0.11,-0.13l-0.04 -0.42 -0.59 0 -0.02 0.28 0 0.17c0,0.06 -0.04,0.11 -0.11,0.13 -0.17,0.04 -0.32,0.11 -0.47,0.19 -0.04,0.02 -0.11,0.02 -0.15,-0.02l-0.32 -0.28 -0.42 0.42 0.28 0.32c0.04,0.04 0.04,0.11 0.02,0.15 -0.08,0.15 -0.15,0.3 -0.19,0.47 -0.02,0.06 -0.06,0.08 -0.13,0.11l-0.42 0.04 0 0.59 0.42 0.04c0.06,0 0.11,0.04 0.13,0.11 0.04,0.17 0.11,0.32 0.19,0.47 0.02,0.04 0.02,0.11 -0.02,0.15l-0.28 0.3 0.42 0.42 0.32 -0.28c0.04,-0.04 0.11,-0.04 0.15,-0.02 0.15,0.08 0.3,0.15 0.47,0.19 0.06,0.02 0.08,0.06 0.11,0.13l0.02 0.42zm0.72 0.25l-0.85 0c-0.06,0 -0.13,-0.06 -0.13,-0.13l-0.04 -0.45c-0.13,-0.04 -0.23,-0.08 -0.36,-0.15l-0.34 0.3c-0.04,0.04 -0.13,0.04 -0.17,0l-0.59 -0.59c-0.04,-0.04 -0.04,-0.13 0,-0.17l0.3 -0.34c-0.06,-0.11 -0.11,-0.23 -0.15,-0.36l-0.44 -0.04c-0.06,0 -0.13,-0.06 -0.13,-0.13l0 -0.85c0,-0.06 0.06,-0.13 0.13,-0.13l0.44 -0.04c0.04,-0.13 0.08,-0.23 0.15,-0.36l-0.3 -0.34c-0.04,-0.04 -0.04,-0.13 0,-0.17l0.59 -0.59c0.04,-0.04 0.13,-0.04 0.17,0l0.34 0.3c0.11,-0.06 0.23,-0.11 0.36,-0.15l0.04 -0.44c0,-0.06 0.06,-0.13 0.13,-0.13l0.85 0c0.06,0 0.13,0.06 0.13,0.13l0.04 0.44c0.13,0.04 0.23,0.08 0.36,0.15l0.34 -0.3c0.04,-0.04 0.13,-0.04 0.17,0l0.59 0.59c0.04,0.04 0.04,0.13 0,0.17l-0.28 0.34c0.06,0.11 0.11,0.23 0.15,0.36l0.45 0.04c0.06,0 0.13,0.06 0.13,0.13l0 0.85c0,0.06 -0.06,0.13 -0.13,0.13l-0.45 0.04c-0.04,0.13 -0.08,0.23 -0.15,0.36l0.3 0.34c0.04,0.04 0.04,0.13 0,0.17l-0.59 0.59c-0.04,0.04 -0.13,0.04 -0.17,0l-0.34 -0.3c-0.11,0.06 -0.23,0.11 -0.36,0.15l-0.04 0.45c-0.02,0.08 -0.08,0.13 -0.15,0.13z"/>
  <path class="fil3" d="M8.27 2.19c-0.61,0 -1.1,0.49 -1.1,1.1 0,0.61 0.49,1.1 1.1,1.1 0.61,0 1.1,-0.49 1.1,-1.1 0,-0.61 -0.49,-1.1 -1.1,-1.1zm0 2.46c-0.74,0 -1.36,-0.61 -1.36,-1.36 0,-0.74 0.61,-1.36 1.36,-1.36 0.74,0 1.36,0.61 1.36,1.36 0,0.74 -0.59,1.36 -1.36,1.36z"/>
  <path class="fil3" d="M8.27 2.76c-0.3,0 -0.53,0.23 -0.53,0.53 0,0.3 0.23,0.53 0.53,0.53 0.3,0 0.53,-0.23 0.53,-0.53 0,-0.3 -0.23,-0.53 -0.53,-0.53zm0 1.31c-0.44,0 -0.78,-0.36 -0.78,-0.78 0,-0.44 0.36,-0.78 0.78,-0.78 0.45,0 0.78,0.36 0.78,0.78 0.02,0.42 -0.34,0.78 -0.78,0.78z"/>
  <path class="fil3" d="M10.96 5.43c-0.3,0 -0.53,0.23 -0.53,0.53 0,0.3 0.23,0.53 0.53,0.53 0.3,0 0.53,-0.23 0.53,-0.53 0,-0.3 -0.25,-0.53 -0.53,-0.53zm0 1.31c-0.45,0 -0.81,-0.36 -0.81,-0.81 0,-0.45 0.36,-0.81 0.81,-0.81 0.44,0 0.81,0.36 0.81,0.81 -0.02,0.47 -0.38,0.81 -0.81,0.81z"/>
 </g>
</svg>
