<?xml version="1.0" encoding="UTF-8"?>
<!DOCTYPE svg PUBLIC "-//W3C//DTD SVG 1.1//EN" "http://www.w3.org/Graphics/SVG/1.1/DTD/svg11.dtd">
<!-- Creator: CorelDRAW 2021 (64-Bit) -->
<svg xmlns="http://www.w3.org/2000/svg" xml:space="preserve" width="0.940846in" height="0.824602in" version="1.1" style="shape-rendering:geometricPrecision; text-rendering:geometricPrecision; image-rendering:optimizeQuality; fill-rule:evenodd; clip-rule:evenodd"
viewBox="0 0 17.27 15.13"
 xmlns:xlink="http://www.w3.org/1999/xlink"
 xmlns:xodm="http://www.corel.com/coreldraw/odm/2003">
 <defs>
  <style type="text/css">
   <![CDATA[
    .fil3 {fill:#7932C0;fill-rule:nonzero}
    .fil2 {fill:#E6E4F5;fill-rule:nonzero}
    .fil1 {fill:white;fill-rule:nonzero}
    .fil4 {fill:white;fill-rule:nonzero}
    .fil0 {fill:#FEA92F;fill-opacity:0.341176}
   ]]>
  </style>
 </defs>
 <g id="Layer_x0020_1">
  <metadata id="CorelCorpID_0Corel-Layer"/>
  <path class="fil0" d="M7.73 0c-4.27,0 -7.73,3.3 -7.73,7.37 0,4.07 3.46,7.37 7.73,7.37 4.27,0 7.73,-3.3 7.73,-7.37 0,-4.07 -3.46,-7.37 -7.73,-7.37z"/>
  <g id="_1464916435344">
   <path class="fil1" d="M14.46 2.97l0 7.92c0,0.57 -0.46,1.03 -1.03,1.03 -1.23,0 -11.72,0 -12.08,0 -0.57,0 -1.03,-0.46 -1.03,-1.03l0 -7.92c0,-0.57 0.46,-1.03 1.03,-1.03 0.51,0 11.57,0 12.08,0 0.57,0 1.03,0.46 1.03,1.03z"/>
   <path class="fil2" d="M13.51 9.99l-12.21 0 0 -7.07c0.69,0 11.54,0 12.21,0 0,0.39 0,6.66 0,7.07z"/>
   <polygon class="fil1" points="7.39,9.01 11.58,9.01 11.58,7.73 7.39,7.73 "/>
   <polygon class="fil1" points="7.39,6.93 11.58,6.93 11.58,6.13 7.39,6.13 "/>
   <polygon class="fil1" points="3.53,9.01 6.44,9.01 6.44,6.13 3.53,6.13 "/>
   <polygon class="fil1" points="3.53,5.31 11.58,5.31 11.58,3.87 3.53,3.87 "/>
   <path class="fil1" d="M2.4 12.89c0.53,0 0.95,0.43 0.95,0.95 0,0.53 -0.43,0.95 -0.95,0.95 -0.53,0 -0.95,-0.43 -0.95,-0.95 0,-0.53 0.43,-0.95 0.95,-0.95z"/>
   <path class="fil2" d="M9.88 14c0.23,0 0.41,0.18 0.41,0.41 0,0.23 -0.18,0.41 -0.41,0.41l-4.99 0c-0.23,0 -0.41,-0.18 -0.41,-0.41 0,-0.23 0.18,-0.41 0.41,-0.41 1.03,0 3.91,0 4.99,0z"/>
   <path class="fil2" d="M9.8 11.92l0 0.18c0,0.33 -0.28,0.62 -0.62,0.62 -0.41,0 -3.11,0 -3.57,0 -0.33,0 -0.62,-0.28 -0.62,-0.62l0 -0.18 4.81 0z"/>
   <polygon class="fil1" points="6.26,14 8.52,14 8.52,12.71 6.26,12.71 "/>
   <path class="fil3" d="M13.89 13.2c0.13,0 0.23,0.1 0.23,0.23 0,0.13 -0.1,0.23 -0.23,0.23 -0.13,0 -0.23,-0.1 -0.23,-0.23 0,-0.13 0.1,-0.23 0.23,-0.23z"/>
   <path class="fil3" d="M13.58 0.51c0.13,0 0.23,0.1 0.23,0.23 0,0.13 -0.1,0.23 -0.23,0.23 -0.13,0 -0.23,-0.1 -0.23,-0.23 0,-0.13 0.1,-0.23 0.23,-0.23z"/>
   <path class="fil3" d="M11.81 13.36c0.13,0 0.23,0.1 0.23,0.23 0,0.13 -0.1,0.23 -0.23,0.23 -0.13,0 -0.23,-0.1 -0.23,-0.23 0,-0.13 0.1,-0.23 0.23,-0.23z"/>
   <path class="fil3" d="M7.62 10.71c0.05,0.05 0.1,0.13 0.1,0.23 0,0.1 -0.03,0.18 -0.1,0.23 -0.05,0.05 -0.13,0.1 -0.23,0.1 -0.18,0 -0.33,-0.15 -0.33,-0.33 0,-0.08 0.03,-0.18 0.1,-0.23 0.05,-0.05 0.13,-0.1 0.23,-0.1 0.1,0 0.18,0.05 0.23,0.1z"/>
   <path class="fil3" d="M6.98 0.84c0.13,0 0.23,0.1 0.23,0.23 0,0.13 -0.1,0.23 -0.23,0.23 -0.13,0 -0.23,-0.1 -0.23,-0.23 0,-0.13 0.1,-0.23 0.23,-0.23z"/>
   <path class="fil3" d="M4.1 12.4c0.13,0 0.23,0.1 0.23,0.23 0,0.13 -0.1,0.23 -0.23,0.23 -0.13,0 -0.23,-0.1 -0.23,-0.23 0,-0.13 0.1,-0.23 0.23,-0.23z"/>
   <path class="fil3" d="M2.02 0.51c0.13,0 0.23,0.1 0.23,0.23 0,0.13 -0.1,0.23 -0.23,0.23 -0.13,0 -0.23,-0.1 -0.23,-0.23 0,-0.13 0.1,-0.23 0.23,-0.23z"/>
   <path class="fil3" d="M0.55 12.87c0.13,0 0.23,0.1 0.23,0.23 0,0.13 -0.1,0.23 -0.23,0.23 -0.13,0 -0.23,-0.1 -0.23,-0.23 0,-0.13 0.1,-0.23 0.23,-0.23z"/>
   <path class="fil3" d="M6.26 12.87l-0.67 0c-0.44,0 -0.8,-0.36 -0.8,-0.8l0 -0.18c0,-0.08 0.08,-0.15 0.15,-0.15 0.08,0 0.15,0.08 0.15,0.15l0 0.18c0,0.26 0.21,0.46 0.46,0.46l0.67 0c0.08,0 0.15,0.08 0.15,0.15 0,0.08 -0.03,0.18 -0.13,0.18z"/>
   <path class="fil3" d="M9.16 12.87l-0.67 0c-0.08,0 -0.15,-0.08 -0.15,-0.15 0,-0.08 0.08,-0.15 0.15,-0.15l0.67 0c0.26,0 0.46,-0.21 0.46,-0.46l0 -0.18c0,-0.08 0.08,-0.15 0.15,-0.15 0.08,0 0.15,0.08 0.15,0.15l0 0.18c0.03,0.41 -0.33,0.77 -0.77,0.77z"/>
   <path class="fil3" d="M8.52 14.15c-0.08,0 -0.15,-0.08 -0.15,-0.15l0 -1.13 -1.93 0 0 1.13c0,0.08 -0.08,0.15 -0.15,0.15 -0.08,0 -0.15,-0.08 -0.15,-0.15l0 -1.29c0,-0.08 0.08,-0.15 0.15,-0.15l2.26 0c0.08,0 0.15,0.08 0.15,0.15l0 1.29c-0.03,0.08 -0.1,0.15 -0.18,0.15z"/>
   <path class="fil3" d="M4.9 14.15c-0.08,0 -0.13,0.03 -0.18,0.08 -0.05,0.05 -0.08,0.1 -0.08,0.18 0,0.13 0.1,0.23 0.23,0.23l4.99 0c0.08,0 0.13,-0.03 0.18,-0.08 0.05,-0.05 0.08,-0.1 0.08,-0.18 0,-0.13 -0.1,-0.23 -0.23,-0.23l-4.99 0 0 0zm4.99 0.8l-4.99 0c-0.31,0 -0.57,-0.26 -0.57,-0.57 0,-0.15 0.05,-0.28 0.15,-0.39 0.1,-0.1 0.26,-0.15 0.39,-0.15l4.99 0c0.31,0 0.57,0.26 0.57,0.57 0,0.15 -0.05,0.28 -0.15,0.39 -0.1,0.1 -0.23,0.15 -0.39,0.15z"/>
   <path class="fil3" d="M2.4 13.02c-0.44,0 -0.8,0.36 -0.8,0.8 0,0.44 0.36,0.8 0.8,0.8 0.44,0 0.8,-0.36 0.8,-0.8 0,-0.44 -0.36,-0.8 -0.8,-0.8zm0 1.93c-0.62,0 -1.13,-0.51 -1.13,-1.13 0,-0.62 0.51,-1.13 1.13,-1.13 0.62,0 1.13,0.51 1.13,1.13 0,0.62 -0.51,1.13 -1.13,1.13z"/>
   <path class="fil3" d="M1.45 9.81l11.9 0 0 -6.73 -11.9 0 0 6.73zm12.05 0.33l-12.21 0c-0.08,0 -0.15,-0.08 -0.15,-0.15l0 -7.07c0,-0.08 0.08,-0.15 0.15,-0.15l12.21 0c0.08,0 0.15,0.08 0.15,0.15l0 7.07c0,0.08 -0.08,0.15 -0.15,0.15z"/>
   <path class="fil3" d="M1.35 2.1c-0.49,0 -0.87,0.39 -0.87,0.87l0 7.92c0,0.49 0.39,0.87 0.87,0.87l12.08 0c0.49,0 0.87,-0.39 0.87,-0.87l0 -7.92c0,-0.49 -0.39,-0.87 -0.87,-0.87l-12.08 0zm12.08 9.97l-12.08 0c-0.67,0 -1.18,-0.54 -1.18,-1.18l0 -7.92c0,-0.67 0.54,-1.18 1.18,-1.18l12.08 0c0.67,0 1.18,0.54 1.18,1.18l0 7.92c0,0.64 -0.51,1.18 -1.18,1.18z"/>
   <path class="fil3" d="M3.69 5.16l7.71 0 0 -1.13 -7.71 0 0 1.13zm7.89 0.33l-8.04 0c-0.08,0 -0.15,-0.08 -0.15,-0.15l0 -1.44c0,-0.08 0.08,-0.15 0.15,-0.15l8.04 0c0.08,0 0.15,0.08 0.15,0.15l0 1.44c0,0.08 -0.08,0.15 -0.15,0.15z"/>
   <path class="fil3" d="M3.69 8.86l2.57 0 0 -2.57 -2.57 0 0 2.57zm2.75 0.31l-2.9 0c-0.08,0 -0.15,-0.08 -0.15,-0.15l0 -2.88c0,-0.08 0.08,-0.15 0.15,-0.15l2.9 0c0.08,0 0.15,0.08 0.15,0.15l0 2.9c0,0.05 -0.08,0.13 -0.15,0.13z"/>
   <path class="fil3" d="M7.54 6.78l3.86 0 0 -0.49 -3.86 0 0 0.49zm4.04 0.31l-4.19 0c-0.08,0 -0.15,-0.08 -0.15,-0.15l0 -0.8c0,-0.08 0.08,-0.15 0.15,-0.15l4.19 0c0.08,0 0.15,0.08 0.15,0.15l0 0.8c0,0.08 -0.08,0.15 -0.15,0.15z"/>
   <path class="fil3" d="M7.54 8.86l3.86 0 0 -0.98 -3.86 0 0 0.98zm4.04 0.31l-4.19 0c-0.08,0 -0.15,-0.08 -0.15,-0.15l0 -1.29c0,-0.08 0.08,-0.15 0.15,-0.15l4.19 0c0.08,0 0.15,0.08 0.15,0.15l0 1.29c0,0.08 -0.08,0.15 -0.15,0.15z"/>
  </g>
  <path class="fil4" d="M15.83 0.2c-0.21,0 -5.55,0 -5.76,0 -0.72,0 -1.28,0.59 -1.28,1.29 0,0.54 0,10.51 0,12.18 0,0.72 0.59,1.28 1.28,1.28 0.21,0 5.55,0 5.76,0 0.72,0 1.29,-0.59 1.29,-1.28 0,-0.21 0,-12 0,-12.18 0,-0.72 -0.57,-1.29 -1.29,-1.29z"/>
  <path class="fil1" d="M15.47 1.15l-1.23 0 0 0.05c0,0.23 -0.18,0.41 -0.41,0.41l-1.72 0c-0.23,0 -0.41,-0.18 -0.41,-0.41l0 -0.05 -1.23 0c-0.39,0 -0.69,0.31 -0.69,0.69 0,0.67 0,10.82 0,11.49 0,0.39 0.31,0.69 0.69,0.69l5.06 0c0.39,0 0.69,-0.31 0.69,-0.69 0,-4.06 0,-7.45 0,-11.49 -0.08,-0.39 -0.39,-0.69 -0.75,-0.69z"/>
  <path class="fil2" d="M12.77 2.77c1.16,0 2.08,0.93 2.08,2.08 0,1.16 -0.93,2.08 -2.08,2.08 -1.16,0 -2.08,-0.93 -2.08,-2.08 0,-1.16 0.92,-2.08 2.08,-2.08z"/>
  <path class="fil3" d="M13.31 4.16c0.03,0.08 0.05,0.15 0.05,0.26 0,0.1 -0.03,0.18 -0.08,0.26 -0.05,0.08 -0.1,0.13 -0.18,0.18 -0.05,0.03 -0.08,0.05 -0.13,0.08 -0.05,0.03 -0.08,0.05 -0.1,0.05 -0.03,0.03 -0.05,0.05 -0.08,0.08 -0.03,0.03 -0.03,0.05 -0.03,0.1l-0.36 0c0,-0.05 0,-0.08 0,-0.13 0,-0.05 0.03,-0.08 0.03,-0.1 0.03,-0.03 0.03,-0.08 0.08,-0.1 0.05,-0.03 0.08,-0.05 0.13,-0.08 0.03,-0.03 0.05,-0.03 0.1,-0.05 0.05,-0.03 0.08,-0.05 0.13,-0.08 0.03,-0.03 0.08,-0.05 0.1,-0.1 0.03,-0.03 0.05,-0.08 0.05,-0.13 0,-0.05 -0.03,-0.1 -0.08,-0.15 -0.05,-0.03 -0.1,-0.05 -0.15,-0.05 -0.03,0 -0.08,0 -0.1,0.03 -0.03,0.03 -0.05,0.03 -0.08,0.05 -0.03,0.03 -0.05,0.05 -0.05,0.08 -0.03,0.03 -0.03,0.05 -0.05,0.05l-0.28 -0.21c0.05,-0.1 0.13,-0.21 0.23,-0.26 0.1,-0.05 0.23,-0.1 0.36,-0.1 0.08,0 0.13,0 0.21,0.03 0.08,0.03 0.13,0.05 0.18,0.1 0.03,0.08 0.05,0.13 0.1,0.21z"/>
  <polygon class="fil3" points="12.41,5.83 12.77,5.83 12.77,5.42 12.41,5.42 "/>
  <path class="fil3" d="M15.47 14.16l-5.06 0c-0.46,0 -0.85,-0.39 -0.85,-0.85l0 -11.46c0,-0.46 0.39,-0.85 0.85,-0.85l1.23 0c0.08,0 0.15,0.08 0.15,0.15l0 0.05c0,0.15 0.13,0.26 0.26,0.26l1.72 0c0.15,0 0.26,-0.13 0.26,-0.26l0 -0.05c0,-0.08 0.08,-0.15 0.15,-0.15l1.23 0c0.46,0 0.85,0.39 0.85,0.85l0 2.39c0,0.08 -0.08,0.15 -0.15,0.15 -0.08,0 -0.15,-0.08 -0.15,-0.15l0 -2.39c0,-0.28 -0.23,-0.51 -0.51,-0.51l-1.08 0c-0.05,0.28 -0.28,0.49 -0.57,0.49l-1.72 0c-0.28,0 -0.51,-0.21 -0.57,-0.49l-1.11 0c-0.28,0 -0.51,0.23 -0.51,0.51l0 11.49c0,0.28 0.23,0.51 0.51,0.51l5.06 0c0.28,0 0.51,-0.23 0.51,-0.51l0 -0.67c0,-0.08 0.08,-0.15 0.15,-0.15 0.08,0 0.15,0.08 0.15,0.15l0 0.67c0.03,0.46 -0.36,0.82 -0.82,0.82z"/>
  <path class="fil3" d="M15.8 15.13l-5.76 0c-0.8,0 -1.46,-0.64 -1.46,-1.46l0 -12.18c0,-0.8 0.64,-1.46 1.46,-1.46l5.76 0c0.8,0 1.46,0.64 1.46,1.46l0 11.85c0,0.08 -0.08,0.15 -0.15,0.15l0 0c-0.08,0 -0.15,-0.08 -0.15,-0.15l0 -11.85c0,-0.62 -0.51,-1.13 -1.13,-1.13l-5.78 0c-0.62,0 -1.13,0.51 -1.13,1.13l0 12.18c0,0.62 0.51,1.13 1.13,1.13l5.76 0c0.62,0 1.13,-0.51 1.13,-1.13l0 -0.72c0,-0.08 0.08,-0.15 0.15,-0.15l0 0c0.08,0 0.15,0.08 0.15,0.15l0 0.72c0.03,0.8 -0.62,1.46 -1.44,1.46z"/>
  <path class="fil3" d="M15.55 9.71c-0.08,0 -0.15,-0.08 -0.15,-0.15l0 -1.62c0,-0.08 0.08,-0.15 0.15,-0.15 0.08,0 0.15,0.08 0.15,0.15l0 1.62c0.03,0.08 -0.05,0.15 -0.15,0.15z"/>
  <path class="fil3" d="M12.77 2.93c-1.05,0 -1.93,0.87 -1.93,1.93 0,1.05 0.87,1.93 1.93,1.93 1.05,0 1.93,-0.87 1.93,-1.93 0,-1.05 -0.87,-1.93 -1.93,-1.93zm0 4.16c-1.23,0 -2.26,-1 -2.26,-2.26 0,-1.26 1,-2.26 2.26,-2.26 1.26,0 2.26,1 2.26,2.26 0,1.26 -1.03,2.26 -2.26,2.26z"/>
  <path class="fil3" d="M13.57 12.41l-3.86 0c-0.08,0 -0.15,-0.08 -0.15,-0.15 0,-0.08 0.08,-0.15 0.15,-0.15l3.86 0c0.08,0 0.15,0.08 0.15,0.15 0,0.08 -0.05,0.15 -0.15,0.15z"/>
 </g>
</svg>
