<?xml version="1.0" encoding="UTF-8"?>
<!DOCTYPE svg PUBLIC "-//W3C//DTD SVG 1.1//EN" "http://www.w3.org/Graphics/SVG/1.1/DTD/svg11.dtd">
<!-- Creator: CorelDRAW 2021 (64-Bit) -->
<svg xmlns="http://www.w3.org/2000/svg" xml:space="preserve" width="0.842264in" height="0.827689in" version="1.1" style="shape-rendering:geometricPrecision; text-rendering:geometricPrecision; image-rendering:optimizeQuality; fill-rule:evenodd; clip-rule:evenodd"
viewBox="0 0 12.27 12.05"
 xmlns:xlink="http://www.w3.org/1999/xlink"
 xmlns:xodm="http://www.corel.com/coreldraw/odm/2003">
 <defs>
  <style type="text/css">
   <![CDATA[
    .fil10 {fill:#727272}
    .fil7 {fill:#7932C0}
    .fil9 {fill:#E6E4F5}
    .fil8 {fill:white}
    .fil6 {fill:white}
    .fil3 {fill:#7932C0;fill-rule:nonzero}
    .fil4 {fill:#E6E4F5;fill-rule:nonzero}
    .fil2 {fill:white;fill-rule:nonzero}
    .fil1 {fill:white;fill-rule:nonzero}
    .fil5 {fill:white;fill-rule:nonzero}
    .fil0 {fill:#FEA92F;fill-opacity:0.341176}
   ]]>
  </style>
 </defs>
 <g id="Layer_x0020_1">
  <metadata id="CorelCorpID_0Corel-Layer"/>
  <path class="fil0" d="M6.13 0.36c-3.39,0 -6.13,2.62 -6.13,5.84 0,3.23 2.75,5.84 6.13,5.84 3.39,0 6.13,-2.62 6.13,-5.84 0,-3.23 -2.75,-5.84 -6.13,-5.84z"/>
  <path class="fil1" d="M8.1 0.14c-0.16,0 -4.4,0 -4.57,0 -0.57,0 -1.02,0.47 -1.02,1.02 0,0.43 0,8.34 0,9.67 0,0.57 0.47,1.02 1.02,1.02 0.16,0 4.4,0 4.57,0 0.57,0 1.02,-0.47 1.02,-1.02 0,-0.16 0,-9.52 0,-9.67 0,-0.57 -0.45,-1.02 -1.02,-1.02z"/>
  <path class="fil2" d="M7.82 0.9l-0.98 0 0 0.04c0,0.18 -0.14,0.33 -0.33,0.33l-1.37 0c-0.18,0 -0.33,-0.14 -0.33,-0.33l0 -0.04 -0.98 0c-0.31,0 -0.55,0.24 -0.55,0.55 0,0.53 0,8.59 0,9.12 0,0.31 0.24,0.55 0.55,0.55l4.02 0c0.31,0 0.55,-0.24 0.55,-0.55 0,-3.22 0,-5.91 0,-9.12 -0.06,-0.31 -0.31,-0.55 -0.59,-0.55z"/>
  <path class="fil3" d="M11.49 10.73c0.1,0 0.18,0.08 0.18,0.18 0,0.1 -0.08,0.18 -0.18,0.18 -0.1,0 -0.18,-0.08 -0.18,-0.18 0,-0.1 0.08,-0.18 0.18,-0.18z"/>
  <path class="fil3" d="M10.53 3.83c0.1,0 0.18,0.08 0.18,0.18 0,0.1 -0.08,0.18 -0.18,0.18 -0.1,0 -0.18,-0.08 -0.18,-0.18 0,-0.1 0.08,-0.18 0.18,-0.18z"/>
  <path class="fil3" d="M9.82 0.53c0.1,0 0.18,0.08 0.18,0.18 0,0.1 -0.08,0.18 -0.18,0.18 -0.1,0 -0.18,-0.08 -0.18,-0.18 0,-0.1 0.08,-0.18 0.18,-0.18z"/>
  <path class="fil4" d="M5.68 2.18c0.92,0 1.65,0.73 1.65,1.65 0,0.92 -0.73,1.65 -1.65,1.65 -0.92,0 -1.65,-0.73 -1.65,-1.65 0,-0.92 0.73,-1.65 1.65,-1.65z"/>
  <path class="fil3" d="M6.1 3.28c0.02,0.06 0.04,0.12 0.04,0.2 0,0.08 -0.02,0.14 -0.06,0.2 -0.04,0.06 -0.08,0.1 -0.14,0.14 -0.04,0.02 -0.06,0.04 -0.1,0.06 -0.04,0.02 -0.06,0.04 -0.08,0.04 -0.02,0.02 -0.04,0.04 -0.06,0.06 -0.02,0.02 -0.02,0.04 -0.02,0.08l-0.29 0c0,-0.04 0,-0.06 0,-0.1 0,-0.04 0.02,-0.06 0.02,-0.08 0.02,-0.02 0.02,-0.06 0.06,-0.08 0.04,-0.02 0.06,-0.04 0.1,-0.06 0.02,-0.02 0.04,-0.02 0.08,-0.04 0.04,-0.02 0.06,-0.04 0.1,-0.06 0.02,-0.02 0.06,-0.04 0.08,-0.08 0.02,-0.02 0.04,-0.06 0.04,-0.1 0,-0.04 -0.02,-0.08 -0.06,-0.12 -0.04,-0.02 -0.08,-0.04 -0.12,-0.04 -0.02,0 -0.06,0 -0.08,0.02 -0.02,0.02 -0.04,0.02 -0.06,0.04 -0.02,0.02 -0.04,0.04 -0.04,0.06 -0.02,0.02 -0.02,0.04 -0.04,0.04l-0.22 -0.16c0.04,-0.08 0.1,-0.16 0.18,-0.2 0.08,-0.04 0.18,-0.08 0.29,-0.08 0.06,0 0.1,0 0.16,0.02 0.06,0.02 0.1,0.04 0.14,0.08 0.02,0.06 0.04,0.1 0.08,0.16z"/>
  <polygon class="fil3" points="5.39,4.61 5.68,4.61 5.68,4.28 5.39,4.28 "/>
  <path class="fil3" d="M1.8 7.79c0.1,0 0.18,0.08 0.18,0.18 0,0.1 -0.08,0.18 -0.18,0.18 -0.1,0 -0.18,-0.08 -0.18,-0.18 0,-0.1 0.08,-0.18 0.18,-0.18z"/>
  <path class="fil5" d="M1.48 9.32c0.2,0 0.39,0.16 0.39,0.39 0,0.22 -0.16,0.39 -0.39,0.39 -0.22,0 -0.39,-0.16 -0.39,-0.39 0,-0.22 0.18,-0.39 0.39,-0.39z"/>
  <path class="fil3" d="M1.41 1.79c0.1,0 0.18,0.08 0.18,0.18 0,0.1 -0.08,0.18 -0.18,0.18 -0.1,0 -0.18,-0.08 -0.18,-0.18 0,-0.1 0.08,-0.18 0.18,-0.18z"/>
  <path class="fil3" d="M7.82 11.22l-4.02 0c-0.37,0 -0.67,-0.31 -0.67,-0.67l0 -9.1c0,-0.37 0.31,-0.67 0.67,-0.67l0.98 0c0.06,0 0.12,0.06 0.12,0.12l0 0.04c0,0.12 0.1,0.2 0.2,0.2l1.37 0c0.12,0 0.2,-0.1 0.2,-0.2l0 -0.04c0,-0.06 0.06,-0.12 0.12,-0.12l0.98 0c0.37,0 0.67,0.31 0.67,0.67l0 1.9c0,0.06 -0.06,0.12 -0.12,0.12 -0.06,0 -0.12,-0.06 -0.12,-0.12l0 -1.9c0,-0.22 -0.18,-0.41 -0.41,-0.41l-0.86 0c-0.04,0.22 -0.22,0.39 -0.45,0.39l-1.37 0c-0.22,0 -0.41,-0.16 -0.45,-0.39l-0.88 0c-0.22,0 -0.41,0.18 -0.41,0.41l0 9.12c0,0.22 0.18,0.41 0.41,0.41l4.02 0c0.22,0 0.41,-0.18 0.41,-0.41l0 -0.53c0,-0.06 0.06,-0.12 0.12,-0.12 0.06,0 0.12,0.06 0.12,0.12l0 0.53c0.02,0.37 -0.29,0.65 -0.65,0.65z"/>
  <path class="fil3" d="M8.08 11.99l-4.57 0c-0.63,0 -1.16,-0.51 -1.16,-1.16l0 -9.67c0,-0.63 0.51,-1.16 1.16,-1.16l4.57 0c0.63,0 1.16,0.51 1.16,1.16l0 9.4c0,0.06 -0.06,0.12 -0.12,0.12l0 0c-0.06,0 -0.12,-0.06 -0.12,-0.12l0 -9.4c0,-0.49 -0.41,-0.9 -0.9,-0.9l-4.59 0c-0.49,0 -0.9,0.41 -0.9,0.9l0 9.67c0,0.49 0.41,0.9 0.9,0.9l4.57 0c0.49,0 0.9,-0.41 0.9,-0.9l0 -0.57c0,-0.06 0.06,-0.12 0.12,-0.12l0 0c0.06,0 0.12,0.06 0.12,0.12l0 0.57c0.02,0.63 -0.49,1.16 -1.14,1.16z"/>
  <path class="fil3" d="M7.88 7.69c-0.06,0 -0.12,-0.06 -0.12,-0.12l0 -1.28c0,-0.06 0.06,-0.12 0.12,-0.12 0.06,0 0.12,0.06 0.12,0.12l0 1.28c0.02,0.06 -0.04,0.12 -0.12,0.12z"/>
  <path class="fil3" d="M5.68 2.3c-0.84,0 -1.53,0.69 -1.53,1.53 0,0.84 0.69,1.53 1.53,1.53 0.84,0 1.53,-0.69 1.53,-1.53 0,-0.84 -0.69,-1.53 -1.53,-1.53zm0 3.3c-0.98,0 -1.79,-0.8 -1.79,-1.79 0,-1 0.8,-1.79 1.79,-1.79 1,0 1.79,0.8 1.79,1.79 0,1 -0.82,1.79 -1.79,1.79z"/>
  <path class="fil3" d="M1.48 9.44c-0.14,0 -0.27,0.12 -0.27,0.27 0,0.14 0.12,0.27 0.27,0.27 0.14,0 0.27,-0.12 0.27,-0.27 0,-0.14 -0.12,-0.27 -0.27,-0.27zm0 0.75c-0.29,0 -0.51,-0.22 -0.51,-0.51 0,-0.29 0.22,-0.51 0.51,-0.51 0.29,0 0.51,0.22 0.51,0.51 0,0.29 -0.22,0.51 -0.51,0.51z"/>
  <path class="fil3" d="M6.31 9.83l-3.06 0c-0.06,0 -0.12,-0.06 -0.12,-0.12 0,-0.06 0.06,-0.12 0.12,-0.12l3.06 0c0.06,0 0.12,0.06 0.12,0.12 0,0.06 -0.04,0.12 -0.12,0.12z"/>
  <path class="fil6" d="M6.21 8.83c-0.16,-0.96 0.53,-1.74 1.33,-1.86 0.97,-0.16 1.73,0.56 1.85,1.35 0.15,0.96 -0.56,1.72 -1.35,1.84 -0.94,0.14 -1.7,-0.55 -1.83,-1.32zm3.71 -0.21c-0.06,-0.51 0.68,-0.57 0.73,-0.1 0.06,0.52 -0.67,0.53 -0.73,0.1zm-4.26 0.07c-0.15,0.4 -0.88,0.25 -0.69,-0.26 0.15,-0.41 0.87,-0.23 0.69,0.26zm5.2 -1.73c0.1,0.21 -0.01,0.25 0.25,0.35l0.14 0.08c0.07,0.13 0.05,2.16 0.01,2.38 -0.55,0.15 -0.19,0.1 -0.42,0.38 -0.02,0.01 -1.68,0.08 -1.76,-0.05 -0.17,-0.26 0.53,-0.19 0.69,-0.19 0.3,0 0.61,0.01 0.91,-0 0.08,-0.22 0.13,-0.27 0.35,-0.35l0 -2.03c-0.18,-0.06 -0.23,-0.11 -0.31,-0.24 -0.08,-0.12 0.02,-0.06 -0.11,-0.12 -0.34,0 -1.34,0.06 -1.56,-0.04 -0,-0.29 0.12,-0.2 0.81,-0.2 0.31,0 0.69,-0.02 0.99,0.01zm-5.87 0.23c-0.16,0.07 -0.08,0.25 -0.42,0.35l0 2.03c0.22,0.07 0.27,0.13 0.36,0.35 0.3,0.01 0.61,0 0.91,0 0.16,0 0.86,-0.08 0.69,0.19 -0.08,0.13 -1.75,0.06 -1.76,0.05 -0.23,-0.28 0.12,-0.24 -0.42,-0.38 -0.05,-0.45 -0.02,-1.72 -0.02,-2.25 0,-0.25 0.08,-0.15 0.25,-0.25 0.15,-0.08 0.1,-0.18 0.17,-0.32l1.6 -0.01c0.2,0 0.21,0.01 0.21,0.2 -0.21,0.1 -1.22,0.04 -1.56,0.04zm-0.92 -0.27c0,0.71 -0.03,2.93 0.02,3.48 0.38,0.05 6.92,0.05 7.41,0 0.05,-0.38 0.04,-3.15 0.01,-3.64 -0.22,-0.14 -1.47,-0.07 -1.86,-0.07 -1.7,0 -3.66,-0.03 -5.34,-0 -0.2,0 -0.24,0.03 -0.24,0.23z"/>
  <path class="fil7" d="M4.07 6.93c0,-0.2 0.05,-0.23 0.24,-0.23 1.68,-0.03 3.63,0 5.34,0 0.39,0 1.64,-0.08 1.86,0.07 0.03,0.49 0.04,3.26 -0.01,3.64 -0.5,0.04 -7.03,0.04 -7.41,-0 -0.05,-0.54 -0.02,-2.77 -0.02,-3.48zm1.95 -0.48c0.71,-0.05 4.7,-0.78 5,-0.68 0.05,0.11 0.11,0.53 0.1,0.69l-5.1 -0.01zm0.25 -0.31c-0.09,0.08 -0.07,0.05 -0.19,0.03l0.16 -0.06c0.36,-0.02 3.89,-1.16 4.04,-1.06 0.03,0.03 0.02,0.01 0.05,0.07 0,0.01 0.01,0.02 0.01,0.02 0,0.01 0.01,0.02 0.01,0.03 0,0 0.03,0.12 0.04,0.14 0,0.02 0.04,0.13 0.04,0.14 0.01,0.04 0,0.05 -0,0.07l-4.15 0.63zm-2.45 0.6l0 3.65c0.21,0.3 0.1,0.28 0.78,0.28l6.36 0c0.71,0 0.59,0.03 0.81,-0.28l0 -3.65c-0.07,-0.1 -0.03,-0.14 -0.13,-0.21 -0.07,-0.05 -0.17,-0.06 -0.25,-0.1 -0.04,-0.17 -0.06,-0.61 -0.12,-0.73 -0.12,-0.24 -0.32,-0.16 -0.57,-0.2 -0.07,-0.33 -0.1,-0.73 -0.48,-0.73l-5.64 1.57c-0.76,0.22 -0.55,0.07 -0.76,0.4z"/>
  <path class="fil8" d="M7.66 9.4c-0.57,-0.13 -0.32,-0.88 -0.13,-0.5 0.06,0.13 0.08,0.34 0.33,0.27 0.13,-0.04 0.23,-0.21 0.15,-0.36 -0.14,-0.25 -0.66,-0.01 -0.71,-0.58 -0.02,-0.23 0.08,-0.36 0.2,-0.44 0.34,-0.22 0.04,-0.19 0.27,-0.34 0.15,0.04 0.1,0.07 0.15,0.21 0.06,0.16 -0.02,0.02 0.17,0.15 0.06,0.04 0.12,0.1 0.16,0.2 0.03,0.1 0.03,0.23 -0.02,0.27 -0.3,0.15 -0.09,-0.44 -0.52,-0.32 -0.24,0.06 -0.24,0.42 0.06,0.48 0.76,0.16 0.57,0.87 0.14,0.97 -0.01,0.14 0.01,0.28 -0.14,0.27 -0.14,-0.01 -0.11,-0.12 -0.12,-0.27zm-1.22 -0.64c0.08,0.66 0.75,1.26 1.54,1.15 0.67,-0.09 1.27,-0.73 1.17,-1.54 -0.23,-1.75 -2.94,-1.47 -2.71,0.39z"/>
  <path class="fil7" d="M6.44 8.76c-0.24,-1.86 2.48,-2.13 2.71,-0.39 0.11,0.81 -0.5,1.45 -1.17,1.54 -0.79,0.11 -1.46,-0.49 -1.54,-1.15zm-0.23 0.07c0.13,0.77 0.89,1.47 1.83,1.32 0.79,-0.12 1.5,-0.88 1.35,-1.84 -0.12,-0.79 -0.88,-1.5 -1.85,-1.35 -0.8,0.13 -1.49,0.9 -1.33,1.86z"/>
  <path class="fil9" d="M6.02 6.45l5.1 0.01c0.01,-0.16 -0.05,-0.57 -0.1,-0.69 -0.3,-0.1 -4.28,0.63 -5,0.68z"/>
  <path class="fil7" d="M11.24 7.39l-0.14 -0.08c-0.26,-0.1 -0.15,-0.14 -0.25,-0.35 -0.31,-0.03 -0.68,-0.01 -0.99,-0.01 -0.69,0 -0.82,-0.09 -0.81,0.2 0.21,0.1 1.22,0.04 1.56,0.04 0.13,0.06 0.03,-0 0.11,0.12 0.08,0.12 0.13,0.18 0.31,0.24l-0 2.03c-0.22,0.08 -0.27,0.13 -0.35,0.35 -0.3,0.01 -0.61,0 -0.91,0 -0.16,0 -0.86,-0.08 -0.69,0.19 0.08,0.13 1.75,0.06 1.76,0.05 0.23,-0.28 -0.13,-0.24 0.42,-0.38 0.04,-0.22 0.05,-2.26 -0.01,-2.38z"/>
  <path class="fil7" d="M4.99 7.19c0.34,0 1.34,0.06 1.56,-0.04 -0,-0.19 -0.02,-0.2 -0.21,-0.2l-1.6 0.01c-0.07,0.14 -0.02,0.24 -0.17,0.32 -0.17,0.09 -0.25,-0.01 -0.25,0.25 -0,0.53 -0.03,1.8 0.02,2.25 0.55,0.14 0.19,0.1 0.42,0.38 0.02,0.01 1.68,0.08 1.76,-0.05 0.17,-0.26 -0.53,-0.19 -0.69,-0.19 -0.3,0 -0.61,0.01 -0.91,-0 -0.08,-0.22 -0.13,-0.28 -0.36,-0.35l-0 -2.03c0.34,-0.1 0.26,-0.28 0.42,-0.35z"/>
  <path class="fil8" d="M6.25 6.11l0.03 0.03 4.15 -0.63c0,-0.02 0.01,-0.03 0,-0.07 -0,-0.01 -0.03,-0.12 -0.04,-0.14 -0.01,-0.02 -0.04,-0.14 -0.04,-0.14 -0,-0.01 -0.01,-0.02 -0.01,-0.03 -0,-0.01 -0.01,-0.02 -0.01,-0.02 -0.03,-0.05 -0.01,-0.03 -0.05,-0.07 -0.15,-0.1 -3.67,1.04 -4.04,1.06z"/>
  <path class="fil7" d="M7.66 9.4c0.01,0.15 -0.02,0.25 0.12,0.27 0.15,0.02 0.13,-0.13 0.14,-0.27 0.42,-0.1 0.62,-0.81 -0.14,-0.97 -0.31,-0.06 -0.3,-0.42 -0.06,-0.48 0.43,-0.12 0.22,0.47 0.52,0.32 0.05,-0.04 0.05,-0.18 0.02,-0.27 -0.03,-0.1 -0.09,-0.15 -0.16,-0.2 -0.19,-0.13 -0.1,0.02 -0.17,-0.15 -0.05,-0.13 -0,-0.17 -0.15,-0.21 -0.22,0.14 0.07,0.12 -0.27,0.34 -0.13,0.08 -0.22,0.22 -0.2,0.44 0.04,0.57 0.57,0.34 0.71,0.58 0.08,0.15 -0.02,0.32 -0.15,0.36 -0.25,0.07 -0.27,-0.14 -0.33,-0.27 -0.18,-0.38 -0.44,0.37 0.13,0.5z"/>
  <path class="fil7" d="M10.28 8.69c-0.17,-0.06 -0.17,-0.22 -0.03,-0.25 0.13,-0.02 0.25,0.13 0.03,0.25zm-0.37 -0.07c0.05,0.43 0.79,0.41 0.73,-0.1 -0.05,-0.46 -0.79,-0.41 -0.73,0.1z"/>
  <path class="fil7" d="M5.24 8.48c0.14,-0.14 0.26,0.05 0.16,0.16 -0.04,0.04 -0.1,0.07 -0.16,0.01 -0.1,-0.09 -0.05,-0.12 0,-0.17zm0.42 0.21c0.18,-0.49 -0.54,-0.67 -0.69,-0.26 -0.19,0.51 0.54,0.66 0.69,0.26z"/>
  <path class="fil8" d="M5.24 8.48c-0.05,0.05 -0.1,0.08 -0,0.17 0.06,0.05 0.12,0.03 0.16,-0.01 0.1,-0.11 -0.02,-0.3 -0.16,-0.16z"/>
  <path class="fil8" d="M10.28 8.69c0.22,-0.11 0.1,-0.27 -0.03,-0.25 -0.14,0.02 -0.14,0.19 0.03,0.25z"/>
  <path class="fil10" d="M6.28 6.14l-0.03 -0.03 -0.16 0.06c0.12,0.02 0.1,0.05 0.19,-0.03z"/>
 </g>
</svg>
